<svg width="772" height="585" viewBox="0 0 772 585" fill="none" xmlns="http://www.w3.org/2000/svg">
<path d="M88.2799 569.663H230.769C233.213 569.663 233.213 565.998 230.769 565.998C183.251 565.998 135.734 565.998 88.2799 565.998C85.8351 565.998 85.8351 569.663 88.2799 569.663Z" fill="#E8E8E8"/>
<path d="M134.731 555.309H277.721H318.28C320.725 555.309 320.725 551.644 318.28 551.644C270.637 551.644 222.995 551.644 175.29 551.644C161.749 551.644 148.209 551.644 134.731 551.644C132.349 551.644 132.349 555.309 134.731 555.309Z" fill="#E8E8E8"/>
<path d="M315.209 532.707H411.998C414.443 532.707 414.443 529.042 411.998 529.042C379.714 529.042 347.43 529.042 315.209 529.042C312.764 529.042 312.764 532.707 315.209 532.707Z" fill="#E8E8E8"/>
<path d="M398.082 584.018H599.622H655.978C658.423 584.018 658.423 580.353 655.978 580.353C588.777 580.353 521.576 580.353 454.438 580.353C435.631 580.353 416.888 580.353 398.082 580.353C395.637 580.353 395.637 584.018 398.082 584.018Z" fill="#E8E8E8"/>
<path d="M556.869 569.663H690.08C692.524 569.663 692.524 565.998 690.08 565.998C645.697 565.998 601.252 565.998 556.869 565.998C554.424 565.998 554.424 569.663 556.869 569.663Z" fill="#E8E8E8"/>
<path d="M205.881 124.976C202.621 125.526 197.481 126.809 192.09 130.046C188.705 132.062 181.809 136.949 177.484 145.928C175.917 149.104 172.406 156.495 174.161 165.658C176.732 179.218 188.956 185.999 190.899 187.037C197.105 177.814 203.248 168.529 209.454 159.305C208.201 147.883 207.01 136.46 205.881 124.976Z" fill="#F16A6F"/>
<path d="M210.521 158.206C219.673 153.38 228.763 148.555 237.915 143.668C239.921 146.111 243.682 151.548 243.619 158.878C243.619 160.527 243.431 162.054 243.118 163.459C232.21 161.688 221.365 159.916 210.521 158.206Z" fill="#69587B"/>
<path d="M112.352 200.353C113.48 214.708 114.546 229.124 115.674 243.478C119.686 243.234 123.698 242.928 127.647 242.684C126.331 228.085 125.014 213.547 123.698 198.948C119.874 199.437 116.113 199.865 112.352 200.353Z" fill="#69587B"/>
<path d="M134.731 215.319C135.358 224.176 135.985 232.972 136.675 241.829C140.687 241.463 144.699 241.157 148.648 240.791C147.77 231.933 146.956 223.137 146.078 214.28C142.254 214.586 138.493 214.952 134.731 215.319Z" fill="#F16A6F"/>
<path d="M277.346 270.049C215.16 275.608 153.036 281.105 90.8502 286.664C85.1456 197.971 79.3784 109.278 73.6738 20.524C135.672 18.3861 197.732 16.2481 259.73 14.1102C265.623 99.4436 271.516 184.777 277.346 270.049V270.049Z" stroke="#161616" stroke-width="2" stroke-miterlimit="10"/>
<path d="M137.803 3.72601C138.492 8.55159 139.244 13.3772 139.934 18.2027C140.122 19.3633 141.94 18.8747 141.752 17.7141C141.062 12.8885 140.31 8.06292 139.621 3.23734C139.433 2.07676 137.615 2.56543 137.803 3.72601Z" fill="#E8E8E8"/>
<path d="M139.119 3.60391C153.224 2.68766 167.391 2.13792 181.496 1.8325C182.687 1.8325 182.687 0 181.496 0C167.329 0.305417 153.224 0.916247 139.119 1.77141C137.928 1.8325 137.928 3.665 139.119 3.60391Z" fill="#E8E8E8"/>
<path d="M180.932 1.09944C181.559 6.29152 182.06 11.4225 182.373 16.6146C182.436 17.7752 184.317 17.7752 184.254 16.6146C183.941 11.4225 183.439 6.23044 182.812 1.09944C182.624 -0.0611419 180.744 -0.0611419 180.932 1.09944Z" fill="#E8E8E8"/>
<path d="M139.182 3.5428C139.621 8.06297 140.059 12.6442 140.498 17.1644C140.561 17.6531 140.874 18.0806 141.439 18.0806C154.916 18.2028 168.331 16.126 181.872 16.5536C183.063 16.6146 183.063 14.7821 181.872 14.7211C168.394 14.2935 154.979 16.3092 141.439 16.2481L142.379 17.1644C141.94 12.6442 141.501 8.06297 141.062 3.5428C140.937 2.38222 139.056 2.38222 139.182 3.5428Z" fill="#E8E8E8"/>
<path d="M140.185 4.15365C142.254 5.37532 144.949 4.76449 147.206 4.64232C150.967 4.45907 154.729 4.27582 158.49 4.09257C166.012 3.72607 173.472 3.29849 180.995 2.93199C180.681 2.62657 180.368 2.32115 180.054 2.01574C180.242 5.98616 180.431 9.95657 180.619 13.9881C180.681 15.1487 182.562 15.1487 182.499 13.9881C182.311 10.0177 182.123 6.04724 181.935 2.01574C181.935 1.52707 181.496 1.09949 180.995 1.09949C174.35 1.46599 167.642 1.7714 160.997 2.1379C157.675 2.32115 154.353 2.5044 150.967 2.62657C148.335 2.74874 143.445 3.9704 141.125 2.56548C140.122 1.95465 139.182 3.54282 140.185 4.15365Z" fill="#E8E8E8"/>
<path d="M140.122 4.52023C141.062 8.24631 141.689 12.0335 142.065 15.8817C142.692 15.8206 143.319 15.6985 143.883 15.6374C143.194 12.3389 143.382 9.10148 144.009 5.74189C143.382 5.68081 142.755 5.55865 142.191 5.49756C142.316 9.16256 142.567 12.6443 144.009 16.0039C144.448 16.9812 146.015 16.2482 145.701 15.2709C144.636 11.3616 143.633 7.51331 144.698 3.48181C144.071 3.48181 143.507 3.48181 142.88 3.48181C143.445 7.14681 144.009 10.8118 144.573 14.4768C144.761 15.6374 146.579 15.1487 146.391 13.9881C145.827 10.3231 145.262 6.65814 144.698 2.99314C144.573 2.07689 143.068 2.19906 142.88 2.99314C141.752 7.33006 142.755 11.5448 143.883 15.7596C144.448 15.5152 145.012 15.2709 145.576 15.0266C144.259 11.9724 144.134 8.67389 144.009 5.43648C144.009 4.45914 142.379 4.15373 142.191 5.19215C141.501 8.85715 141.25 12.4 142.065 16.065C142.253 17.0423 144.009 16.8591 143.883 15.8206C143.507 11.8502 142.818 7.87981 141.877 3.97048C141.627 2.87098 139.871 3.35964 140.122 4.52023Z" fill="#E8E8E8"/>
<path d="M144.949 7.75761C145.639 6.65811 146.328 5.55862 147.018 4.45912C146.454 4.1537 145.952 3.84828 145.388 3.54287C144.573 5.31428 143.821 7.0857 143.006 8.85712C142.63 9.71228 143.758 10.8729 144.51 9.95662C145.764 8.42953 146.955 6.84136 148.209 5.31428C147.707 5.00886 147.143 4.70345 146.642 4.39803C146.14 5.86403 145.513 7.20787 144.636 8.5517C144.072 9.40687 145.451 10.5064 146.14 9.6512C147.081 8.49062 148.021 7.33004 149.024 6.16945C148.522 5.80295 148.021 5.43645 147.519 5.06995C146.266 7.94087 145.012 10.7507 143.758 13.6216C143.382 14.4768 144.51 15.6374 145.263 14.7211C147.519 11.9724 149.839 9.16253 152.096 6.41378C151.594 6.04728 151.093 5.68078 150.591 5.31428C148.898 8.00195 147.206 10.7507 145.513 13.4384C145.075 14.1103 145.764 15.0265 146.579 14.7822C147.582 14.4768 147.707 14.3546 148.46 13.7438C147.958 13.4384 147.394 13.133 146.892 12.8275C146.516 13.866 145.889 14.66 144.949 15.332C144.009 16.0039 144.824 17.531 145.889 16.9201C146.892 16.3704 147.833 16.0039 148.961 15.8817C148.585 15.5152 148.209 15.1487 147.833 14.7822C146.203 13.9881 145.701 12.8886 146.328 11.4226C146.516 10.6285 146.83 9.89554 147.206 9.22362C147.707 8.36845 148.648 6.29162 149.588 8.12412C150.278 9.46795 147.394 16.9812 147.018 12.3389C146.955 11.1172 147.081 9.89553 147.457 8.79603C147.707 7.94086 148.084 7.14678 148.522 6.3527C149.149 5.13103 149.463 5.13103 149.525 6.3527C150.716 8.79603 149.275 12.6443 148.084 14.7822C148.648 14.8433 149.212 14.9044 149.776 15.0265C149.275 13.3162 149.087 11.667 149.463 9.95662C149.588 9.2847 150.215 6.04729 150.904 7.0857C152.346 9.10145 149.964 13.6827 148.961 15.4541C149.525 15.6374 150.152 15.7595 150.716 15.9428C150.528 14.2935 150.466 12.7054 150.779 11.0561C150.967 9.95662 151.657 6.41378 152.848 6.29162C154.54 6.10837 151.281 13.6216 150.528 14.7211C151.093 14.7822 151.657 14.8433 152.221 14.9655C151.657 12.2167 151.657 6.3527 155.481 5.43644C155.105 5.25319 154.728 5.00886 154.352 4.82561C155.042 8.5517 153.976 12.1556 151.343 14.9044C151.845 15.0265 152.409 15.1487 152.91 15.332C152.472 13.6216 152.409 11.9724 152.848 10.262C153.099 9.34579 154.415 5.49753 155.669 5.80295C156.546 5.9862 155.418 9.52903 155.167 10.3231C154.478 12.2778 153.412 13.9881 151.845 15.4541C152.346 15.5763 152.91 15.6985 153.412 15.8817C152.409 11.7891 154.164 7.69653 157.863 5.49753C157.424 5.31428 156.922 5.13104 156.484 4.94779C157.925 8.67387 154.227 13.4995 151.782 16.0039C152.284 16.126 152.848 16.2482 153.349 16.4314C152.91 14.66 152.91 12.9497 153.475 11.1783C153.663 10.6285 155.543 6.47487 156.421 6.78029C157.675 7.20787 155.543 10.934 155.167 11.4837C154.728 12.2778 153.913 13.6827 153.099 14.1714C152.158 14.7822 152.221 14.9044 152.158 13.5605C152.096 11.728 153.349 9.6512 154.415 8.30737C154.979 7.57437 155.919 6.41378 156.797 6.10837C157.8 5.68078 157.675 5.55861 157.549 6.84136C157.111 10.6285 154.916 14.0492 152.158 16.6758C152.66 16.798 153.224 16.9201 153.725 17.1034C153.161 13.4995 154.415 9.77336 157.173 7.26895C157.988 6.53595 158.928 6.04728 159.242 7.57436C159.367 8.1852 158.615 9.6512 158.364 10.2009C157.487 12.2167 156.233 13.927 154.666 15.4541H155.982C154.854 14.1714 156.296 11.3615 156.985 10.1399C157.299 9.59012 159.994 5.55861 160.746 5.92511C161.624 6.3527 159.681 10.4453 159.43 10.8729C158.552 12.5221 157.424 13.9881 156.108 15.332C156.672 15.5763 157.173 15.7595 157.737 16.0039C157.8 11.5448 159.931 7.75762 163.818 5.37537C163.317 5.13103 162.878 4.82562 162.376 4.58128C162.439 8.67387 160.934 12.2778 157.925 15.1487C158.49 15.393 158.991 15.5763 159.555 15.8206C159.931 11.3615 162.063 7.51329 165.573 4.64237C165.072 4.58129 164.57 4.5202 164.069 4.45912C166.075 7.39112 161.687 12.8886 159.931 15.0876C160.496 15.332 160.997 15.5152 161.561 15.7595C161.624 14.0492 161.937 12.461 162.627 10.8729C163.003 9.89554 164.57 6.53595 165.699 6.29162C167.203 5.9862 165.636 8.79604 165.135 9.83445C164.257 11.6059 163.066 13.133 161.687 14.5379C162.188 14.8433 162.752 15.1487 163.254 15.4541C163.818 11.667 165.385 6.65812 169.46 5.2532C169.084 4.94779 168.645 4.64236 168.269 4.39803C167.767 8.5517 165.887 12.0945 162.752 14.9044C163.317 15.1487 163.818 15.332 164.382 15.5763C164.57 13.6216 165.009 11.728 165.887 9.89553C166.451 8.73495 167.955 5.68078 169.335 5.43644C170.024 5.31428 169.335 6.3527 169.084 7.02462C168.708 8.00195 168.206 8.9182 167.705 9.77337C166.702 11.4837 165.448 13.0108 164.006 14.4157C164.57 14.66 165.072 14.8433 165.636 15.0876C165.887 11.1783 167.767 7.8187 170.902 5.43644C170.463 5.06994 169.961 4.76453 169.523 4.39803C169.021 7.26895 167.517 9.52904 165.511 11.667C164.32 12.9497 163.943 12.6443 163.818 10.9339C163.693 8.61278 165.135 6.29162 167.517 5.68078C167.141 5.37537 166.702 5.06995 166.326 4.82561C166.138 8.49061 165.009 11.7891 163.003 14.8433C163.567 15.0265 164.194 15.1487 164.758 15.332C164.946 13.4995 165.448 11.728 166.326 10.0788C166.89 8.97928 168.332 6.23053 169.585 5.92511C171.403 5.43645 169.585 8.9182 169.147 9.77337C168.269 11.4837 167.078 12.9497 165.699 14.3546C166.263 14.599 166.764 14.7822 167.329 15.0265C167.078 10.5675 169.836 6.65811 174.162 5.31428C173.785 5.00886 173.347 4.70345 172.97 4.45912C172.469 8.79604 170.338 12.461 166.89 15.2709C167.454 15.5152 167.955 15.6985 168.52 15.9428C169.021 11.728 171.215 8.12412 174.788 5.68078C174.35 5.49753 173.848 5.31428 173.409 5.13103C174.412 8.30736 170.964 12.461 169.084 14.7211C169.648 14.9655 170.15 15.1487 170.714 15.393C170.964 12.2778 172.782 6.59703 176.606 6.04728C176.23 5.68078 175.854 5.31429 175.478 4.94779C174.788 8.42954 173.347 11.5448 171.027 14.2935C171.591 14.5379 172.093 14.7211 172.657 14.9655C172.845 11.2394 174.35 8.00195 176.982 5.37537C176.481 5.31428 175.979 5.2532 175.478 5.19212C176.92 7.75762 173.973 12.2778 172.657 14.5379L174.35 15.2709C174.976 12.3389 175.478 7.39111 178.299 5.6197C177.923 5.55861 177.547 5.49753 177.171 5.49753C178.738 7.20787 175.729 12.9497 175.039 14.66C175.666 14.8433 176.23 14.9655 176.857 15.1487C177.735 12.0335 178.55 8.97929 179.427 5.86404C178.8 5.80295 178.174 5.68078 177.609 5.6197C177.735 8.5517 177.296 11.3005 176.293 14.1103C176.92 14.1714 177.547 14.2935 178.111 14.3546C178.424 11.6059 178.111 7.33003 179.741 5.00886C179.177 4.94778 178.612 4.8867 178.048 4.76453C178.926 7.75762 178.612 10.6285 178.174 13.7438C178.8 13.8049 179.427 13.927 179.991 13.9881C179.741 10.5674 179.49 7.0857 179.239 3.66503C178.675 3.90936 178.174 4.09262 177.609 4.33695C179.991 6.7192 179.051 9.83445 177.985 12.5832C178.55 12.5221 179.114 12.461 179.678 12.3389C178.988 11.0561 177.609 8.9182 177.672 7.39112C177.045 6.41379 177.296 5.92512 178.487 5.9862C179.051 6.96353 179.239 8.00195 178.988 9.04037C179.553 8.79604 180.054 8.61278 180.618 8.36845C179.615 7.20786 179.114 6.10836 178.8 4.70345C178.362 5.06995 177.86 5.37536 177.421 5.74186C177.672 6.41378 177.923 7.14678 178.174 7.8187C178.738 7.87979 179.302 7.94086 179.866 8.06303C179.427 6.84136 179.239 5.74187 179.302 4.45912C178.926 4.76453 178.487 5.06995 178.111 5.31428C180.556 6.29161 178.863 12.6443 178.55 14.2935C178.863 14.0492 179.177 13.866 179.427 13.6216C174.663 13.7438 169.899 13.8659 165.135 13.9881C163.943 14.0492 163.943 15.7595 165.135 15.8206C169.335 15.9428 173.472 15.332 177.609 14.7211C177.421 14.1103 177.296 13.5605 177.108 12.9497C172.218 14.2325 167.329 15.0876 162.314 15.4541C161.123 15.5152 161.123 17.2255 162.314 17.2866C167.203 17.4699 171.967 15.8206 176.857 16.0039C176.794 15.393 176.669 14.7822 176.606 14.2325C172.845 15.4541 169.084 15.8206 165.135 15.393V17.2255C169.648 16.798 174.162 16.3704 178.675 15.9428C178.612 15.332 178.487 14.7211 178.424 14.1714C175.415 15.0265 172.469 15.3319 169.335 15.2098V17.0423C172.406 17.0423 175.353 16.6758 178.299 15.9428C179.49 15.6374 178.988 13.927 177.797 14.1714C174.287 14.9044 170.776 15.2709 167.203 15.2709V17.1034C171.466 16.5536 175.729 15.8817 179.991 15.0265C180.994 14.8433 180.806 13.133 179.741 13.2551C175.666 13.7438 171.654 13.6827 167.642 13.0719C166.451 12.8886 165.949 14.66 167.141 14.8433C171.341 15.4541 175.541 15.5763 179.741 15.0876C179.678 14.4768 179.553 13.866 179.49 13.3162C175.415 14.1103 171.341 14.8433 167.203 15.332C166.012 15.4541 165.949 17.1645 167.203 17.1645C170.964 17.1645 174.6 16.798 178.299 16.0039C178.111 15.393 177.985 14.8433 177.797 14.2325C174.976 14.9044 172.218 15.2709 169.335 15.2709C168.144 15.2709 168.144 17.0423 169.335 17.1034C172.594 17.2255 175.729 16.859 178.926 16.0039C179.929 15.6985 179.741 14.1103 178.675 14.2325C174.162 14.66 169.648 15.0876 165.135 15.5152C163.943 15.6374 163.943 17.2255 165.135 17.3477C169.272 17.7753 173.221 17.3477 177.108 16.126C178.111 15.8206 177.923 14.3546 176.857 14.3546C171.967 14.1714 167.203 15.8206 162.314 15.6374V17.4699C167.517 17.1034 172.594 16.2482 177.609 14.9044C178.8 14.5989 178.299 12.9497 177.108 13.133C173.096 13.7438 169.147 14.2935 165.135 14.1714V16.0039C169.899 15.8817 174.663 15.7595 179.427 15.6374C179.803 15.6374 180.242 15.332 180.305 14.9655C180.932 11.5448 182.875 5.49754 178.55 3.72612C177.923 3.48179 177.421 4.09262 177.359 4.58128C177.233 6.10837 177.421 7.26895 177.985 8.67386C178.236 9.34578 179.302 9.6512 179.678 8.9182C180.556 7.14679 180.054 5.37537 178.236 4.33695C177.484 3.90937 176.669 4.58128 176.857 5.37537C177.233 7.14678 177.985 8.49061 179.177 9.89553C179.741 10.5674 180.744 9.95662 180.806 9.22362C180.994 7.26895 179.239 1.46603 176.042 3.23745C173.159 4.8867 176.982 11.5448 177.923 13.4384C178.299 14.2325 179.365 13.866 179.615 13.194C180.994 9.71229 181.621 6.04728 178.738 3.17636C178.174 2.62661 177.045 2.99312 177.108 3.84828C177.359 7.26895 177.609 10.7507 177.86 14.1714C177.923 15.1487 179.553 15.5152 179.678 14.4157C180.18 11.0561 180.556 7.8187 179.553 4.45912C179.302 3.66503 178.299 3.60394 177.86 4.21478C175.917 6.90245 176.293 11.3615 175.979 14.4768C175.854 15.5763 177.484 15.6374 177.797 14.7211C178.863 11.7891 179.302 8.85711 179.177 5.74186C179.114 4.70344 177.609 4.45911 177.359 5.49753C176.481 8.61278 175.666 11.667 174.788 14.7822C174.475 15.9428 176.168 16.3704 176.606 15.2709C177.735 12.461 180.744 7.0857 178.236 4.27587C177.985 3.97045 177.421 3.90937 177.108 4.1537C173.66 6.3527 173.033 11.3004 172.281 14.9044C172.093 15.8817 173.472 16.5536 173.973 15.6374C175.666 12.6443 178.675 7.8187 176.794 4.39803C176.481 3.90936 175.729 3.78719 175.29 4.21478C172.281 7.26895 170.651 10.8729 170.4 15.0876C170.338 15.8206 171.466 16.3704 172.03 15.7595C174.6 12.7665 176.23 9.40687 176.982 5.6197C177.108 4.8867 176.544 4.39803 175.854 4.52019C171.153 5.19211 168.896 11.667 168.582 15.6374C168.52 16.4315 169.648 16.859 170.212 16.3093C172.657 13.4384 176.293 8.9182 175.039 4.94779C174.851 4.39804 174.162 4.03153 173.66 4.39803C169.523 7.20786 167.015 11.3005 166.451 16.1871C166.326 17.0423 167.517 17.2866 168.081 16.859C171.905 13.7438 174.099 9.52904 174.663 4.76453C174.726 4.1537 174.036 3.72611 173.472 3.90936C168.332 5.49753 164.946 10.1399 165.26 15.393C165.323 16.1871 166.263 16.6147 166.89 16.065C168.332 14.66 175.854 4.70344 171.153 3.60394C169.209 3.11528 167.015 6.04728 166.075 7.26895C164.132 9.77336 163.129 12.6443 162.752 15.7595C162.627 16.7369 164.069 16.9201 164.508 16.2482C166.764 12.9497 167.955 9.2847 168.144 5.31428C168.144 4.70345 167.517 4.27587 166.952 4.45912C164.382 5.13103 162.815 6.96353 162.188 9.46795C161.749 11.0561 161.311 14.0492 163.066 15.0876C164.758 16.126 166.138 14.2935 167.078 13.194C169.084 10.934 170.714 8.49062 171.215 5.49753C171.341 4.82562 170.588 3.90937 169.836 4.45912C166.075 7.26895 163.943 11.1172 163.63 15.6985C163.567 16.4925 164.696 16.859 165.26 16.3704C166.764 14.9044 174.788 5.2532 170.463 3.66503C168.52 2.93203 166.451 5.9862 165.573 7.20787C163.63 9.89554 162.69 12.8886 162.376 16.126C162.314 16.9812 163.442 17.2866 164.006 16.798C167.517 13.6216 169.585 9.6512 170.087 5.00886C170.15 4.45911 169.46 3.97045 168.896 4.1537C164.132 5.80295 162.063 11.1172 161.373 15.6374C161.248 16.4925 162.251 17.2866 162.94 16.5536C164.445 15.0265 171.591 5.43645 167.203 4.21478C165.197 3.66503 163.003 7.02461 162.126 8.36845C160.496 10.8118 159.743 13.6216 159.618 16.4925C159.555 17.2255 160.684 17.7753 161.248 17.1645C163.63 14.2935 168.269 8.1852 165.699 4.33695C165.323 3.7872 164.696 3.7872 164.194 4.1537C160.308 7.33003 158.051 11.728 157.612 16.6758C157.549 17.4699 158.678 17.8364 159.242 17.3477C162.564 14.1103 164.257 10.0177 164.194 5.49753C164.194 4.82562 163.379 4.33695 162.752 4.70345C158.302 7.39111 155.794 11.8502 155.731 16.9201C155.731 17.7142 156.797 18.1418 157.361 17.592C159.743 15.1487 161.687 12.2167 162.502 8.9182C162.878 7.51329 163.129 4.76453 160.809 4.8867C158.364 5.00887 155.794 9.16253 154.916 10.995C153.976 13.0719 152.973 15.7595 154.666 17.6531C154.979 18.0196 155.669 17.9585 155.982 17.6531C158.49 15.2709 160.37 12.2778 161.06 8.9182C161.373 7.39112 161.499 4.82561 159.242 4.82561C156.86 4.82561 154.29 8.24628 153.349 10.0177C151.845 12.6443 151.469 15.5152 151.97 18.4472C152.096 19.1802 153.099 19.3024 153.537 18.8748C156.358 16.1871 158.427 12.8275 159.305 9.04037C159.681 7.39112 160.182 4.58129 157.675 4.64237C153.349 4.76454 147.394 15.332 151.469 18.0807C151.782 18.264 152.158 18.2029 152.409 18.0807C154.603 17.0423 162.376 6.78028 157.612 5.43644C155.606 4.82561 153.349 8.12412 152.597 9.52904C151.155 12.1556 150.842 15.0265 151.531 17.8364C151.657 18.5083 152.66 18.7526 153.099 18.264C156.045 15.2098 159.994 9.77336 158.302 5.43644C158.114 4.88669 157.487 4.58128 156.922 4.8867C152.472 7.51328 150.403 12.461 151.594 17.3477C151.782 18.0196 152.66 18.2029 153.161 17.7753C155.669 15.393 157.048 12.4 157.675 9.04037C157.925 7.57437 158.49 4.8867 156.546 4.27587C154.478 3.66503 152.534 7.0857 151.845 8.5517C150.591 11.1783 150.403 14.0492 151.093 16.9201C151.281 17.592 152.158 17.8364 152.66 17.3477C155.794 14.0492 157.048 9.89553 156.17 5.49753C156.045 5.00887 155.481 4.76453 155.042 4.8867C150.152 6.04728 149.651 12.7665 150.466 16.6758C150.654 17.531 151.782 17.4699 152.158 16.9201C153.788 14.66 154.854 12.1556 155.105 9.34579C155.23 8.00195 155.606 5.19211 153.725 4.70345C151.845 4.21478 150.716 6.90245 150.152 8.1852C148.836 11.0561 148.522 14.1103 148.898 17.2255C149.024 18.0807 150.152 18.5694 150.654 17.7142C152.597 14.4157 154.227 9.46795 152.472 5.80295C152.346 5.49753 151.97 5.31428 151.657 5.37537C147.018 5.43645 147.269 14.0492 148.084 16.9201C148.272 17.6531 149.4 17.8364 149.776 17.1645C151.531 14.1714 152.66 9.77337 151.155 6.41378C150.09 4.03153 148.146 5.13103 146.955 6.90245C145.263 9.46795 144.197 14.2935 145.889 17.1034C147.206 19.3024 148.898 17.6531 149.839 16.0039C150.967 13.9881 152.785 9.04037 150.904 6.90245C149.212 5.00887 147.018 7.63545 146.078 8.97928C144.636 11.1172 143.257 15.0265 145.075 17.3477C146.454 19.1191 148.961 18.7526 149.713 16.7369C150.027 16.0039 149.212 15.5152 148.585 15.6374C147.269 15.8206 146.203 16.1871 145.075 16.859C145.388 17.4088 145.701 17.8975 146.015 18.4472C147.331 17.4699 148.209 16.3704 148.836 14.8433C149.212 13.927 147.895 13.4384 147.269 13.927C146.892 14.1103 146.579 14.2935 146.203 14.4768C146.579 14.9044 146.892 15.393 147.269 15.8206C148.961 13.1329 150.654 10.3842 152.346 7.69654C152.91 6.84137 151.531 5.74187 150.842 6.59703C148.585 9.34579 146.266 12.1556 144.009 14.9044C144.51 15.2709 145.012 15.6374 145.513 16.0039C146.767 13.133 148.021 10.3231 149.275 7.4522C149.651 6.59703 148.522 5.43644 147.77 6.3527C146.83 7.51328 145.889 8.67387 144.886 9.83445C145.388 10.201 145.889 10.5674 146.391 10.9339C147.331 9.46795 148.021 8.00195 148.585 6.3527C148.836 5.49753 147.582 4.70344 147.018 5.43644C145.764 6.96353 144.573 8.5517 143.319 10.0788C143.821 10.4453 144.322 10.8118 144.824 11.1783C145.639 9.40687 146.391 7.63545 147.206 5.86404C147.707 4.82562 146.203 3.90937 145.576 4.94779C144.886 6.04729 144.197 7.14678 143.507 8.24628C142.692 7.87978 144.322 8.79603 144.949 7.75761Z" fill="#E8E8E8"/>
<path d="M178.989 2.56547C178.989 4.6423 179.051 6.78022 179.114 8.85706C179.177 10.3841 179.866 13.6216 178.863 14.7821C178.237 15.5151 179.051 16.7979 179.992 16.2481C180.431 15.9427 180.556 15.8816 180.932 15.5151C181.308 15.0265 181.246 14.1713 180.493 13.9881C179.365 13.7437 178.55 13.7437 177.422 14.1102C176.293 14.4767 176.732 16.2481 177.923 15.8816C178.613 15.8206 179.302 15.8206 179.992 15.7595C179.866 15.2708 179.741 14.7211 179.553 14.2324C179.365 14.4156 179.177 14.5378 179.051 14.7211C179.428 15.2097 179.804 15.6984 180.18 16.1871C181.559 14.5989 181.183 13.4994 181.057 11.3615C180.932 8.49056 180.869 5.55855 180.869 2.68763C180.869 1.3438 178.989 1.3438 178.989 2.56547Z" fill="#E8E8E8"/>
<path d="M86.2737 55.7691C112.038 54.3642 137.866 53.8145 163.693 54.1199C164.884 54.1199 164.884 52.2874 163.693 52.2874C137.866 51.982 112.038 52.5317 86.2737 53.9366C85.0826 53.9977 85.0826 55.8302 86.2737 55.7691Z" fill="#E8E8E8"/>
<path d="M89.5962 72.5059C108.089 70.6123 126.644 69.635 145.2 69.635C146.391 69.635 146.391 67.8025 145.2 67.8025C126.644 67.8025 108.089 68.7187 89.5962 70.6734C88.4051 70.7956 88.3424 72.6281 89.5962 72.5059Z" fill="#E8E8E8"/>
<path d="M91.2888 103.72C115.988 101.215 140.749 99.8102 165.573 99.6269C166.765 99.6269 166.765 97.7944 165.573 97.7944C140.749 97.9777 115.988 99.3826 91.2888 101.887C90.0977 102.009 90.0977 103.842 91.2888 103.72Z" fill="#E8E8E8"/>
<path d="M192.717 187.282C180.556 182.7 173.346 169.567 174.537 157.106C175.791 144.462 185.445 133.65 197.042 128.58C205.004 125.099 213.78 124.366 221.616 128.458C227.759 131.635 233.025 136.521 236.724 142.263C244.434 154.235 243.87 168.712 235.721 180.44C230.831 187.465 221.616 189.481 213.529 190.702C205.505 191.924 197.042 191.496 190.272 186.671C189.269 185.999 188.329 187.587 189.332 188.259C195.601 192.718 203.311 193.634 210.834 192.901C218.293 192.168 227.132 190.58 233.15 185.938C239.106 181.356 242.679 172.683 243.933 165.597C245.124 158.817 243.807 151.975 240.861 145.745C234.279 131.879 219.108 120.762 202.998 124.61C189.081 127.909 176.794 138.842 173.409 152.586C169.773 167.185 177.609 183.494 192.153 188.992C193.344 189.48 193.845 187.709 192.717 187.282Z" fill="#E8E8E8"/>
<path d="M205.944 124.915C206.696 136.216 207.448 147.516 208.263 158.817C208.326 159.977 210.207 159.977 210.144 158.817C209.392 147.516 208.64 136.216 207.825 124.915C207.762 123.755 205.881 123.755 205.944 124.915Z" fill="#E8E8E8"/>
<path d="M210.019 159.916C219.547 154.846 228.951 149.532 238.228 143.912C239.231 143.301 238.291 141.713 237.288 142.324C228.073 147.944 218.67 153.258 209.079 158.328C208.013 158.939 208.953 160.527 210.019 159.916Z" fill="#E8E8E8"/>
<path d="M210.395 160.221C221.177 160.221 231.834 162.726 242.428 164.497C243.619 164.681 244.121 162.909 242.93 162.726C232.21 160.954 221.365 158.389 210.395 158.389C209.204 158.389 209.204 160.221 210.395 160.221Z" fill="#E8E8E8"/>
<path d="M208.765 159C202.747 168.712 196.729 178.363 190.648 188.076C190.021 189.114 191.651 190.03 192.278 188.992C198.296 179.28 204.314 169.628 210.395 159.916C211.022 158.939 209.392 157.962 208.765 159Z" fill="#E8E8E8"/>
<path d="M102.008 245.555C129.277 243.539 156.483 241.218 183.627 238.469C184.818 238.347 184.818 236.515 183.627 236.637C156.421 239.324 129.214 241.707 102.008 243.722C100.817 243.845 100.817 245.677 102.008 245.555Z" fill="#E8E8E8"/>
<path d="M111.286 200.537C112.289 214.586 113.354 228.696 114.357 242.745C114.42 243.906 116.301 243.906 116.238 242.745C115.235 228.696 114.169 214.586 113.166 200.537C113.041 199.376 111.16 199.376 111.286 200.537Z" fill="#E8E8E8"/>
<path d="M113.104 200.72C116.677 200.109 120.25 199.926 123.886 200.109C123.573 199.804 123.259 199.498 122.946 199.193C123.886 213.486 125.265 227.719 126.958 241.89C127.083 243.051 128.964 243.051 128.838 241.89C127.083 227.719 125.767 213.425 124.826 199.193C124.764 198.704 124.45 198.277 123.886 198.277C120.062 198.093 116.363 198.338 112.602 198.948C111.411 199.193 111.975 200.964 113.104 200.72Z" fill="#E8E8E8"/>
<path d="M132.851 215.013C134.292 223.504 135.17 232.117 135.483 240.729C135.546 241.89 137.427 241.89 137.364 240.729C137.051 231.933 136.173 223.199 134.668 214.525C134.48 213.364 132.662 213.853 132.851 215.013Z" fill="#E8E8E8"/>
<path d="M135.107 215.93C138.743 215.93 142.316 215.746 145.889 215.258C145.576 214.952 145.263 214.647 144.949 214.341C145.827 222.832 146.767 231.261 147.645 239.752C147.77 240.913 149.651 240.913 149.525 239.752C148.648 231.261 147.707 222.832 146.83 214.341C146.767 213.914 146.454 213.364 145.889 213.425C142.316 213.853 138.68 214.097 135.107 214.097C133.916 214.097 133.916 215.93 135.107 215.93Z" fill="#E8E8E8"/>
<path d="M155.167 200.414C156.672 213.608 157.612 226.802 157.988 240.119C158.051 241.279 159.931 241.279 159.869 240.119C159.43 226.863 158.49 213.608 157.048 200.414C156.922 199.254 155.042 199.254 155.167 200.414Z" fill="#E8E8E8"/>
<path d="M156.107 201.147C158.113 201.27 160.182 201.331 162.188 201.453C165.009 201.575 165.072 201.636 165.134 204.385C165.322 208.355 165.51 212.265 165.761 216.235C166.325 223.809 167.203 231.323 168.645 238.775C168.896 239.935 170.651 239.447 170.463 238.286C168.645 228.879 167.767 219.289 167.266 209.699C167.14 207.5 167.078 205.362 166.952 203.163C166.89 202.308 167.015 201.025 166.325 200.292C165.573 199.559 164.257 199.681 163.316 199.62C160.872 199.498 158.489 199.376 156.045 199.254C154.916 199.254 154.916 201.086 156.107 201.147Z" fill="#E8E8E8"/>
<path d="M180.493 258.566C204.69 256.916 228.825 253.923 252.646 249.586C253.837 249.342 253.336 247.632 252.145 247.815C228.449 252.152 204.502 255.084 180.493 256.733C179.239 256.794 179.239 258.627 180.493 258.566Z" fill="#E8E8E8"/>
<path d="M217.353 246.899C227.634 245.861 237.977 244.822 248.258 243.784C249.449 243.661 249.449 241.829 248.258 241.951C237.977 242.99 227.634 244.028 217.353 245.066C216.162 245.189 216.162 247.021 217.353 246.899Z" fill="#E8E8E8"/>
<path d="M234.906 234.682C239.607 234.499 244.371 234.316 249.073 234.132C250.264 234.071 250.264 232.239 249.073 232.3C244.371 232.483 239.607 232.666 234.906 232.85C233.652 232.911 233.652 234.743 234.906 234.682Z" fill="#E8E8E8"/>
<path d="M185.257 29.2589C186.448 32.6185 186.95 36.0392 186.762 39.582C186.699 40.7426 188.58 40.7426 188.642 39.582C188.83 35.8559 188.329 32.3131 187.075 28.7703C186.636 27.6708 184.818 28.1594 185.257 29.2589Z" fill="#E8E8E8"/>
<path d="M186.824 29.4422C204.064 27.7319 221.303 26.6324 238.604 26.0826C239.795 26.0216 239.795 24.1891 238.604 24.2502C221.303 24.7999 204.001 25.8994 186.824 27.6097C185.633 27.7319 185.633 29.5644 186.824 29.4422Z" fill="#E8E8E8"/>
<path d="M188.642 40.5594C205.819 39.3378 222.932 38.1161 240.109 36.8944C241.3 36.8333 241.3 35.0008 240.109 35.0619C222.932 36.2836 205.819 37.5053 188.642 38.7269C187.451 38.788 187.451 40.6205 188.642 40.5594Z" fill="#E8E8E8"/>
<path d="M238.855 26.388C239.419 30.1752 239.983 33.9013 240.547 37.6884C240.736 38.849 242.553 38.3604 242.365 37.1998C241.801 33.4126 241.237 29.6865 240.673 25.8993C240.485 24.7387 238.667 25.2274 238.855 26.388Z" fill="#E8E8E8"/>
<path d="M542.012 76.1098C542.074 78.431 542.2 80.6911 542.513 83.0122C542.701 84.1728 544.582 84.1728 544.394 83.0122C544.08 80.7521 543.892 78.431 543.892 76.1098C543.892 74.9492 542.012 74.9492 542.012 76.1098Z" fill="#E8E8E8"/>
<path d="M543.391 77.026H665.067C666.258 77.026 666.258 75.1935 665.067 75.1935C624.509 75.1935 583.95 75.1935 543.391 75.1935C542.2 75.1935 542.2 77.026 543.391 77.026Z" fill="#E8E8E8"/>
<path d="M663.939 76.8428V80.8743C663.939 82.0349 665.82 82.0349 665.82 80.8743C665.82 79.5304 665.82 78.1866 665.82 76.8428C665.82 75.6211 663.939 75.6211 663.939 76.8428Z" fill="#E8E8E8"/>
<path d="M544.519 83.6842H664.629C665.82 83.6842 665.82 81.8517 664.629 81.8517C624.571 81.8517 584.514 81.8517 544.519 81.8517C543.266 81.8517 543.266 83.6842 544.519 83.6842Z" fill="#E8E8E8"/>
<path d="M544.331 55.0361C545.898 61.9385 547.215 68.902 548.28 75.8655C548.468 77.0261 550.286 76.5374 550.098 75.3768C548.97 68.4133 547.654 61.4498 546.149 54.5474C545.836 53.3868 544.08 53.8755 544.331 55.0361Z" fill="#E8E8E8"/>
<path d="M545.46 54.914C553.672 55.1583 562.26 56.1356 570.472 55.1583C571.663 55.0361 571.663 53.2036 570.472 53.3258C562.26 54.3031 553.672 53.3258 545.46 53.0814C544.269 53.0204 544.269 54.8529 545.46 54.914Z" fill="#E8E8E8"/>
<path d="M569.532 55.5247C568.654 62.1217 567.839 68.7187 566.962 75.3768C566.836 76.5374 568.717 76.5374 568.842 75.3768C569.72 68.7798 570.535 62.1828 571.412 55.5247C571.538 54.3642 569.657 54.3642 569.532 55.5247Z" fill="#E8E8E8"/>
<path d="M554.8 52.8981C553.546 52.3484 552.042 51.7986 551.101 50.8213C549.472 49.2331 549.597 47.0952 549.346 45.0184C548.97 42.2696 547.403 39.8263 547.215 37.0164C546.713 37.2608 546.274 37.5662 545.773 37.8105C551.603 41.4755 556.743 46.6676 556.555 53.8755C556.493 55.036 558.373 55.036 558.436 53.8755C558.687 45.9957 553.107 40.2539 546.713 36.2223C546.149 35.8558 545.271 36.3445 545.271 37.0164C545.397 38.6657 545.898 40.1317 546.463 41.7199C547.277 43.9189 547.277 46.0568 547.716 48.3169C548.406 51.6765 550.788 53.1425 553.797 54.4863C554.925 54.9139 555.866 53.3868 554.8 52.8981Z" fill="#E8E8E8"/>
<path d="M556.618 45.0796C555.929 40.4372 559.063 35.9781 560.818 31.8856C562.197 28.6481 563.2 25.3496 563.012 21.8068C562.385 21.8679 561.758 21.9901 561.194 22.0511C563.514 32.6186 566.397 42.6362 561.445 53.0204C560.944 54.0588 562.573 55.0361 563.075 53.9366C565.332 49.1721 566.523 44.0411 566.272 38.788C565.958 32.9851 564.266 27.2432 563.012 21.5625C562.824 20.5241 561.132 20.7684 561.194 21.8068C561.57 30.2974 553.546 37.1387 554.863 45.5682C554.988 46.7288 556.806 46.2401 556.618 45.0796Z" fill="#E8E8E8"/>
<path d="M587.272 9.71227C588.025 31.9466 588.275 54.1199 587.837 76.3542C587.837 77.5148 589.717 77.5148 589.717 76.3542C590.093 54.1199 589.905 31.8855 589.153 9.71227C589.153 8.4906 587.272 8.4906 587.272 9.71227Z" fill="#E8E8E8"/>
<path d="M588.714 10.0176C591.41 7.81862 595.986 8.79596 598.995 9.71221C600.123 10.0787 600.625 8.30729 599.496 7.94079C595.672 6.78021 590.657 6.04721 587.398 8.73488C586.457 9.46788 587.774 10.7506 588.714 10.0176Z" fill="#E8E8E8"/>
<path d="M598.243 9.71227C598.368 31.6412 598.493 53.509 598.619 75.4379C598.619 76.5985 600.499 76.5985 600.499 75.4379C600.374 53.509 600.249 31.6412 600.123 9.71227C600.123 8.4906 598.243 8.4906 598.243 9.71227Z" fill="#E8E8E8"/>
<path d="M590.093 24.4943C592.601 22.4786 596.299 22.6618 598.619 24.7997C599.496 25.5938 600.813 24.3111 599.935 23.517C596.801 20.6461 592.036 20.585 588.777 23.2116C587.836 23.9446 589.153 25.2273 590.093 24.4943Z" fill="#E8E8E8"/>
<path d="M589.278 17.4697C592.037 15.1486 595.986 15.0875 598.87 17.2254C599.873 17.9584 600.75 16.3091 599.81 15.6372C596.174 13.0106 591.284 13.3771 587.899 16.187C587.022 16.9811 588.401 18.2638 589.278 17.4697Z" fill="#E8E8E8"/>
<path d="M600.186 25.4107C603.007 25.4107 605.765 25.7161 608.523 26.3881C608.273 26.0826 608.085 25.7772 607.834 25.5329C608.21 42.0254 608.022 58.4568 607.144 74.9493C607.082 76.1099 608.962 76.1099 609.025 74.9493C609.902 58.5179 610.091 42.0254 609.714 25.5329C609.714 25.1664 609.401 24.7388 609.025 24.6777C606.079 23.9447 603.195 23.6393 600.186 23.6393C598.932 23.5782 598.932 25.4107 600.186 25.4107Z" fill="#E8E8E8"/>
<path d="M600.624 42.7583C603.132 41.1702 606.141 41.1091 608.711 42.5751C609.777 43.1859 610.717 41.5977 609.651 40.9869C606.517 39.1544 602.693 39.2155 599.684 41.1701C598.681 41.781 599.621 43.3692 600.624 42.7583Z" fill="#E8E8E8"/>
<path d="M600.311 34.0234C602.506 32.985 605.013 32.9239 607.27 33.8402C608.398 34.2678 609.338 32.7407 608.21 32.252C605.264 31.0303 602.255 31.0914 599.371 32.4353C598.305 32.985 599.246 34.5732 600.311 34.0234Z" fill="#E8E8E8"/>
<path d="M613.851 75.1325C613.851 74.0941 613.162 70.3069 613.789 69.5739C614.666 68.5355 619.493 68.902 620.747 68.8409C625.072 68.5966 629.461 68.4133 633.786 68.3522C642.5 68.2301 651.213 68.5355 659.864 69.2074C659.551 68.902 659.237 68.5966 658.924 68.2911C659.3 71.0399 659.488 73.7886 659.425 76.5985C659.425 77.759 661.306 77.759 661.306 76.5985C661.306 73.7886 661.181 71.0399 660.804 68.2911C660.742 67.7414 660.428 67.436 659.864 67.3749C649.144 66.5808 638.3 66.3365 627.58 66.703C625.072 66.7641 622.628 66.8862 620.12 67.0695C618.302 67.1916 614.917 66.8252 613.225 67.6192C610.78 68.7187 611.908 73.1778 611.971 75.1936C611.971 76.2931 613.851 76.3541 613.851 75.1325Z" fill="#E8E8E8"/>
<path d="M620.308 66.7641C620.183 66.0921 619.556 64.0764 619.681 63.4045C620.12 61.572 621.938 61.9996 623.317 61.9996C625.574 61.9385 627.893 61.9385 630.15 61.8774C634.914 61.8163 639.679 61.6941 644.506 61.6331C649.082 61.572 653.658 61.4498 658.234 61.3887C660.742 61.3276 663.249 61.3276 665.694 61.2666C667.449 61.2666 668.452 60.6557 669.016 62.8547C669.267 63.8321 669.079 65.1148 669.016 66.0922C668.954 67.2527 670.834 67.2527 670.897 66.0922C670.96 64.504 671.461 61.3887 670.145 60.0449C668.954 58.8843 666.509 59.4341 665.067 59.4951C657.983 59.6173 650.962 59.7395 643.879 59.8616C637.046 59.9838 630.15 60.106 623.317 60.2281C621.938 60.2281 618.992 59.6784 617.989 60.9001C616.798 62.305 618.24 65.7867 618.49 67.3138C618.741 68.4133 620.559 67.9246 620.308 66.7641Z" fill="#E8E8E8"/>
<path d="M659.488 69.1464C662.309 69.2075 665.193 69.2686 668.014 69.0853C669.393 68.9631 670.772 68.4745 670.646 66.8863C670.521 65.7257 668.64 65.7257 668.766 66.8863C668.828 67.5582 660.303 67.375 659.488 67.3139C658.297 67.2528 658.297 69.0853 659.488 69.1464Z" fill="#E8E8E8"/>
<path d="M625.825 60.5946C625.762 59.5562 625.449 58.1513 625.574 57.1129C625.7 55.8912 625.386 55.708 626.828 55.5247C628.834 55.2804 631.404 55.9523 633.41 56.0745C637.61 56.3799 641.873 56.5631 646.073 56.6242C650.273 56.6853 654.536 56.6853 658.736 56.502C660.616 56.441 662.873 55.9523 664.754 56.1966C665.631 55.8301 666.321 56.0745 666.76 56.8686C667.449 57.174 667.7 57.7237 667.637 58.3956C667.826 58.8843 667.888 59.4951 668.076 60.0449C668.515 61.1444 670.333 60.6557 669.894 59.5562C669.33 58.2124 669.706 56.1966 668.578 55.0361C667.575 53.9976 666.133 54.242 664.754 54.303C658.548 54.6085 652.279 54.7917 646.073 54.7306C640.055 54.6085 634.037 54.303 628.019 53.7533C626.765 53.6311 624.822 53.1425 623.944 54.3641C622.941 55.8301 623.819 58.9454 623.944 60.5335C624.07 61.7552 625.95 61.7552 625.825 60.5946Z" fill="#E8E8E8"/>
<path d="M673.906 121.067V148.249C673.906 149.41 675.787 149.41 675.787 148.249C675.787 139.209 675.787 130.108 675.787 121.067C675.787 119.907 673.906 119.907 673.906 121.067Z" fill="#E8E8E8"/>
<path d="M675.473 121.067H724.37C725.561 121.067 725.561 119.235 724.37 119.235C708.071 119.235 691.772 119.235 675.473 119.235C674.282 119.235 674.282 121.067 675.473 121.067Z" fill="#E8E8E8"/>
<path d="M723.492 120.456V147.638C723.492 148.799 725.373 148.799 725.373 147.638C725.373 138.598 725.373 129.497 725.373 120.456C725.373 119.296 723.492 119.296 723.492 120.456Z" fill="#E8E8E8"/>
<path d="M674.846 149.776H723.743C724.934 149.776 724.934 147.944 723.743 147.944C707.444 147.944 691.145 147.944 674.846 147.944C673.655 147.944 673.655 149.776 674.846 149.776Z" fill="#E8E8E8"/>
<path d="M696.161 119.235C696.161 117.647 696.286 116.181 696.725 114.653C696.913 113.982 697.164 112.943 697.602 112.454C697.79 111.844 698.229 111.66 698.982 111.905C699.985 111.477 700.486 111.782 700.549 112.882C701.301 115.447 701.426 118.38 701.802 121.067C701.991 122.228 703.808 121.739 703.62 120.579C703.244 117.891 703.119 115.02 702.367 112.393C701.991 110.927 700.862 109.4 699.17 109.278C694.969 109.034 694.217 116.486 694.217 119.235C694.343 120.395 696.223 120.395 696.161 119.235Z" fill="#E8E8E8"/>
<path d="M676.978 125.038V145.195C676.978 146.356 678.859 146.356 678.859 145.195C678.859 138.476 678.859 131.757 678.859 125.038C678.859 123.877 676.978 123.877 676.978 125.038Z" fill="#E8E8E8"/>
<path d="M678.921 125.038H721.549C722.74 125.038 722.74 123.205 721.549 123.205C707.319 123.205 693.089 123.205 678.921 123.205C677.73 123.205 677.73 125.038 678.921 125.038Z" fill="#E8E8E8"/>
<path d="M720.358 124.427V145.806C720.358 146.967 722.239 146.967 722.239 145.806C722.239 138.659 722.239 131.574 722.239 124.427C722.239 123.266 720.358 123.266 720.358 124.427Z" fill="#E8E8E8"/>
<path d="M678.294 146.111H719.041C720.232 146.111 720.232 144.279 719.041 144.279C705.438 144.279 691.835 144.279 678.294 144.279C677.103 144.279 677.103 146.111 678.294 146.111Z" fill="#E8E8E8"/>
<path d="M680.05 137.987C681.429 136.033 682.683 135.605 683.748 136.582C683.936 136.704 684.062 136.827 684.25 136.949C684.689 137.132 685.002 137.437 685.441 137.56C686.193 137.804 687.071 137.743 687.823 137.437C688.387 137.193 688.889 136.766 689.077 136.155C689.39 135.177 688.638 134.994 688.575 134.139C688.262 133.772 688.387 133.406 688.951 132.917C689.077 131.512 689.954 131.207 691.459 132.062C691.835 132.062 692.211 132.184 692.525 132.123C693.653 131.94 693.778 131.573 694.593 130.902C697.226 128.825 700.172 129.863 700.862 133.162C700.925 133.589 701.238 136.399 700.737 136.704C700.235 136.094 699.734 135.544 699.232 134.933C700.862 135.177 702.053 136.033 702.743 137.376C703.119 137.987 703.934 137.926 704.372 137.376C705.626 136.094 706.88 136.033 708.134 137.254C708.573 136.827 709.011 136.399 709.45 135.971C708.949 135.544 708.51 135.116 708.008 134.689C706.378 133.345 706.504 131.818 708.447 130.046C711.08 130.169 712.459 132.673 711.331 134.933C709.889 137.682 706.441 138.048 703.62 137.804V139.636C707.695 139.881 711.832 140.125 715.907 140.369C717.098 140.431 717.098 138.598 715.907 138.537C711.832 138.293 707.695 138.048 703.62 137.804C702.429 137.743 702.429 139.514 703.62 139.636C706.88 139.942 710.453 139.331 712.522 136.521C714.152 134.261 714.026 130.84 711.644 129.069C709.826 127.725 707.068 127.97 705.564 129.741C703.307 132.49 705.94 135.483 708.071 137.315C708.949 138.109 710.265 136.888 709.387 136.033C707.381 133.956 704.31 134.322 702.68 136.521H704.31C702.743 134.017 699.796 132.184 696.85 133.711C694.593 134.933 693.778 138.109 695.847 139.942C697.978 141.835 701.05 140.369 702.178 138.232C703.432 135.788 703.181 131.94 701.363 129.741C699.546 127.542 696.348 127.298 694.092 128.947C692.525 130.107 693.465 130.291 690.832 130.107C689.954 130.046 689.202 129.863 688.325 130.107C687.384 130.352 686.507 130.902 686.068 131.818C685.754 132.49 685.629 133.101 685.942 133.834C686.005 134.078 686.695 134.628 686.632 134.811C686.381 136.155 682.745 133.711 682.118 133.589C679.298 133.162 677.417 136.094 678.232 138.476C678.608 139.575 680.426 139.148 680.05 137.987Z" fill="#E8E8E8"/>
<path d="M733.773 86.3718V107.384C733.773 108.545 735.654 108.545 735.654 107.384C735.654 100.36 735.654 93.3964 735.654 86.3718C735.654 85.2112 733.773 85.2112 733.773 86.3718Z" fill="#E8E8E8"/>
<path d="M735.779 86.2498H770.382C771.573 86.2498 771.573 84.4172 770.382 84.4172C758.848 84.4172 747.313 84.4172 735.779 84.4172C734.525 84.4172 734.525 86.2498 735.779 86.2498Z" fill="#E8E8E8"/>
<path d="M735.215 108.851H769.818C771.009 108.851 771.009 107.018 769.818 107.018C758.284 107.018 746.749 107.018 735.215 107.018C734.024 107.018 734.024 108.851 735.215 108.851Z" fill="#E8E8E8"/>
<path d="M769.442 86.1274V107.69C769.442 108.85 771.323 108.85 771.323 107.69C771.323 100.482 771.323 93.3353 771.323 86.1274C771.323 84.9058 769.442 84.9058 769.442 86.1274Z" fill="#E8E8E8"/>
<path d="M735.904 87.166V107.14C735.904 108.301 737.785 108.301 737.785 107.14C737.785 100.482 737.785 93.8241 737.785 87.166C737.785 85.9443 735.904 85.9443 735.904 87.166Z" fill="#E8E8E8"/>
<path d="M736.594 107.262H769.63C770.821 107.262 770.821 105.43 769.63 105.43C758.597 105.43 747.627 105.43 736.594 105.43C735.34 105.43 735.34 107.262 736.594 107.262Z" fill="#E8E8E8"/>
<path d="M737.095 87.5323H769.066C770.257 87.5323 770.257 85.6998 769.066 85.6998C758.409 85.6998 747.752 85.6998 737.095 85.6998C735.904 85.6998 735.904 87.5323 737.095 87.5323Z" fill="#E8E8E8"/>
<path d="M768.627 86.8606V106.041C768.627 107.201 770.508 107.201 770.508 106.041C770.508 99.627 770.508 93.2132 770.508 86.8606C770.508 85.7 768.627 85.7 768.627 86.8606Z" fill="#E8E8E8"/>
<path d="M743.176 102.437C748.379 99.9935 754.272 98.8329 759.538 101.826C760.603 102.437 761.544 100.849 760.478 100.238C754.648 96.8782 748.066 98.0999 742.236 100.849C741.107 101.337 742.11 102.925 743.176 102.437Z" fill="#E8E8E8"/>
<path d="M743.176 99.8712C742.047 98.5273 744.931 98.0998 745.307 97.3668C745.621 96.817 745.182 95.1067 745.37 95.1678C745.934 95.2899 746.561 94.9234 746.561 94.3126C746.498 91.4417 749.695 96.0229 749.57 95.8397C749.946 96.2673 750.322 96.6949 750.949 96.9392C751.827 97.3057 753.707 96.3283 754.209 96.6948C754.773 97.1835 755.525 96.9392 755.776 96.2673C756.277 96.084 756.779 95.9008 757.343 95.7786C757.28 96.5727 758.409 97.0003 758.973 96.4505C760.666 97.7333 760.916 98.7717 759.663 99.5047C758.722 100.299 760.101 101.581 760.979 100.787C762.609 99.4436 763.737 97.1224 762.233 95.2288C760.979 93.6407 758.91 93.7628 757.594 95.1678C758.158 95.4121 758.66 95.5953 759.224 95.8397C759.349 94.4958 758.534 93.3964 757.03 93.2742C755.4 93.152 754.46 94.4958 753.958 95.8397C754.46 95.7175 755.024 95.5954 755.525 95.4121C754.46 94.5569 754.271 94.9234 753.08 94.8623C749.883 94.7402 750.824 92.7855 748.755 91.6249C746.686 90.4644 744.68 92.2358 744.68 94.3126C745.056 94.0072 745.495 93.7018 745.871 93.4574C744.931 93.2742 743.803 93.2131 743.176 94.0072C742.486 94.8623 743.552 95.5343 743.301 96.1451C742.925 97.1224 741.107 96.817 740.668 98.0998C740.229 99.3214 741.107 100.421 741.859 101.276C742.612 102.131 743.928 100.787 743.176 99.8712Z" fill="#E8E8E8"/>
<path d="M750.698 83.8064C750.322 83.0123 750.134 82.2182 750.322 81.363C750.385 80.8133 750.886 79.0418 751.764 79.2862C752.391 79.4694 753.018 81.0576 753.143 81.6073C753.457 82.5847 753.519 83.5009 753.394 84.5394C753.268 85.6999 755.149 85.6999 755.274 84.5394C755.463 82.8901 755.212 81.3019 754.397 79.8359C753.77 78.6143 752.579 76.965 750.949 77.4537C749.695 77.8202 748.88 79.3472 748.567 80.5078C748.191 81.9738 748.379 83.4398 749.068 84.7837C749.633 85.8221 751.2 84.9059 750.698 83.8064Z" fill="#E8E8E8"/>
<path d="M736.531 117.83V145.867C736.531 147.028 738.412 147.028 738.412 145.867C738.412 136.521 738.412 127.176 738.412 117.83C738.412 116.608 736.531 116.608 736.531 117.83Z" fill="#E8E8E8"/>
<path d="M737.472 117.158H766.621C767.812 117.158 767.812 115.325 766.621 115.325C756.905 115.325 747.188 115.325 737.472 115.325C736.218 115.325 736.218 117.158 737.472 117.158Z" fill="#E8E8E8"/>
<path d="M765.681 116.242V145.806C765.681 146.966 767.561 146.966 767.561 145.806C767.561 135.971 767.561 126.076 767.561 116.242C767.561 115.081 765.681 115.081 765.681 116.242Z" fill="#E8E8E8"/>
<path d="M738.223 147.944H765.806C766.997 147.944 766.997 146.111 765.806 146.111C756.591 146.111 747.438 146.111 738.223 146.111C737.032 146.111 737.032 147.944 738.223 147.944Z" fill="#E8E8E8"/>
<path d="M746.812 127.176C746.373 130.718 748.692 134.567 752.579 134.994C756.654 135.422 759.663 132.368 759.537 128.519C759.475 127.359 757.594 127.359 757.657 128.519C757.782 131.39 755.525 133.712 752.454 133.101C749.633 132.551 748.442 129.741 748.692 127.176C748.818 126.015 746.937 126.015 746.812 127.176Z" fill="#E8E8E8"/>
<path d="M753.143 134.567C753.018 135.422 753.582 136.094 753.331 136.888C752.955 138.109 751.325 139.27 750.51 140.186C749.131 141.774 748.128 143.363 748.065 145.501C748.003 146.661 749.883 146.661 749.946 145.501C750.072 142.691 752.516 141.041 754.146 138.965C754.648 138.354 755.149 137.682 755.337 136.949C755.525 136.094 754.899 135.422 755.024 134.567C755.149 133.406 753.269 133.406 753.143 134.567Z" fill="#E8E8E8"/>
<path d="M748.818 134.506C746.624 134.383 742.486 133.04 743.489 130.046C743.991 128.458 746.06 128.397 746.937 127.298C748.128 125.893 747.125 125.099 746.185 124.06C745.307 123.083 743.489 122.716 745.934 120.579C747.313 119.357 749.57 120.884 750.698 121.8C751.388 122.411 751.513 123.083 752.454 123.511C753.081 123.816 753.896 123.938 754.585 123.694C755.713 123.205 756.967 119.968 758.158 123.999C758.284 124.488 758.848 124.793 759.287 124.61C759.349 125.893 759.412 127.114 759.412 128.397C758.66 129.313 759.976 130.596 760.728 129.68C761.919 128.214 763.299 126.381 762.421 124.427C761.731 122.961 760.227 122.411 758.722 122.839C759.099 123.022 759.475 123.266 759.851 123.449C759.349 121.8 758.534 120.09 756.591 119.968C755.964 119.907 755.4 120.029 754.899 120.334C755.024 120.273 754.146 121.25 754.146 121.25C752.83 121.922 752.454 120.762 751.701 120.029C750.385 118.624 749.319 117.83 747.188 118.135C745.558 118.38 743.239 119.479 742.675 121.128C741.985 123.083 743.678 123.633 744.43 125.099C745.245 125.404 745.245 125.771 744.367 126.198C744.179 126.565 743.928 126.748 743.615 126.87C743.364 127.053 742.988 127.176 742.737 127.42C742.236 127.97 741.86 128.519 741.609 129.191C740.167 133.65 744.869 136.033 748.63 136.277C750.009 136.399 750.009 134.567 748.818 134.506Z" fill="#E8E8E8"/>
<path d="M749.507 116.058C749.445 115.142 749.131 113.493 750.26 112.943C751.451 112.393 751.263 114.165 751.137 114.776C750.886 115.936 752.704 116.425 752.955 115.264C753.143 114.287 753.269 113.187 752.767 112.271C752.266 111.416 751.325 110.927 750.385 111.049C747.815 111.355 747.501 114.043 747.689 116.058C747.689 117.219 749.57 117.219 749.507 116.058Z" fill="#E8E8E8"/>
<path d="M738.851 117.646V144.584C738.851 145.745 740.731 145.745 740.731 144.584C740.731 135.605 740.731 126.626 740.731 117.646C740.731 116.425 738.851 116.425 738.851 117.646Z" fill="#E8E8E8"/>
<path d="M739.979 145.928H764.991C766.182 145.928 766.182 144.096 764.991 144.096C756.654 144.096 748.316 144.096 739.979 144.096C738.788 144.096 738.788 145.928 739.979 145.928Z" fill="#E8E8E8"/>
<path d="M765.681 145.256C765.681 135.849 765.681 126.381 765.681 116.975C765.681 115.814 763.8 115.814 763.8 116.975V145.256C763.8 146.417 765.681 146.417 765.681 145.256Z" fill="#E8E8E8"/>
<path d="M740.418 117.891H765.179C766.37 117.891 766.37 116.058 765.179 116.058C756.904 116.058 748.692 116.058 740.418 116.058C739.227 116.058 739.227 117.891 740.418 117.891Z" fill="#E8E8E8"/>
<path d="M390.12 447.985C385.92 444.687 380.215 444.015 375.576 446.275C370.122 448.962 367.176 455.254 368.555 461.546C369.684 469.914 370.812 478.344 371.94 486.712C349.059 496.913 338.152 503.571 339.092 506.625C340.22 510.351 358.776 508.763 394.821 501.983C393.254 483.963 391.687 466.005 390.12 447.985Z" fill="#191919"/>
<path d="M374.824 249.709C373.946 261.986 372.505 281.9 370.06 306.577C367.051 337.547 365.797 368.76 361.534 399.607C357.146 431.615 352.319 453.544 363.415 461.179C367.427 463.928 372.254 463.928 375.702 463.5C379.338 462.584 382.973 461.607 386.609 460.691C390.182 462.401 395.009 464.05 398.896 462.095C410.305 456.415 399.523 427.278 400.338 385.497C400.902 357.948 406.356 330.461 413.628 294.361C419.144 266.812 423.344 252.519 415.508 245.494C405.98 236.881 384.854 245.127 374.824 249.709Z" fill="#F2F2F2" stroke="#161616" stroke-width="2" stroke-miterlimit="10"/>
<path opacity="0.14" d="M392.816 243.967C395.198 254.779 397.893 271.149 397.705 291.062C397.392 323.192 389.681 343.472 384.102 367.6C379.024 389.467 374.135 421.353 376.329 462.462C379.651 461.851 383.036 461.179 386.359 460.568C387.111 461.118 390.183 463.134 394.445 462.767C395.072 462.706 399.21 462.279 401.905 459.286C405.228 455.621 404.538 450.184 404.162 447.558C402.72 436.135 402.407 424.59 401.216 413.107C399.962 401.012 400.15 391.605 400.213 385.925C400.275 381.649 400.589 373.647 402.156 360.636C404.914 337.974 407.422 334.126 412.876 301.202C417.013 276.402 415.195 280.922 416.762 275.303C418.204 270.294 420.649 263.025 419.332 253.801C418.706 249.464 417.577 247.021 415.759 245.25C411.998 241.646 406.419 241.707 403.096 241.768C398.646 241.829 395.01 243.051 392.816 243.967Z" fill="#6D6C6C"/>
<path opacity="0.1" d="M410.681 306.272C405.98 316.412 401.027 329.728 398.018 345.793C392.752 374.135 397.955 388.551 393.505 418.848C391.875 430.027 388.803 444.076 382.785 459.957C385.042 460.263 387.299 460.568 389.618 460.935C393.003 462.095 397.266 462.951 400.338 460.935C405.854 457.331 403.973 446.763 402.594 434.364C402.594 434.364 400.902 419.093 400.651 390.078C400.526 374.013 402.03 362.163 404.224 344.876C406.168 329.361 408.55 316.228 410.681 306.272Z" fill="#6D6C6C"/>
<path d="M469.232 443.343C465.032 440.044 459.327 439.372 454.689 441.632C449.235 444.32 446.288 450.612 447.668 456.903C448.796 465.272 449.924 473.701 451.053 482.069C428.172 492.27 417.264 498.928 418.204 501.983C419.333 505.709 437.888 504.12 473.934 497.34C472.304 479.321 470.737 461.362 469.232 443.343Z" fill="#191919"/>
<path d="M445.849 247.815C449.485 276.83 453.372 306.761 457.509 337.852C460.33 359.231 461.019 364.301 463.214 372.608C466.975 387.024 472.052 399.302 476.441 421.597C478.509 431.981 479.575 440.411 474.623 446.764C470.924 451.528 463.715 455.315 462.085 453.849C461.396 453.177 461.834 451.467 462.461 449.94C460.957 451.345 451.428 460.08 443.843 457.026C439.392 455.254 437.574 450.184 436.697 447.435C427.795 420.864 426.353 394.232 426.353 394.232C425.789 383.97 424.41 373.464 421.714 352.39C419.708 336.936 415.947 314.579 407.86 287.397C406.669 286.664 395.01 279.09 394.257 265.102C394.195 264.063 393.756 253.496 400.589 246.349C409.616 236.881 428.923 236.209 445.849 247.815Z" fill="#F2F2F2" stroke="#161616" stroke-width="2" stroke-miterlimit="10"/>
<path d="M395.26 255.145C393.004 261.498 392.377 268.644 395.95 274.692C399.022 279.884 403.974 285.565 409.992 287.397C411.12 287.764 411.622 285.992 410.493 285.626C404.977 283.976 400.338 278.54 397.58 273.775C394.257 268.156 395.01 261.559 397.078 255.634C397.517 254.534 395.699 254.046 395.26 255.145Z" fill="#F2F2F2"/>
<path d="M393.379 266.507C393.944 276.036 400.212 283.976 409.741 286.603C410.932 286.908 411.433 285.137 410.242 284.831C401.592 282.449 395.824 275.241 395.26 266.507C395.197 265.346 393.317 265.346 393.379 266.507Z" fill="#F2F2F2"/>
<path opacity="0.14" d="M421.15 239.874C422.78 244.639 425.288 252.335 428.046 261.864C436.07 289.474 449.924 337.302 450.802 394.843C450.927 404.433 451.303 453.238 455.817 453.483C456.882 453.544 458.638 450.856 461.02 451.467C462.65 451.894 462.712 453.36 464.154 453.91C467.288 455.071 472.491 449.818 474.999 445.969C475.877 444.626 477.883 441.571 478.321 437.234C478.572 435.28 478.384 433.875 477.695 429.721C476.692 423.307 476.19 420.131 475.814 418.543C473.118 406.143 468.291 394.232 464.342 377.434C462.65 370.348 461.521 363.996 460.142 356.666C459.703 354.344 458.512 347.564 457.196 339.135C454.249 319.832 453.309 306.577 451.366 289.657C450.3 280.433 448.67 267.423 446.163 251.602C445.536 250.258 444.407 248.181 442.401 246.288C441.712 245.677 439.581 243.783 433.813 242.012C430.992 241.035 426.667 239.996 421.15 239.874Z" fill="#6D6C6C"/>
<path opacity="0.2" d="M461.897 368.332C465.345 383.97 467.665 397.347 469.232 407.853C471.739 424.957 471.865 431.187 468.605 437.784C463.715 447.741 453.56 453.666 454.187 454.46C454.438 454.765 456.068 454.155 461.709 450.612C461.897 452.078 462.336 453.727 463.59 454.277C466.787 455.621 473.871 448.901 476.942 442.488C481.143 433.631 478.071 424.529 475.25 415.794C471.739 404.738 467.038 388.979 461.897 368.332Z" fill="#6D6C6C"/>
<path d="M378.523 143.974C372.38 143.179 366.738 150.998 355.767 166.574C348.245 177.203 342.979 186.549 339.531 193.023C332.071 192.657 324.612 192.29 317.152 191.863C310.193 191.496 303.235 191.13 296.277 190.702C293.519 189.786 289.381 188.442 284.304 187.282C276.091 185.327 259.103 182.09 258.037 184.96C257.724 185.877 258.852 187.77 266.124 192.229C265.623 193.451 263.805 198.582 266.124 204.507C266.5 205.423 268.569 210.371 273.459 212.937C279.727 216.174 288.378 214.403 294.71 208.355C299.599 211.226 326.116 226.314 351.066 215.991C359.215 212.631 364.92 207.5 369.997 202.98C379.212 194.734 391.311 183.922 391.625 168.896C391.875 158.023 385.983 144.951 378.523 143.974Z" fill="#F2F2F2" stroke="#161616" stroke-width="2" stroke-miterlimit="10"/>
<path d="M257.536 185.693C259.981 188.076 262.363 190.641 265.122 192.657C267.817 194.612 270.889 195.711 274.023 196.749C274.901 197.055 275.277 195.711 274.399 195.406C271.077 194.306 267.88 193.084 265.122 190.885C262.739 188.992 260.671 186.793 258.539 184.716C257.912 184.105 256.909 185.082 257.536 185.693Z" fill="#161616"/>
<path d="M287.187 191.985C284.805 192.84 282.611 194.184 280.918 196.016C279.727 197.299 277.972 199.315 278.411 201.147C278.849 203.224 281.482 203.224 283.238 203.224C286.059 203.163 288.754 202.369 291.199 200.964C291.951 200.537 291.262 199.315 290.509 199.804C288.942 200.72 287.25 201.392 285.432 201.697C283.864 201.941 279.288 202.491 280.103 199.62C280.918 196.688 284.93 194.306 287.626 193.329C288.378 193.023 288.002 191.679 287.187 191.985Z" fill="#161616"/>
<path d="M265.309 193.329C263.993 197.421 263.993 201.392 268.506 203.346C271.829 204.812 276.656 204.079 278.348 200.598C278.724 199.803 277.533 199.132 277.157 199.926C275.778 202.797 271.829 203.285 269.07 202.064C265.247 200.414 265.623 197.055 266.688 193.695C266.939 192.84 265.623 192.473 265.309 193.329Z" fill="#161616"/>
<path d="M264.996 202.369C265.247 205.851 267.441 209.271 271.202 209.943C274.525 210.554 277.596 208.6 278.787 205.668C279.101 204.873 277.784 204.507 277.408 205.301C276.405 207.744 273.584 209.21 270.889 208.477C268.131 207.683 266.563 204.996 266.375 202.369C266.375 201.514 264.933 201.514 264.996 202.369Z" fill="#161616"/>
<path d="M278.536 206.34C283.426 205.484 281.796 213.975 278.223 213.67C277.345 213.609 277.345 214.952 278.223 215.075C281.232 215.319 282.862 211.715 283.05 209.272C283.238 206.584 280.856 204.629 278.16 205.118C277.282 205.179 277.658 206.462 278.536 206.34Z" fill="#161616"/>
<path d="M278.16 201.392C278.16 201.331 278.223 201.331 278.223 201.27C277.972 201.331 277.784 201.392 277.533 201.453C278.034 201.575 278.097 203.163 278.034 203.469C277.972 204.263 277.658 204.996 277.031 205.606C276.405 206.217 277.408 207.195 278.034 206.584C278.975 205.668 279.476 204.385 279.414 203.041C279.351 202.064 279.037 200.353 277.846 200.109C277.596 200.048 277.345 200.109 277.157 200.292C277.157 200.353 277.094 200.353 277.094 200.414C276.593 201.086 277.533 202.064 278.16 201.392Z" fill="#161616"/>
<path d="M274.775 196.872C276.279 196.933 277.22 198.338 276.843 199.742C276.593 200.598 277.972 200.964 278.223 200.109C278.849 197.849 277.282 195.589 274.837 195.528C273.834 195.467 273.834 196.872 274.775 196.872Z" fill="#161616"/>
<path opacity="0.12" d="M387.8 153.808C385.983 159 382.974 166.024 378.209 173.721C373.32 181.601 367.866 190.336 357.272 197.666C353.385 200.353 341.662 208.294 324.298 208.905C307.937 209.455 295.901 203.224 291.136 200.414C287.375 203.163 284.805 203.346 283.112 202.98C281.608 202.613 281.044 201.88 278.411 201.086C276.154 200.414 274.336 200.292 273.333 200.231C269.697 199.987 265.936 199.742 264.933 201.392C263.617 203.652 267.879 208.477 271.202 211.104C272.706 212.264 275.339 214.28 279.038 214.83C287.751 216.174 294.208 208.783 294.584 208.355C296.715 209.638 299.787 211.409 303.674 213.12C310.005 215.991 318.97 219.961 330.88 219.9C344.421 219.9 354.2 214.708 356.206 213.608C358.588 212.264 363.039 208.477 371.878 200.842C380.09 193.756 383.099 190.641 385.857 186.365C387.487 183.861 389.556 180.623 390.747 176.164C393.317 166.635 389.869 157.961 387.8 153.808Z" fill="#6D6C6C"/>
<path opacity="0.15" d="M391.123 161.138C389.932 165.169 387.863 170.85 384.29 177.142C380.968 183.006 372.191 198.093 353.573 207.378C348.057 210.127 338.528 214.769 325.301 214.525C310.632 214.219 300.101 208.111 295.65 205.179C293.142 206.706 289.381 208.661 284.492 209.943C277.972 211.593 273.271 211.043 273.145 211.959C273.02 212.875 277.533 214.83 282.235 214.708C288.817 214.525 293.456 210.31 295.148 208.6C299.474 211.654 315.647 222.404 336.836 219.656C353.197 217.518 363.541 208.539 372.63 200.598C379.4 194.673 387.236 187.648 390.245 175.92C391.813 169.934 391.562 164.681 391.123 161.138Z" fill="#6D6C6C"/>
<path d="M371.878 144.218C370.624 145.623 368.43 148.616 366.55 162.909C364.042 182.334 365.358 197.727 366.55 209.21C367.929 222.832 369.872 239.263 372.693 257.955C383.601 261.253 401.717 264.979 423.47 261.62C433.312 260.093 441.712 257.466 448.482 254.718C447.04 239.447 447.228 227.108 447.667 218.984C449.799 177.019 451.742 165.353 451.742 165.353C453.184 156.984 454.5 151.792 451.303 147.089C448.106 142.263 442.025 140.614 422.655 139.392C393.254 137.437 378.46 136.643 371.878 144.218Z" fill="#F16A6F"/>
<path opacity="0.14" d="M414.192 139.514C416.136 146.233 417.766 153.38 419.145 160.955C426.291 200.781 421.276 236.087 414.192 262.414C417.828 262.17 421.652 261.742 425.727 261.07C434.378 259.665 441.963 257.466 448.232 255.206C447.354 243.05 447.103 232.666 447.103 224.42C447.166 201.392 449.235 183.8 450.112 176.775C451.241 168.223 452.432 161.077 453.435 155.885C453.686 154.419 453.936 151.731 452.62 148.921C451.115 145.684 448.294 143.973 447.103 143.301C443.029 140.919 438.891 140.919 436.635 140.919C431.243 140.736 424.097 140.431 414.192 139.514Z" fill="#6D6C6C"/>
<path opacity="0.16" d="M452.933 153.93C441.837 181.967 439.518 202.003 439.768 215.502C439.831 220.572 440.395 232.728 433.75 245.494C429.676 253.252 424.347 258.688 420.272 262.109C424.034 261.62 428.171 260.887 432.622 259.726C438.326 258.26 443.279 256.428 447.479 254.657C446.915 238.897 446.977 221.794 448.043 203.53C448.983 185.693 450.739 169.14 452.933 153.93Z" fill="#6D6C6C"/>
<path d="M444.407 144.401C452.118 141.103 462.587 150.754 469.357 156.923C476.754 163.703 491.736 177.447 492.488 199.926C493.115 218.678 483.524 232.239 478.76 237.92C471.3 246.777 462.837 251.419 457.822 253.679C457.76 255.756 457.446 259.054 456.004 262.658C455.189 264.613 451.052 274.875 443.153 275.303C442.088 275.364 438.452 275.364 434.252 271.515C434.001 271.515 432.747 271.332 431.932 270.233C431.18 269.194 431.117 267.667 431.87 266.446C431.682 266.323 430.052 265.529 429.676 263.636C429.237 261.559 430.679 260.032 430.804 259.971C430.867 258.932 431.117 257.588 432.12 256.916C433.249 256.183 434.44 256.794 436.258 256.672C437.449 256.55 439.141 256.122 441.147 254.412C438.891 253.801 433.813 252.213 433.938 250.442C434.001 248.365 441.335 247.143 442.965 246.838C446.977 246.166 450.425 246.288 452.745 246.471C454.124 244.028 456.13 240.424 458.512 236.087C462.524 228.757 464.53 225.092 465.721 222.466C467.978 217.579 470.485 210.188 471.175 199.865C468.354 197.177 464.028 193.329 458.512 189.114C446.601 180.074 442.589 179.89 439.329 174.759C433.186 165.169 436.132 147.944 444.407 144.401Z" fill="#F2F2F2" stroke="#161616" stroke-width="2" stroke-miterlimit="10"/>
<path d="M430.178 259.238C431.181 264.002 438.703 262.903 441.712 261.192C442.465 260.765 441.775 259.543 441.023 260.032C438.829 261.315 432.309 262.72 431.557 258.932C431.369 258.016 429.99 258.383 430.178 259.238Z" fill="#161616"/>
<path d="M430.93 266.873C434.691 269.5 440.207 268.278 444.157 266.506C444.972 266.14 444.282 264.979 443.467 265.346C439.957 266.873 435.004 267.972 431.682 265.712C430.93 265.163 430.24 266.384 430.93 266.873Z" fill="#161616"/>
<path d="M433.75 272.248C437.637 274.081 442.15 273.837 445.724 271.393C446.476 270.905 445.786 269.683 445.034 270.233C441.9 272.371 437.95 272.737 434.503 271.088C433.688 270.66 432.935 271.821 433.75 272.248Z" fill="#161616"/>
<path opacity="0.18" d="M441.712 146.722C440.458 150.876 455.127 154.846 467.978 168.285C472.429 172.927 481.519 182.395 483.65 196.444C486.346 213.853 477.005 227.78 473.557 232.789C466.912 242.623 458.826 248.426 453.936 251.419C453.936 253.129 453.685 259.36 448.796 264.613C447.793 265.713 443.843 269.927 438.076 270.538C434.754 270.905 431.745 269.988 431.619 270.355C431.557 270.721 433.876 271.21 436.885 273.226C438.828 274.509 438.891 275.058 439.831 275.486C443.718 277.257 449.861 271.882 450.551 271.332C456.945 265.652 457.697 257.222 457.823 254.107C459.265 253.313 461.208 252.213 463.465 250.747C465.784 249.22 472.617 244.822 478.008 239.019C479.45 237.492 486.784 229.368 490.358 216.357C491.611 211.776 495.059 198.521 489.543 184.044C487.098 177.753 483.963 173.66 478.322 166.513C473.307 160.1 469.608 156.923 462.462 150.754C457.321 146.295 454.25 144.218 450.112 143.974C447.291 143.79 442.402 144.462 441.712 146.722Z" fill="#6D6C6C"/>
<path opacity="0.18" d="M484.652 174.698C486.784 179.829 489.855 189.175 489.417 201.086C488.978 214.036 484.652 223.443 482.96 226.68C475.187 241.951 462.9 250.136 456.882 253.557C461.771 251.786 468.855 248.426 475.563 242.134C495.184 223.687 492.3 197.666 492.05 195.833C490.921 186.671 487.536 179.524 484.652 174.698Z" fill="#6D6C6C"/>
<path d="M412.813 97.3668C416.575 109.645 417.954 116.791 423.282 128.031C425.79 133.284 428.172 137.437 429.864 140.186C424.411 142.691 415.572 145.928 404.225 146.356C397.518 146.6 391.75 145.745 387.3 144.767C387.738 141.408 387.989 137.193 387.676 132.429C387.237 126.442 385.92 121.373 384.667 117.646C378.649 116.913 372.568 116.119 366.55 115.386C365.359 112.821 364.168 110.194 362.977 107.629C361.347 107.568 359.654 107.507 358.024 107.446C359.278 103.903 361.159 98.3441 363.353 91.4417C367.428 78.431 367.365 76.5985 369.559 73.6665C375.64 65.6646 389.243 60.5336 398.207 64.8705C403.536 67.3749 406.67 77.3925 412.813 97.3668Z" fill="#F2F2F2" stroke="#161616" stroke-width="2" stroke-miterlimit="10"/>
<path d="M358.149 108.423C361.284 108.484 364.355 108.24 367.427 107.812C368.618 107.629 368.116 105.857 366.925 106.04C363.979 106.468 361.095 106.651 358.149 106.59C356.958 106.59 356.958 108.423 358.149 108.423Z" fill="#161616"/>
<path d="M356.958 85.0892C358.713 84.1729 361.033 84.6616 362.161 86.2498C362.851 87.2271 364.48 86.3108 363.791 85.3335C362.036 82.8902 358.713 82.0961 356.018 83.501C354.952 84.0507 355.892 85.6389 356.958 85.0892Z" fill="#161616"/>
<path d="M371.752 87.2269C374.009 86.555 376.454 87.288 377.77 89.2427C378.46 90.22 380.09 89.3038 379.4 88.3265C377.582 85.761 374.322 84.5393 371.251 85.5166C370.122 85.822 370.561 87.5934 371.752 87.2269Z" fill="#161616"/>
<path d="M372.192 94.0682C372.129 93.3963 372.254 92.7244 372.63 92.1135C372.693 91.9914 372.819 91.8081 372.944 91.686C372.693 91.3806 372.568 91.3195 372.63 91.6249C372.505 91.747 372.568 92.3579 372.505 92.5411C372.442 92.8465 372.317 93.152 372.192 93.4574C372.129 93.5795 372.066 93.7017 372.004 93.7628C372.317 94.3125 372.505 94.3736 372.63 93.946C372.881 93.7017 373.007 93.152 373.195 92.8465C373.383 92.48 373.571 92.1136 373.759 91.7471C374.26 90.8308 373.069 89.9146 372.254 90.6476C371.816 91.0751 371.565 91.5027 371.377 92.0525C371.063 93.213 372.881 93.7017 373.195 92.5411C373.257 92.2357 373.383 92.1135 373.571 91.9303C373.069 91.5638 372.568 91.1973 372.066 90.8308C371.628 91.686 371.126 92.5411 370.75 93.4574C370.436 94.1293 370.499 94.9234 371.189 95.3509C372.881 96.3894 373.947 94.2515 374.26 92.9687C374.511 91.7471 374.511 89.1816 372.442 89.7313C370.813 90.22 370.186 92.5411 370.248 93.946C370.374 95.2288 372.254 95.2288 372.192 94.0682Z" fill="#161616"/>
<path d="M367.364 76.8429C367.803 74.2163 368.869 69.8183 371.815 65.2982C372.881 63.71 375.075 60.3504 378.648 58.0903C385.481 53.7534 395.95 54.1199 403.535 59.4342C410.995 64.6262 414.693 73.9109 413.063 83.1956C397.893 81.1188 382.597 78.9808 367.364 76.8429Z" fill="#69587B"/>
<path d="M342.414 77.0259C365.922 79.8969 389.367 82.7678 412.875 85.6387C416.448 86.0663 416.448 80.5688 412.875 80.1412C389.367 77.2703 365.922 74.3994 342.414 71.5284C338.779 71.1009 338.841 76.5984 342.414 77.0259Z" fill="#161616"/>
<path d="M397.893 82.5845C393.756 84.0505 391.311 86.8604 388.553 90.0978C382.66 97.0613 384.415 99.6268 380.278 103.964C373.696 110.866 366.988 106.774 361.096 113.554C356.081 119.296 356.77 127.053 356.958 128.825C357.146 130.535 358.024 137.437 363.854 142.202C368.932 146.294 375.702 147.211 376.141 146.294C376.266 145.989 375.764 145.134 372.003 142.691C373.069 143.424 374.824 144.34 377.018 144.767C379.588 145.195 382.033 144.767 382.033 144.401C382.033 144.095 380.654 144.157 379.588 143.057C378.962 142.385 378.711 141.652 378.523 140.98C380.591 142.263 383.162 143.424 385.606 142.691C392.314 140.736 393.505 126.259 393.881 121.434C395.135 105.918 390.559 97.4278 396.138 91.9303C396.577 91.4416 398.833 89.2426 401.341 89.7313C404.475 90.281 406.857 94.9844 405.854 98.0997C404.977 100.787 401.842 101.52 402.031 102.07C402.344 102.681 407.61 101.704 412.061 98.2829C413.69 97.0613 415.007 96.0229 415.696 94.1904C416.887 90.9529 415.508 87.2879 413.628 85.0889C409.741 80.6909 402.407 80.9964 397.893 82.5845Z" fill="#161616" stroke="#161616" stroke-width="2" stroke-miterlimit="10"/>
<path opacity="0.22" d="M404.099 102.62C403.096 102.742 401.654 102.742 401.591 102.437C401.529 102.253 401.905 102.009 401.905 102.009C401.905 102.009 400.714 103.475 399.209 103.658C398.52 103.719 397.893 103.536 397.454 103.292C400.087 108.728 402.783 115.264 405.102 122.838C407.609 131.146 409.051 138.659 409.866 145.134C412.562 145.134 416.386 144.828 420.774 143.485C424.347 142.385 427.168 140.919 429.299 139.636C423.657 131.024 420.774 124.121 419.144 119.418C418.392 117.219 416.762 112.027 416.01 109.461C414.568 104.819 413.377 100.971 412.624 98.4052C412.248 98.7717 411.559 99.3214 410.744 99.8711C409.553 100.726 407.233 102.314 404.099 102.62Z" fill="#6D6C6C"/>
<path d="M387.236 55.4026C393.317 56.5632 397.893 61.3277 398.645 66.8863C399.46 73.5443 394.445 78.1256 393.944 78.4921C400.463 79.2862 406.92 80.0192 413.44 80.8132C413.565 79.3472 413.628 77.3315 413.189 75.0103C411.935 67.5582 407.422 62.9158 406.481 61.9996C404.977 60.5336 399.648 55.5858 391.687 55.1583C389.869 55.0972 388.302 55.2804 387.236 55.4026Z" fill="#453853"/>
<path d="M249.261 322.764C249.575 326.063 249.825 329.422 250.139 332.721L569.281 333.271C570.221 329.972 571.162 326.613 572.102 323.314C464.53 323.131 356.896 322.948 249.261 322.764Z" fill="#F2F2F2"/>
<path d="M253.524 323.192H256.909C258.1 323.192 258.1 321.359 256.909 321.359C255.781 321.359 254.652 321.359 253.524 321.359C252.27 321.359 252.27 323.192 253.524 323.192Z" fill="#161616"/>
<path d="M250.076 324.963H375.89C375.89 324.963 459.766 324.963 501.704 324.963H573.042C575.487 324.963 575.487 321.298 573.042 321.298C531.104 321.298 489.166 321.298 447.228 321.298C405.29 321.298 363.352 321.298 321.415 321.298C297.656 321.298 273.835 321.298 250.076 321.298C247.694 321.298 247.694 324.963 250.076 324.963Z" fill="#161616"/>
<path d="M250.954 334.004H498.695H568.779C571.224 334.004 571.224 330.339 568.779 330.339C486.22 330.339 403.598 330.339 321.038 330.339C297.656 330.339 274.336 330.339 250.954 330.339C248.509 330.339 248.509 334.004 250.954 334.004Z" fill="#161616"/>
<path d="M260.921 342.922V496.424V540.282C260.921 542.664 264.682 542.664 264.682 540.282C264.682 489.094 264.682 437.906 264.682 386.78C264.682 372.181 264.682 357.521 264.682 342.922C264.682 340.601 260.921 340.601 260.921 342.922Z" fill="#161616"/>
<path d="M522.829 340.478V479.443V518.903C522.829 521.285 526.59 521.285 526.59 518.903C526.59 472.602 526.59 426.239 526.59 379.938C526.59 366.805 526.59 353.672 526.59 340.478C526.59 338.096 522.829 338.096 522.829 340.478Z" fill="#161616"/>
<path d="M1.83361 497.524H145.263H289.318H370.123C372.567 497.524 372.567 493.859 370.123 493.859C322.292 493.859 274.524 493.859 226.694 493.859C178.675 493.859 130.656 493.859 82.6378 493.859C55.6822 493.859 28.7892 493.859 1.83361 493.859C-0.611203 493.859 -0.611203 497.524 1.83361 497.524Z" fill="#161616"/>
<path d="M442.213 499.173H569.281H695.722H767.687C770.132 499.173 770.132 495.508 767.687 495.508C725.31 495.508 682.996 495.508 640.619 495.508C598.493 495.508 556.305 495.508 514.179 495.508C490.169 495.508 466.223 495.508 442.213 495.508C439.769 495.508 439.769 499.173 442.213 499.173Z" fill="#161616"/>
<path d="M261.673 342.861V493.004V535.762C261.673 538.144 265.435 538.144 265.435 535.762C265.435 485.735 265.435 435.646 265.435 385.619C265.435 371.387 265.435 357.154 265.435 342.861C265.435 340.479 261.673 340.479 261.673 342.861Z" fill="#161616"/>
<path d="M262.488 343.655V493.187V535.762C262.488 538.144 266.25 538.144 266.25 535.762C266.25 485.918 266.25 436.074 266.25 386.23C266.25 372.059 266.25 357.887 266.25 343.655C266.25 341.334 262.488 341.334 262.488 343.655Z" fill="#161616"/>
<path d="M522.516 339.562V475.595V514.444C522.516 516.826 526.277 516.826 526.277 514.444C526.277 469.12 526.277 423.735 526.277 378.411C526.277 365.462 526.277 352.512 526.277 339.562C526.277 337.241 522.516 337.241 522.516 339.562Z" fill="#161616"/>
<path d="M523.394 340.417V475.29V513.711C523.394 516.093 527.155 516.093 527.155 513.711C527.155 468.754 527.155 423.796 527.155 378.839C527.155 366.011 527.155 353.184 527.155 340.417C527.155 338.035 523.394 338.035 523.394 340.417Z" fill="#161616"/>
<path d="M253.023 334.309C256.282 338.157 259.166 342.189 261.736 346.465C262.99 348.48 266.25 346.648 264.996 344.632C262.238 340.112 259.103 335.836 255.656 331.744C254.088 329.911 251.456 332.477 253.023 334.309Z" fill="#161616"/>
<path d="M265.748 345.182C270.387 341.395 274.963 337.547 279.602 333.759C281.42 332.232 278.787 329.667 276.969 331.194C272.33 334.981 267.754 338.829 263.115 342.616C261.235 344.144 263.93 346.709 265.748 345.182Z" fill="#161616"/>
<path d="M512.047 336.203C515.933 338.585 519.82 340.967 523.707 343.349C525.775 344.632 527.656 341.456 525.587 340.173C521.701 337.791 517.814 335.409 513.927 333.026C511.859 331.805 509.978 334.981 512.047 336.203Z" fill="#161616"/>
<path d="M534.677 331.866C531.417 334.431 528.283 337.18 525.337 340.051C523.644 341.7 526.277 344.327 527.969 342.616C530.916 339.745 534.05 336.997 537.31 334.431C539.191 332.965 536.558 330.4 534.677 331.866Z" fill="#161616"/>
<path d="M514.993 336.386C520.008 337.119 524.898 337.302 529.913 336.814C529.599 335.653 529.286 334.553 528.972 333.393C526.904 334.676 524.772 335.042 522.328 335.286C520.948 335.47 519.569 337.302 521.011 338.402C522.954 339.929 524.898 340.417 527.343 339.807C529.662 339.257 528.722 335.714 526.34 336.264C525.399 336.63 524.459 336.447 523.644 335.775C523.205 336.814 522.766 337.852 522.328 338.89C525.337 338.585 528.283 338.157 530.853 336.447C532.295 335.531 531.919 332.843 529.913 333.026C525.274 333.454 520.572 333.393 515.933 332.721C513.614 332.477 512.611 336.019 514.993 336.386Z" fill="#161616"/>
<path d="M533.173 332.904C531.418 332.538 529.663 332.782 528.158 333.759C527.343 334.309 526.967 335.347 527.469 336.264C527.97 337.058 529.224 337.485 530.039 336.935C530.728 336.447 531.418 336.264 532.108 336.447C533.111 336.63 534.114 336.141 534.427 335.164C534.74 334.248 534.176 333.087 533.173 332.904Z" fill="#161616"/>
<path d="M257.285 336.019C258.413 336.752 262.613 338.646 262.425 340.234L264.306 338.402C264.055 338.402 263.303 335.592 263.115 335.103C262.551 336.019 262.049 336.936 261.485 337.852C265.246 337.669 268.819 336.936 272.267 335.592C271.64 334.553 271.076 333.576 270.449 332.538C268.318 334.676 266.061 336.691 263.616 338.524L266.186 341.028C268.443 337.302 265.246 334.248 261.986 332.66C261.673 333.82 261.36 334.92 261.046 336.08C263.616 335.958 266.186 335.897 268.757 336.019C271.201 336.142 271.139 332.476 268.757 332.354C266.186 332.232 263.616 332.232 261.046 332.415C259.291 332.538 258.351 334.981 260.106 335.836C261.234 336.386 263.992 337.546 262.989 339.196C262.112 340.662 263.992 342.861 265.56 341.7C268.255 339.684 270.825 337.546 273.145 335.164C274.336 333.943 273.145 331.377 271.327 332.11C268.13 333.332 264.933 334.065 261.548 334.248C260.043 334.309 259.354 335.714 259.918 336.997C260.983 339.318 260.921 342.128 264.369 342.067C265.497 342.067 266.124 341.212 266.249 340.234C266.751 336.569 261.798 334.492 259.291 332.904C257.159 331.56 255.279 334.737 257.285 336.019Z" fill="#161616"/>
<path d="M277.846 320.871C277.846 317.878 277.846 314.885 277.846 311.831C277.846 310.67 275.966 310.67 275.966 311.831V320.871C275.966 322.092 277.846 322.092 277.846 320.871Z" fill="#E8E8E8"/>
<path d="M276.906 312.624H328.937C330.128 312.624 330.128 310.792 328.937 310.792C311.573 310.792 294.271 310.792 276.906 310.792C275.715 310.792 275.715 312.624 276.906 312.624Z" fill="#E8E8E8"/>
<path d="M327.997 311.708V320.321C327.997 321.482 329.877 321.482 329.877 320.321C329.877 317.45 329.877 314.579 329.877 311.708C329.877 310.486 327.997 310.486 327.997 311.708Z" fill="#E8E8E8"/>
<path d="M279.289 316.045H319.095C320.286 316.045 320.286 314.213 319.095 314.213C305.806 314.213 292.579 314.213 279.289 314.213C278.098 314.213 278.098 316.045 279.289 316.045Z" fill="#E8E8E8"/>
<path d="M288.128 319.527H318.657C319.848 319.527 319.848 317.694 318.657 317.694C308.501 317.694 298.283 317.694 288.128 317.694C286.937 317.694 286.937 319.527 288.128 319.527Z" fill="#E8E8E8"/>
<path d="M290.259 311.525C290.259 309.448 290.259 307.432 290.259 305.355C290.259 304.195 288.378 304.195 288.378 305.355V311.525C288.378 312.685 290.259 312.685 290.259 311.525Z" fill="#E8E8E8"/>
<path d="M290.51 305.905H335.833C337.024 305.905 337.024 304.073 335.833 304.073C320.725 304.073 305.617 304.073 290.51 304.073C289.318 304.073 289.318 305.905 290.51 305.905Z" fill="#E8E8E8"/>
<path d="M329.501 312.197H335.394C336.585 312.197 336.585 310.364 335.394 310.364C333.451 310.364 331.445 310.364 329.501 310.364C328.31 310.364 328.31 312.197 329.501 312.197Z" fill="#E8E8E8"/>
<path d="M334.893 305.172V311.097C334.893 312.258 336.773 312.258 336.773 311.097C336.773 309.143 336.773 307.127 336.773 305.172C336.773 303.951 334.893 303.951 334.893 305.172Z" fill="#E8E8E8"/>
<path d="M299.599 308.96H310.444C311.636 308.96 311.636 307.127 310.444 307.127C306.809 307.127 303.235 307.127 299.599 307.127C298.346 307.127 298.346 308.96 299.599 308.96Z" fill="#E8E8E8"/>
<path d="M318.28 310.486H327.934C329.125 310.486 329.125 308.654 327.934 308.654C324.737 308.654 321.477 308.654 318.28 308.654C317.089 308.654 317.089 310.486 318.28 310.486Z" fill="#E8E8E8"/>
<path d="M300.79 303.218C299.286 301.813 298.972 299.675 299.098 297.72C299.348 294.483 302.357 294.36 304.865 295.338C305.993 295.765 306.495 293.994 305.366 293.566C302.546 292.467 298.847 292.528 297.593 295.765C296.528 298.514 297.28 302.485 299.474 304.5C300.351 305.355 301.668 304.012 300.79 303.218Z" fill="#E8E8E8"/>
<path d="M304.552 294.422C310.444 291.856 312.889 301.507 307.811 303.951C306.746 304.5 307.686 306.028 308.752 305.539C316.023 301.996 311.761 289.291 303.611 292.834C302.483 293.322 303.486 294.91 304.552 294.422Z" fill="#E8E8E8"/>
<path d="M304.74 293.933C304.426 291.978 303.674 290.207 302.483 288.619C301.793 287.641 300.164 288.558 300.853 289.535C301.919 291.001 302.608 292.589 302.922 294.422C303.11 295.582 304.928 295.094 304.74 293.933Z" fill="#E8E8E8"/>
<path d="M303.862 290.818C304.05 290.329 304.301 289.902 304.614 289.474C304.74 289.291 304.928 289.046 305.116 288.863C305.178 288.741 305.304 288.68 305.429 288.558C305.116 287.947 304.928 287.825 304.802 288.13C304.489 288.436 304.175 289.23 303.987 289.657C303.674 290.207 303.298 290.696 302.922 291.184C302.232 292.162 303.862 293.078 304.552 292.101C305.241 291.184 305.868 290.207 306.369 289.169C306.808 288.313 307.059 287.214 305.931 286.786C304.05 286.114 302.608 288.985 302.107 290.268C301.605 291.429 303.423 291.917 303.862 290.818Z" fill="#E8E8E8"/>
<path d="M611.908 413.779C612.159 416.649 612.41 419.581 612.66 422.452C641.559 422.208 670.458 421.964 699.357 421.719C699.044 418.971 698.73 416.222 698.417 413.534C669.518 413.656 640.744 413.717 611.908 413.779Z" fill="#F2F2F2"/>
<path d="M612.472 423.43H699.106C701.551 423.43 701.551 419.765 699.106 419.765C670.207 419.765 641.371 419.765 612.472 419.765C610.09 419.765 610.027 423.43 612.472 423.43Z" fill="#161616"/>
<path d="M613.037 415.061H698.041C700.486 415.061 700.486 411.396 698.041 411.396C669.706 411.396 641.371 411.396 613.037 411.396C610.592 411.396 610.592 415.061 613.037 415.061Z" fill="#161616"/>
<path d="M610.091 413.778V420.009C610.091 422.391 613.852 422.391 613.852 420.009C613.852 417.932 613.852 415.855 613.852 413.778C613.852 411.396 610.091 411.396 610.091 413.778Z" fill="#161616"/>
<path d="M697.226 413.778V422.086C697.226 424.468 700.987 424.468 700.987 422.086C700.987 419.337 700.987 416.527 700.987 413.778C700.987 411.396 697.226 411.396 697.226 413.778Z" fill="#161616"/>
<path d="M654.975 422.635V527.882C654.975 530.264 658.736 530.264 658.736 527.882C658.736 492.82 658.736 457.758 658.736 422.635C658.736 420.253 654.975 420.253 654.975 422.635Z" fill="#161616"/>
<path d="M654.849 527.332C648.392 531.058 641.935 534.785 635.416 538.511C633.347 539.732 635.228 542.909 637.297 541.687C643.753 537.961 650.21 534.235 656.73 530.509C658.861 529.287 656.918 526.111 654.849 527.332Z" fill="#161616"/>
<path d="M655.915 529.959C663.25 533.929 670.521 537.961 677.856 541.931C679.987 543.092 681.868 539.916 679.736 538.755C672.402 534.785 665.13 530.753 657.796 526.783C655.664 525.622 653.784 528.798 655.915 529.959Z" fill="#161616"/>
<path d="M636.545 543.031C650.461 542.909 664.315 542.481 678.232 541.809C680.614 541.687 680.677 538.022 678.232 538.144C664.378 538.816 650.461 539.244 636.545 539.366C634.1 539.366 634.1 543.031 636.545 543.031Z" fill="#161616"/>
<path d="M638.613 423.979C644.255 431.798 649.396 439.983 654.035 448.413C655.163 450.489 658.423 448.657 657.294 446.58C652.656 438.151 647.515 429.965 641.873 422.147C640.494 420.192 637.234 422.025 638.613 423.979Z" fill="#161616"/>
<path d="M676.289 421.353C668.077 428.988 661.056 437.662 655.351 447.191C654.098 449.207 657.357 451.1 658.611 449.024C664.19 439.739 671.023 431.37 678.984 423.979C680.74 422.33 678.044 419.704 676.289 421.353Z" fill="#161616"/>
<path d="M523.08 493.187C522.578 501.922 522.139 510.657 521.638 519.392C497.691 529.532 486.157 536.19 487.097 539.244C488.163 542.909 506.593 541.626 542.262 535.518C542.513 520.552 542.764 505.587 542.952 490.622C536.369 491.477 529.725 492.332 523.08 493.187Z" fill="#161616"/>
<path d="M597.427 351.657C592.099 356.299 584.514 363.018 575.675 371.326C554.612 391.239 539.128 405.838 528.659 420.925C520.008 433.447 507.157 457.27 506.154 496.241C514.805 498.562 525.713 500.517 538.376 500.395C542.638 500.334 546.713 500.089 550.412 499.662C548.782 490.805 547.465 476.939 550.788 460.691C553.107 449.268 556.994 440.105 560.504 433.447C588.714 421.231 607.771 406.265 619.932 394.843C632.219 383.298 646.198 370.104 642.437 360.758C638.989 351.901 620.622 348.48 597.427 351.657Z" fill="#F16A6F"/>
<path opacity="0.18" d="M627.079 351.718C617.613 363.995 606.267 377.312 592.664 390.872C575.613 407.914 558.75 421.658 543.642 432.592C538.376 455.132 533.11 477.671 527.845 500.15C530.101 500.517 532.672 500.822 535.493 500.822C541.197 500.944 546.087 500.15 549.848 499.173C548.657 491.476 547.842 480.909 549.347 468.631C551.227 453.482 555.991 441.571 559.878 433.691C574.045 427.339 585.266 420.864 593.353 415.733C593.353 415.733 618.679 399.729 638.3 375.174C638.739 374.624 640.243 372.73 641.434 369.798C642.375 367.416 643.566 364.484 642.626 361.43C641.748 358.681 639.617 357.154 637.36 355.627C635.605 354.466 632.157 352.451 627.079 351.718Z" fill="#6D6C6C"/>
<path opacity="0.16" d="M559.376 433.997C556.68 438.884 554.048 444.015 551.477 449.39C542.826 467.532 536.808 484.88 532.608 500.639C538.376 500.395 544.08 500.15 549.847 499.967C548.531 492.576 547.528 482.62 548.656 471.075C550.224 454.765 555.301 442.06 559.376 433.997Z" fill="#6D6C6C"/>
<path d="M561.758 501.616C564.642 510.351 567.526 519.086 570.409 527.821C549.096 540.282 539.003 547.795 540.194 550.299C541.636 553.354 560.003 548.833 595.359 536.739C590.469 522.873 585.58 509.007 580.69 495.141C574.359 497.218 568.027 499.417 561.758 501.616Z" fill="#161616"/>
<path d="M665.13 363.507C669.581 385.558 662.873 397.958 659.676 402.722C653.282 412.251 644.757 415.183 619.87 427.217C610.153 431.92 595.359 439.25 577.242 448.963C578.496 456.72 580.502 465.638 583.699 475.351C586.708 484.513 590.218 492.515 593.604 499.234C590.281 502.349 583.574 507.847 573.355 511.023C562.322 514.505 552.857 513.467 548.218 512.672C538.376 493.737 535.868 477.122 535.179 466.982C534.364 454.765 533.424 440.9 540.758 427.217C546.4 416.711 551.854 415.733 574.672 398.752C608.962 373.28 612.41 363.751 630.088 360.208C644.568 357.338 657.419 360.697 665.13 363.507Z" fill="#F16A6F"/>
<path opacity="0.22" d="M641.685 359.414C641.999 366.5 641.435 377.617 635.605 388.979C630.715 398.569 624.196 405.41 602.694 419.581C583.574 432.164 568.341 441.877 558.499 448.107C564.768 468.57 571.037 489.033 577.305 509.496C579.186 508.885 581.443 507.969 583.762 506.686C588.025 504.304 591.034 501.433 592.977 499.234C590.219 493.492 587.461 487.078 585.016 480.054C581.004 468.814 578.496 458.308 576.929 449.207C592.476 440.777 603.383 435.28 609.777 432.164C619.306 427.522 624.007 425.201 628.834 422.941C630.464 422.208 634.1 420.559 638.864 418.115C644.193 415.428 646.826 414.145 649.208 412.557C651.151 411.274 656.041 407.914 659.99 402.356C665.632 394.415 666.133 386.108 666.51 380.06C666.76 376.151 666.698 370.47 665.193 363.812C661.933 362.468 657.545 361.002 652.28 360.147C648.205 359.414 644.632 359.292 641.685 359.414Z" fill="#6D6C6C"/>
<path opacity="0.11" d="M666.446 375.724C665.443 378.961 663.625 383.664 660.428 388.734C650.586 404.127 635.541 410.236 625.01 415.367C612.535 421.475 595.735 431.554 577.054 448.963C582.319 446.092 588.776 442.671 596.299 438.762C609.589 431.859 616.171 428.439 623.004 425.262C628.332 422.819 634.413 420.192 643.502 415.489C650.022 412.129 653.595 410.052 656.98 406.204C660.804 401.867 662.497 397.53 663.625 394.598C665.004 390.933 666.948 384.397 666.446 375.724Z" fill="#6D6C6C"/>
<path opacity="0.17" d="M576.804 449.573C576.866 454.704 577.243 460.202 577.932 466.005C579.687 480.848 583.386 493.614 587.335 503.938C588.464 503.327 589.78 502.472 591.159 501.311C592.037 500.578 592.789 499.845 593.353 499.173C590.72 493.859 588.15 487.934 585.705 481.52C581.38 469.914 578.622 459.102 576.804 449.573Z" fill="#6D6C6C"/>
<path d="M623.819 243.906C615.983 246.471 614.604 255.573 609.338 265.957C609.338 265.957 601.063 282.449 582.946 296.01C576.364 300.958 562.134 309.692 538.376 311.22C536.056 310.303 532.483 309.082 527.969 308.349C521.513 307.31 512.486 305.783 506.405 310.853C503.647 313.174 500.575 317.572 501.954 320.26C503.647 323.558 511.169 322.276 523.519 321.726C540.632 320.993 539.817 322.825 551.728 322.092C562.385 321.42 579.185 320.443 596.675 310.487C613.412 301.019 622.063 288.374 624.132 285.137C628.144 279.029 629.962 274.081 633.661 264.124C638.55 251.052 637.735 248.12 636.356 246.41C633.974 243.234 628.207 242.44 623.819 243.906Z" fill="#F2F2F2" stroke="#161616" stroke-width="2" stroke-miterlimit="10"/>
<path d="M530.916 313.113C526.967 313.846 521.262 314.03 518.379 317.206C516.749 319.038 517 322.276 520.009 322.276C520.886 322.276 520.949 320.871 520.009 320.871C518.504 319.344 518.63 318.122 520.51 317.267C521.137 316.839 521.827 316.534 522.579 316.229C523.394 315.923 524.209 315.74 525.024 315.557C527.092 315.129 529.161 314.763 531.292 314.396C532.17 314.274 531.794 312.991 530.916 313.113Z" fill="#161616"/>
<path d="M501.327 318.794C505.026 323.314 510.793 318.061 515.244 319.221C516.122 319.466 516.498 318.122 515.62 317.878C513.677 317.389 511.984 317.633 510.041 318.244C507.471 319.038 504.336 320.382 502.268 317.817C501.766 317.145 500.763 318.122 501.327 318.794Z" fill="#161616"/>
<path d="M503.584 313.235C503.709 315.068 504.963 315.801 506.781 315.801C510.856 315.801 514.429 314.213 518.504 315.495C519.381 315.74 519.758 314.457 518.88 314.152C516.811 313.48 514.805 313.419 512.674 313.602C511.169 313.724 505.151 315.373 505.026 313.174C504.901 312.38 503.521 312.38 503.584 313.235Z" fill="#161616"/>
<path d="M509.728 309.448C510.354 310.914 511.42 311.586 513.05 311.83C516.247 312.258 519.005 312.38 521.952 313.663C522.767 314.029 523.519 312.808 522.641 312.502C521.011 311.83 519.381 311.219 517.626 310.914C515.62 310.548 511.922 311.158 511.044 309.082C510.731 308.287 509.351 308.654 509.728 309.448Z" fill="#161616"/>
<path opacity="0.16" d="M631.405 244.089C627.831 244.944 628.897 254.29 627.016 262.964C623.882 276.952 613.664 285.687 602.38 295.338C594.732 301.874 585.768 309.57 572.102 312.991C567.401 314.152 559.627 315.434 551.29 315.862C540.006 316.412 534.427 316.717 534.051 316.656C532.17 316.473 527.594 315.984 522.704 318.061C521.701 318.488 518.943 319.649 519.131 320.504C519.382 321.787 525.901 321.42 540.57 321.298C551.415 321.237 550.287 321.42 553.609 321.298C559.878 321.054 570.786 320.688 583.072 316.351C600.562 310.242 611.345 299.43 616.297 294.422C621.061 289.535 623.694 285.748 624.509 284.587C628.396 278.907 630.214 273.837 633.787 263.88C637.924 252.274 637.924 249.22 636.294 246.838C635.166 245.433 633.097 243.661 631.405 244.089Z" fill="#6D6C6C"/>
<path opacity="0.13" d="M503.021 320.749C503.459 319.649 505.34 315.129 510.355 312.747C517.877 309.265 525.212 313.968 525.525 314.152C523.895 315.007 522.516 315.618 521.513 315.984C519.946 316.656 519.319 316.778 518.755 317.389C517.815 318.55 518.066 320.26 518.316 321.298C516.31 321.726 513.677 322.031 510.543 321.909C507.534 321.848 504.964 321.298 503.021 320.749Z" fill="#6D6C6C"/>
<path opacity="0.14" d="M636.231 254.107C633.598 262.658 627.831 277.074 615.168 291.001C597.929 309.998 577.681 317.389 568.466 320.138C575.55 318.916 601.878 313.48 620.434 290.024C631.404 276.097 634.915 261.925 636.231 254.107Z" fill="#6D6C6C"/>
<path d="M621.687 244.394C617.738 248.609 614.917 254.168 613.099 274.692C610.403 304.684 614.666 311.586 609.902 326.429C607.708 333.21 603.194 343.044 592.726 353.612C600.123 358.254 612.096 364.607 628.144 368.272C644.004 371.875 657.482 371.326 666.258 370.348C677.542 336.569 676.602 309.265 674.282 292.467C672.088 276.463 667.136 239.63 647.452 234.988C638.111 232.728 627.517 238.225 621.687 244.394Z" fill="#F2F2F2" stroke="#161616" stroke-width="2" stroke-miterlimit="10"/>
<path opacity="0.12" d="M642.437 235.11C642.124 237.614 641.685 241.34 641.246 245.799C638.3 275.669 641.748 281.105 639.491 298.697C638.237 308.715 635.604 327.468 622.064 344.938C616.422 352.206 610.467 357.276 606.204 360.392C613.037 363.751 623.443 367.966 636.733 369.921C648.644 371.631 658.736 370.959 665.883 369.921C667.889 364.301 670.271 356.666 672.151 347.503C675.662 330.522 675.913 316.045 675.474 306.027C674.659 286.664 672.841 245.127 651.026 236.637C647.641 235.354 644.569 235.11 642.437 235.11Z" fill="#6D6C6C"/>
<path opacity="0.24" d="M675.034 322.825C674.282 322.703 672.527 330.277 669.957 337.119C666.697 345.976 660.554 357.887 647.828 370.776C653.971 370.47 660.178 370.226 666.321 369.92C668.39 363.446 671.022 353.795 673.154 341.883C674.533 333.881 675.975 323.009 675.034 322.825Z" fill="#6D6C6C"/>
<path d="M658.924 243.6C666.008 244.944 669.016 255.878 671.524 265.468C674.031 275.119 678.858 294.788 672.088 320.688C669.267 331.377 666.76 341.334 658.046 351.412C646.7 364.606 632.219 369.737 625.449 371.631C617.926 376.701 614.04 379.266 611.846 380.61C610.278 381.588 609.338 382.137 607.645 383.298C605.201 385.008 604.762 385.558 603.571 386.047C602.317 386.535 600.311 386.902 597.302 385.986C597.051 386.047 595.108 386.291 593.666 384.886C592.789 384.031 592.6 383.054 592.6 382.626C592.412 382.626 591.221 382.504 590.406 381.527C589.654 380.61 589.592 379.328 590.156 378.228C589.905 377.739 589.654 377.067 589.654 376.212C589.341 371.936 594.544 368.516 597.427 366.561C600.499 364.484 606.58 361.186 615.983 360.331C621.061 357.704 628.646 353.001 635.353 345.121C637.485 342.678 651.715 325.452 650.586 302.301C650.148 292.589 646.574 274.509 644.568 257.65C644.443 256.428 644.067 253.129 645.885 249.953C648.518 245.616 654.536 242.806 658.924 243.6Z" fill="#F2F2F2" stroke="#161616" stroke-width="2" stroke-miterlimit="10"/>
<path d="M590.344 378.655C591.221 378.655 591.284 377.25 590.344 377.25C589.466 377.25 589.466 378.655 590.344 378.655Z" fill="#161616"/>
<path d="M589.654 377.923V378.35C589.717 379.083 590.532 379.267 590.971 378.717C593.478 375.479 596.863 373.097 600.813 371.875C601.69 371.631 601.314 370.287 600.437 370.532C596.111 371.875 592.475 374.441 589.717 377.984C590.156 378.106 590.595 378.228 591.033 378.35C591.033 378.228 591.033 378.106 591.033 377.923C591.033 377.068 589.592 377.068 589.654 377.923Z" fill="#161616"/>
<path d="M593.165 382.87C596.362 379.327 600.311 376.64 604.825 374.868C605.64 374.563 605.326 373.219 604.449 373.524C599.684 375.357 595.547 378.106 592.162 381.832C591.598 382.565 592.601 383.542 593.165 382.87Z" fill="#161616"/>
<path d="M597.866 386.169C601.126 382.565 604.887 379.572 609.15 377.129C609.902 376.701 609.212 375.479 608.46 375.968C604.135 378.472 600.248 381.527 596.926 385.253C596.299 385.863 597.302 386.841 597.866 386.169Z" fill="#161616"/>
<path opacity="0.13" d="M656.166 245.922C653.784 249.281 657.67 255.206 659.864 259.604C663.061 266.079 663.563 273.104 664.566 287.153C666.384 312.625 654.222 334.431 653.345 335.958C642.249 355.2 625.01 366.744 619.619 370.287C610.467 376.273 597.49 382.809 598.556 385.314C598.932 386.23 601.001 386.352 601.878 386.291C604.887 386.169 606.141 383.909 610.341 381.038C612.535 379.511 612.473 380 616.234 377.801C618.428 376.518 621.562 374.563 625.261 371.814C633.661 369.615 639.867 366.256 643.754 363.812C649.396 360.27 660.24 352.146 666.885 337.974C669.142 333.149 670.02 329.3 671.775 321.665C673.593 313.663 676.477 300.53 674.847 283.793C674.094 276.219 672.778 271.149 670.96 264.491C668.139 253.801 665.569 244.578 660.679 243.967C659.049 243.723 657.106 244.639 656.166 245.922Z" fill="#6D6C6C"/>
<path opacity="0.16" d="M674.032 279.334C673.468 279.334 673.593 285.748 670.897 302.79C668.453 318.061 667.199 325.88 663.751 333.026C658.736 343.411 651.903 349.946 648.581 353.062C639.115 361.98 633.41 362.591 618.929 372.975C611.344 378.411 605.702 383.359 602.38 386.413C609.902 381.527 617.362 376.64 624.885 371.814C631.78 369.86 645.948 364.729 657.357 351.596C665.193 342.555 668.264 333.698 670.647 326.796C678.796 302.179 675.035 279.334 674.032 279.334Z" fill="#6D6C6C"/>
<path d="M630.777 216.968C627.956 218.861 627.455 222.526 627.016 226.558C626.577 230.651 626.514 237.797 630.338 246.654C632.72 246.654 635.667 246.471 638.926 245.86C641.497 245.372 643.753 244.7 645.634 244.028C645.383 235.904 645.195 227.78 644.944 219.656C639.679 215.868 634.162 214.708 630.777 216.968Z" fill="#F2F2F2" stroke="#161616" stroke-width="2" stroke-miterlimit="10"/>
<path d="M615.858 176.225C611.47 178.669 609.589 182.761 605.891 190.702C601.753 199.743 598.87 207.561 597.741 213.303C597.553 214.158 597.992 215.013 598.807 215.38C599.873 215.869 601.753 216.052 602.756 216.296C602.756 218.678 603.07 222.771 605.264 227.169C609.276 235.171 616.673 238.408 618.867 239.263C625.825 238.103 630.966 235.782 634.038 234.01C636.858 232.483 640.494 230.406 644.068 226.375C647.265 222.71 648.957 219.045 649.835 216.602C651.151 216.602 653.157 216.479 655.226 215.38C659.489 213.12 663.125 207.195 660.868 203.591C659.175 200.964 654.536 199.865 649.772 201.575C649.835 199.62 649.772 196.933 649.083 193.756C648.894 192.962 647.578 187.159 644.569 183.067C638.802 175.187 624.76 171.278 615.858 176.225Z" fill="#F2F2F2" stroke="#161616" stroke-width="2" stroke-miterlimit="10"/>
<path d="M600.061 203.896C598.494 201.514 595.046 195.528 595.547 187.587C595.735 184.899 596.112 179.768 599.936 174.943C604.574 169.079 611.031 167.552 612.912 167.185C613.789 165.78 615.294 163.703 617.801 161.993C618.804 161.321 621.563 159.672 628.333 159.305C631.906 159.122 637.36 159.244 643.879 161.077C648.957 162.543 652.342 164.62 654.411 166.269C662.372 172.377 661.745 177.203 671.838 187.098C674.157 189.358 675.787 190.152 679.298 193.512C682.996 196.994 685.943 200.353 687.573 202.369C691.271 206.95 698.23 215.624 699.546 227.352C699.985 231.323 701.238 242.501 694.092 251.053C684.376 262.72 662.435 263.636 649.083 254.351C646.575 252.641 636.169 245.311 636.733 233.522C637.235 222.893 646.324 216.54 647.578 215.624C648.644 216.052 650.838 216.724 652.969 215.991C657.42 214.403 659.301 207.744 656.981 204.385C656.041 203.041 654.536 202.491 654.098 202.369C650.462 201.147 647.076 203.774 646.826 203.957C641.936 200.476 638.238 197.116 635.667 194.489C632.157 191.008 630.402 188.686 629.775 187.831C627.831 185.144 626.39 182.7 625.449 180.868C622.566 181.54 618.804 182.822 614.855 185.327C613.915 185.877 610.78 187.953 607.521 191.557C607.145 191.985 605.327 194.001 603.383 197.055C601.942 199.681 600.813 202.003 600.061 203.896Z" fill="#69587B"/>
<path d="M612.849 209.333C612.849 209.272 612.849 209.272 612.849 209.333C612.849 209.394 612.912 209.516 612.912 209.638V209.699C612.849 209.821 612.786 209.882 612.724 210.005C612.849 209.882 612.724 209.943 612.473 210.127C612.348 210.066 612.222 210.066 612.097 210.005C612.034 209.943 611.971 209.943 611.971 209.882C611.909 209.76 611.909 209.638 611.846 209.516V209.455C611.909 209.333 611.971 209.272 612.034 209.149C612.159 209.149 612.285 209.088 612.41 209.088L612.912 209.577V209.76C612.598 209.821 612.285 209.943 611.971 210.005L611.909 209.943C611.846 209.821 611.783 209.76 611.721 209.638C611.783 209.455 611.909 209.272 611.971 209.149C612.097 209.088 612.222 209.088 612.347 209.027H612.285C611.909 209.088 611.595 209.333 611.595 209.699C611.595 210.066 611.909 210.432 612.285 210.371C612.661 210.31 613.037 210.127 613.1 209.699C613.225 209.333 613.037 208.905 612.661 208.722C612.285 208.539 611.909 208.661 611.721 208.966C611.344 209.455 611.595 210.249 612.222 210.31C612.786 210.371 613.288 209.943 613.288 209.394C613.288 208.844 612.724 208.477 612.159 208.6C611.595 208.783 611.344 209.333 611.595 209.882C611.783 210.249 612.285 210.31 612.536 210.127C612.974 210.066 612.974 209.638 612.849 209.333Z" fill="#161616"/>
<path d="M618.365 207.867C618.491 208.477 618.24 208.416 617.676 207.683C617.801 207.622 617.864 207.561 617.989 207.5C618.24 207.5 618.428 207.622 618.553 207.928C618.616 207.561 618.177 207.256 617.864 207.256C617.425 207.256 617.174 207.561 617.174 207.928C617.111 208.477 617.676 208.905 618.177 208.844C618.804 208.844 619.18 208.233 618.992 207.683C618.804 207.134 618.177 206.828 617.613 207.134C617.049 207.439 616.986 207.989 617.237 208.538C617.362 208.905 617.926 208.966 618.177 208.783C618.491 208.6 618.553 208.233 618.365 207.867Z" fill="#161616"/>
<path d="M616.61 211.898C616.987 211.898 617.049 212.02 616.799 212.326C616.799 212.57 616.736 212.692 616.548 212.692C616.485 212.448 616.485 212.142 616.422 211.898C616.61 211.837 616.736 211.837 616.924 211.959C616.297 211.287 615.294 212.265 615.921 212.936C616.36 213.425 617.175 213.303 617.488 212.753C617.801 212.203 617.488 211.532 616.924 211.348C616.297 211.165 615.67 211.593 615.607 212.203C615.607 212.875 616.297 213.364 616.924 213.242C617.864 212.997 617.488 211.654 616.61 211.898Z" fill="#161616"/>
<path d="M605.013 225.214C608.899 224.542 612.284 222.343 614.479 219.106C614.98 218.373 613.789 217.701 613.287 218.434C611.281 221.366 608.272 223.259 604.699 223.931C603.759 224.053 604.135 225.336 605.013 225.214Z" fill="#161616"/>
<path opacity="0.1" d="M626.326 182.883C627.455 185.082 628.896 188.014 630.526 191.496C635.541 202.125 636.106 205.057 636.294 207.622C636.544 211.47 635.855 214.402 635.291 216.479C632.407 227.841 623.944 235.415 619.744 238.714C621.813 238.469 624.32 238.042 627.079 237.125C631.341 235.721 634.664 233.827 636.921 232.239C636.732 234.132 636.732 237.064 637.861 240.363C639.115 244.272 641.371 246.716 643.252 249.037C644.694 250.808 647.264 253.618 651.339 255.878C655.288 258.138 658.986 258.932 661.243 259.299C666.509 260.459 670.897 260.337 673.843 260.093C677.918 259.726 684.375 259.177 690.393 254.656C691.897 253.496 695.345 250.869 697.414 246.227C697.915 245.127 698.668 243.051 699.044 237.553C699.483 231.078 699.796 226.558 698.229 220.816C696.599 214.891 693.653 210.31 690.769 206.95C685.754 220.083 673.655 227.657 662.748 226.069C654.222 224.787 649.082 218.251 647.577 216.235C650.9 216.968 654.285 215.991 656.228 213.608C658.548 210.921 659.237 206.095 656.228 203.53C653.846 201.514 649.897 201.453 646.951 203.713C643.377 201.208 639.303 197.91 635.165 193.634C631.467 189.908 628.583 186.182 626.326 182.883Z" fill="#6D6C6C"/>
<path d="M611.846 202.735C611.47 202.125 611.407 201.208 612.034 200.72C611.846 200.781 611.72 200.842 611.532 200.903H611.72C611.532 200.842 611.407 200.781 611.219 200.72C611.846 201.208 611.344 203.102 611.094 203.652C611.219 203.53 611.344 203.468 611.532 203.346C611.47 203.346 611.407 203.407 611.407 203.407C611.595 203.407 611.783 203.468 611.971 203.468C611.595 203.285 611.658 202.308 611.72 202.064C611.783 201.514 611.908 201.025 612.159 200.598C611.846 200.659 611.532 200.781 611.219 200.842C611.532 201.086 611.595 201.575 611.532 201.941C611.532 202.125 611.47 202.308 611.407 202.43C611.344 202.735 611.219 202.735 611.532 202.797C611.658 202.919 611.783 202.98 611.971 203.102C611.971 203.041 611.908 203.041 611.908 202.98C611.344 202.308 610.153 202.98 610.717 203.652C611.031 204.018 611.47 204.263 611.971 204.079C612.535 203.896 612.723 203.346 612.849 202.858C613.162 201.636 613.162 200.414 612.034 199.62C611.72 199.376 611.219 199.559 611.094 199.865C610.467 201.086 610.091 202.98 610.906 204.201C611.219 204.69 611.908 204.934 612.41 204.568C612.974 204.14 613.037 203.041 613.099 202.43C613.225 201.514 613.037 198.887 611.407 199.681C610.091 200.353 610.216 202.43 610.843 203.468C611.094 204.201 612.347 203.468 611.846 202.735Z" fill="#161616"/>
<path d="M608.963 196.505C612.285 195.955 615.106 197.727 617.676 199.62C618.428 200.17 619.118 198.948 618.366 198.46C615.482 196.322 612.348 194.673 608.586 195.222C607.709 195.283 608.085 196.627 608.963 196.505Z" fill="#161616"/>
<path d="M612.723 218.495C613.413 218.923 614.04 219.472 614.604 220.083C615.231 220.755 616.234 219.778 615.607 219.106C614.98 218.434 614.228 217.823 613.413 217.273C612.661 216.785 611.971 218.006 612.723 218.495Z" fill="#161616"/>
</svg>
