<svg width="689" height="615" viewBox="0 0 689 615" fill="none" xmlns="http://www.w3.org/2000/svg">
<path d="M659.915 136.912C700.46 184.975 713.975 225.643 781.551 259.739C849.126 293.425 970.763 320.537 1008.46 360.384C1046.16 399.82 999.215 451.991 940.176 493.893C880.425 536.204 808.581 568.657 730.336 589.608C652.09 610.969 568.154 621.65 494.177 610.558C420.911 599.467 359.026 567.014 267.265 550.171C176.216 533.329 55.2914 531.686 16.1687 500.876C-23.6654 469.656 18.3026 408.447 53.8687 359.563C88.7235 310.267 118.599 272.885 132.825 216.195C146.341 159.505 144.918 83.5083 201.112 40.7856C256.595 -1.52629 370.407 -10.5638 460.745 12.03C551.083 34.6237 619.37 89.2594 659.915 136.912Z" fill="#054E4E"/>
</svg>
