<svg width="716" height="635" viewBox="0 0 716 635" fill="none" xmlns="http://www.w3.org/2000/svg">
<path d="M469.926 28.7772C521.495 44.9122 552.547 99.3102 604.115 150.942C655.129 203.035 727.214 252.362 713.906 295.696C701.153 339.03 604.115 375.91 548.665 421.549C492.661 467.188 479.353 521.586 440.538 554.778C401.723 587.509 338.51 598.573 264.207 613.786C190.458 628.538 105.62 647.439 49.0606 623.467C-7.49835 599.495 -36.3324 532.189 -75.7018 471.337C-115.626 410.485 -166.085 356.087 -148.341 310.448C-130.043 264.348 -44.0953 227.007 -3.06233 168.46C37.9707 109.913 34.0891 29.6992 72.9041 7.11018C111.719 -15.0178 193.231 20.9402 269.752 27.8552C346.827 34.7702 418.912 12.6422 469.926 28.7772Z" fill="#054E4E"/>
</svg>
