<svg width="686" height="526" viewBox="0 0 686 526" fill="none" xmlns="http://www.w3.org/2000/svg">
<path d="M320.484 291.206C316.314 294.25 311.28 299.139 309.449 306.123C308.127 311.312 309.398 314.355 308.94 321.04C308.635 325.68 307.415 332.215 303.499 339.998C294.599 338.202 279.648 336.456 262.002 340.447C251.475 342.842 243.033 346.583 236.829 349.976C237.795 350.574 239.117 351.273 240.795 351.722C250.305 354.266 260.323 346.434 260.628 346.982C260.934 347.481 249.441 352.769 250.051 357.359C250.458 360.452 256.102 362.099 261.951 363.845C266.884 365.292 271.562 366.689 277.817 365.99C286.412 365.042 292.362 360.802 295.006 358.606C297.549 359.854 301.312 361.5 306.041 362.947C314.738 365.541 326.739 369.133 334.723 364.244C339.911 361.051 341.487 353.568 344.437 338.701C347.996 320.591 349.675 311.511 344.894 304.078C338.639 294.15 325.773 291.855 320.484 291.206Z" fill="white" stroke="#161616" stroke-width="2.7802" stroke-miterlimit="10"/>
<path d="M301.871 340.547C308.025 342.792 313.11 346.883 316.619 352.321C317.128 353.119 318.45 352.37 317.941 351.572C314.229 345.785 308.788 341.494 302.278 339.1C301.312 338.751 300.956 340.197 301.871 340.547Z" fill="#161616"/>
<path d="M269.121 350.375C263.069 351.373 258.187 355.364 256.001 360.951C255.645 361.849 257.119 362.248 257.475 361.35C259.459 356.262 264.036 352.72 269.528 351.822C270.494 351.672 270.087 350.225 269.121 350.375Z" fill="#161616"/>
<path d="M276.241 355.364C274.054 356.661 272.02 358.157 270.087 359.754C268.816 360.851 267.392 362.149 267.697 363.945C268.46 368.684 274.257 367.636 277.41 366.439C278.326 366.09 277.919 364.643 277.004 364.992C275.631 365.491 274.105 366.14 272.63 366.09C270.24 365.99 268.104 363.745 270.138 361.7C272.071 359.704 274.613 358.108 277.004 356.611C277.817 356.112 277.054 354.815 276.241 355.364Z" fill="#161616"/>
<path d="M367.931 229.793C365.338 230.641 362.032 231.938 358.32 233.734C357.252 234.233 354.557 235.58 351.658 237.426C347.183 240.22 343.928 243.163 340.216 246.855C335.486 251.594 330.706 256.334 325.01 263.917C320.23 270.303 312.805 280.33 307.465 295.048C305.329 300.885 304.109 305.924 303.397 309.516C306.194 307.919 308.737 307.121 310.72 306.672C322.162 304.128 333.147 309.815 343.572 315.153C347.488 317.149 350.59 319.094 352.726 320.441C353.845 315.053 354.963 309.615 356.082 304.227C357.048 299.687 357.964 295.098 358.93 290.558C360.405 289.31 362.388 287.465 364.575 285.07C368.694 280.48 376.882 271.35 378 258.679C379.374 244.061 370.525 232.886 367.931 229.793Z" fill="#F16A6F"/>
<path d="M364.931 230.391C359.49 231.19 354.811 234.033 350.59 237.326C345.708 241.068 341.131 245.209 336.859 249.599C328.519 258.08 321.247 267.559 315.246 277.786C314.738 278.634 316.06 279.383 316.568 278.534C322.366 268.656 329.282 259.477 337.317 251.245C341.233 247.254 345.352 243.462 349.675 239.92C354.302 236.179 359.235 232.686 365.338 231.788C366.304 231.689 365.897 230.242 364.931 230.391Z" fill="#161616"/>
<path d="M362.795 284.87C359.032 288.612 355.167 292.254 351.251 295.796C350.539 296.445 351.607 297.492 352.319 296.844C356.235 293.302 360.1 289.66 363.863 285.918C364.524 285.22 363.456 284.172 362.795 284.87Z" fill="#161616"/>
<path d="M357.506 291.705C355.726 301.284 353.997 310.912 352.217 320.491C352.573 320.341 352.98 320.192 353.336 320.042C345.25 314.505 336.249 310.364 326.688 307.769C319.213 305.774 309.703 303.828 303.295 309.366C302.583 310.014 303.651 311.062 304.363 310.414C310.873 304.726 321.4 307.72 328.773 309.915C337.266 312.459 345.25 316.35 352.522 321.289C352.929 321.539 353.54 321.289 353.641 320.84C355.421 311.262 357.15 301.633 358.93 292.054C359.134 291.156 357.659 290.757 357.506 291.705Z" fill="#161616"/>
<path d="M315.602 277.088C310.313 287.215 303.702 297.642 303.244 309.366C303.194 310.314 304.719 310.314 304.77 309.366C305.228 297.941 311.737 287.764 316.924 277.836C317.331 276.988 316.009 276.24 315.602 277.088Z" fill="#161616"/>
<path opacity="0.4" d="M360.812 258.23C351.709 275.99 346.776 290.957 343.877 301.434C339.657 316.799 338.182 328.922 327.248 339C325.468 340.646 320.23 345.386 311.992 348.329C294.701 354.466 281.886 346.184 271.003 354.965C269.782 355.962 266.172 358.457 266.579 361.3C266.985 363.994 270.749 365.391 271.308 365.641C275.783 367.337 280.411 365.591 286.208 363.296C292.769 360.702 292.057 359.804 295.006 359.305C301.211 358.257 304.058 362.099 312.297 364.643C315.806 365.691 326.18 368.884 333.656 364.643C339.148 361.5 340.826 355.613 343.471 345.685C345.301 338.95 347.183 329.122 346.878 316.75C348.912 318.296 350.946 319.843 352.98 321.389C355.625 300.336 358.218 279.283 360.812 258.23Z" fill="#3D3D3D"/>
<path opacity="0.38" d="M357.761 279.832C350.794 292.753 347.386 303.679 345.556 311.062C341.894 325.879 343.064 332.864 338.08 343.291C332.74 354.615 324.095 361.799 318.094 365.89C321.451 366.639 329.536 368.036 335.385 363.545C339.504 360.402 340.572 355.912 342.148 348.579C344.132 339.549 346.217 329.272 348.251 317.997C349.827 318.995 351.404 319.992 352.98 320.99C354.608 307.32 356.184 293.551 357.761 279.832Z" fill="#3D3D3D"/>
<path d="M366.864 228.795C365.033 240.519 363.253 252.343 361.524 264.216C354.811 310.264 349.014 355.513 344.132 400.014C344.234 401.511 344.64 403.906 346.166 406.3C347.692 408.745 349.726 409.992 350.692 410.641C359.948 417.126 364.575 420.419 369.254 422.614C391.681 433.241 416.498 431.993 416.498 431.993C421.736 431.744 432.161 431.095 443.349 426.705C443.959 426.456 448.231 424.51 456.774 420.569C464.504 417.027 465.877 416.328 467.759 414.632C472.234 410.591 473.963 405.602 475.133 402.06C477.625 394.527 477.37 388.141 477.269 386.594C477.269 386.594 476.76 374.172 476.404 301.633C476.353 286.866 477.828 265.164 485.761 238.374C477.523 234.432 469.793 230.791 460.487 226.4C454.079 223.357 448.129 220.563 439.586 219.566C437.145 219.266 434.958 219.166 431.703 219.216C418.481 219.316 407.598 221.312 402.92 222.11C393.817 223.557 381.51 225.752 366.864 228.795Z" fill="#F16A6F"/>
<path d="M366.457 230.541C382.222 227.248 398.139 224.604 414.107 222.659C414.819 222.559 415.226 221.661 414.514 221.262C414.311 221.162 414.107 221.012 413.853 220.913C412.989 220.414 412.226 221.711 413.09 222.21C413.294 222.309 413.497 222.459 413.752 222.559C413.904 222.11 414.006 221.611 414.158 221.162C398.037 223.108 381.967 225.752 366.101 229.094C365.084 229.294 365.491 230.741 366.457 230.541Z" fill="#161616"/>
<path d="M361.727 256.683C356.133 295.796 351.048 334.959 346.471 374.222C345.911 379.161 345.352 384.05 344.793 388.989C344.335 393.279 343.064 398.119 343.623 402.409C344.132 406.201 347.183 408.595 349.98 410.89C353.031 413.385 356.235 415.73 359.591 417.875C373.373 426.605 389.494 431.844 405.869 432.792C425.346 433.889 444.925 429 461.555 419.022C462.368 418.523 461.605 417.226 460.792 417.725C431.703 435.136 394.681 435.835 365.033 419.322C361.626 417.426 358.32 415.33 355.167 413.036C351.963 410.691 346.776 407.498 345.454 403.656C344.844 401.81 345.149 399.765 345.352 397.819C345.606 395.375 345.912 392.88 346.166 390.436C346.674 385.846 347.183 381.256 347.742 376.666C349.929 357.958 352.167 339.299 354.608 320.641C357.354 299.438 360.202 278.235 363.253 257.082C363.355 256.134 361.88 255.735 361.727 256.683Z" fill="#161616"/>
<path d="M436.636 219.116C445.586 220.863 453.977 224.904 462.318 228.346C470.505 231.738 479.608 234.482 486.829 239.671C487.643 240.22 488.406 238.923 487.592 238.374C480.523 233.285 471.624 230.591 463.64 227.298C454.994 223.756 446.298 219.516 437.043 217.67C436.077 217.47 435.67 218.917 436.636 219.116Z" fill="#161616"/>
<path d="M476.506 303.728C475.692 324.732 474.879 345.735 475.641 366.688C475.997 376.866 477.625 387.442 475.692 397.57C474.065 405.901 469.285 414.233 460.792 417.326C459.876 417.675 460.283 419.122 461.199 418.773C474.726 413.834 478.235 398.717 478.032 386.045C477.93 377.465 477.167 368.884 476.964 360.253C476.76 351.472 476.862 342.742 477.014 333.961C477.218 323.884 477.625 313.806 477.981 303.728C478.082 302.731 476.557 302.731 476.506 303.728Z" fill="#161616"/>
<path opacity="0.38" d="M469.183 291.905C466.488 300.985 462.267 310.912 455.758 320.791C426.618 364.743 373.272 373.523 359.643 375.369C377.95 377.265 396.461 379.31 415.176 381.506C435.823 383.9 456.215 386.445 476.303 389.039C475.031 366.738 475.031 348.379 475.337 335.258C475.896 308.119 477.879 286.167 474.269 285.469C473.404 285.269 471.878 286.217 469.183 291.905Z" fill="#3D3D3D"/>
<path opacity="0.42" d="M475.438 308.218C473.607 313.507 470.81 320.99 466.691 329.621C460.893 341.844 455.35 353.618 448.18 360.851C428.143 381.057 388.985 372.326 388.883 373.723C388.833 374.521 403.174 376.766 475.59 383.302C475.59 358.257 475.54 333.263 475.438 308.218Z" fill="#3D3D3D"/>
<path d="M566.671 513.911C380.035 489.466 193.348 465.02 6.71191 440.624C61.7873 409.294 116.914 377.963 171.989 346.633C340.368 362.897 508.798 379.211 677.177 395.475C640.308 434.937 603.489 474.449 566.671 513.911Z" fill="white" stroke="#161616" stroke-width="2.7802" stroke-miterlimit="10"/>
<path d="M4.8811 444.865C191.975 469.211 379.068 493.557 566.111 517.902" stroke="#161616" stroke-width="14.8277" stroke-miterlimit="10"/>
<path d="M562.551 519C601.76 478.34 640.969 437.631 680.127 396.971" stroke="#161616" stroke-width="14.8277" stroke-miterlimit="10"/>
<path d="M500.102 412.138C481.032 426.755 462.368 441.821 444.01 457.287C443.247 457.936 444.366 458.983 445.078 458.335C463.436 442.869 482.151 427.803 501.17 413.185C501.933 412.636 500.865 411.539 500.102 412.138Z" fill="#161616"/>
<path d="M444.721 458.085C450.722 459.333 456.825 459.333 462.978 459.382C469.894 459.482 476.404 460.181 483.015 462.076C495.423 465.619 507.577 467.963 520.545 467.664C521.512 467.664 521.512 466.167 520.545 466.167C513.883 466.317 507.222 465.918 500.61 464.87C494.406 463.872 488.507 462.077 482.455 460.43C476.658 458.834 470.861 458.085 464.809 457.986C458.198 457.836 451.587 458.036 445.077 456.689C444.162 456.439 443.755 457.886 444.721 458.085Z" fill="#161616"/>
<path d="M501.221 413.235C521.359 414.832 541.345 417.975 560.975 422.664C561.941 422.914 562.348 421.467 561.382 421.217C541.65 416.478 521.512 413.335 501.221 411.738C500.255 411.639 500.255 413.135 501.221 413.235Z" fill="#161616"/>
<path d="M521.715 466.766C535.904 452.997 549.533 438.629 562.45 423.662C563.06 422.914 561.992 421.866 561.382 422.614C548.465 437.531 534.836 451.899 520.647 465.718C519.935 466.417 521.003 467.465 521.715 466.766Z" fill="#161616"/>
<path d="M462.47 452.149C479.964 450.053 497.661 452.199 514.087 458.485C515.002 458.834 515.409 457.387 514.494 457.038C497.966 450.752 480.065 448.557 462.47 450.652C461.504 450.752 461.504 452.248 462.47 452.149Z" fill="#161616"/>
<path d="M488.965 446.661C499.746 447.459 510.375 449.105 520.902 451.55C521.868 451.799 522.275 450.353 521.308 450.103C510.68 447.609 499.899 445.962 488.965 445.164C487.948 445.114 487.999 446.611 488.965 446.661Z" fill="#161616"/>
<path d="M480.879 435.635C497.102 435.985 513.172 438.279 528.835 442.52C529.801 442.769 530.208 441.323 529.242 441.073C513.477 436.833 497.254 434.488 480.879 434.139C479.913 434.139 479.913 435.635 480.879 435.635Z" fill="#161616"/>
<path d="M501.017 431.046C509.764 432.243 518.41 433.74 527.055 435.536C528.021 435.735 528.428 434.288 527.462 434.089C518.816 432.293 510.171 430.796 501.424 429.599C500.458 429.449 500.051 430.896 501.017 431.046Z" fill="#161616"/>
<path d="M489.88 464.521C486.778 469.211 483.676 473.9 480.523 478.54C480.218 478.989 480.625 479.737 481.184 479.687C506.255 476.894 531.682 478.49 556.194 484.377C557.161 484.626 557.567 483.18 556.601 482.93C531.937 476.993 506.408 475.397 481.184 478.141C481.387 478.54 481.642 478.889 481.845 479.288C484.947 474.599 488.049 469.909 491.202 465.269C491.762 464.471 490.44 463.723 489.88 464.521Z" fill="#161616"/>
<path d="M551.363 436.184C561.178 435.984 570.942 435.785 580.757 435.585C580.503 435.286 580.249 434.937 580.045 434.637C573.282 450.452 566.467 466.217 559.704 482.032C559.348 482.93 560.822 483.329 561.178 482.431C567.942 466.616 574.757 450.851 581.52 435.037C581.724 434.588 581.215 434.089 580.808 434.089C570.993 434.288 561.229 434.488 551.414 434.687C550.397 434.737 550.397 436.234 551.363 436.184Z" fill="#161616"/>
<path d="M514.189 473.351C516.782 472.852 519.376 472.753 522.02 472.952C522.987 473.002 522.987 471.506 522.02 471.456C519.223 471.256 516.528 471.406 513.782 471.905C512.816 472.054 513.223 473.501 514.189 473.351Z" fill="#161616"/>
<path d="M528.631 473.501C536.615 473.8 544.599 474.549 552.533 475.746C553.499 475.896 553.906 474.449 552.939 474.299C544.904 473.052 536.768 472.304 528.631 472.004C527.665 471.955 527.665 473.451 528.631 473.501Z" fill="#161616"/>
<path d="M529.089 464.122C530.971 464.122 532.852 464.122 534.785 464.122C535.751 464.122 535.751 462.625 534.785 462.625C532.903 462.625 531.021 462.625 529.089 462.625C528.123 462.625 528.123 464.122 529.089 464.122Z" fill="#161616"/>
<path d="M540.938 463.972C547.193 464.122 553.397 464.721 559.602 465.718C560.568 465.868 560.975 464.421 560.008 464.272C553.703 463.274 547.346 462.675 540.938 462.476C539.972 462.476 539.972 463.972 540.938 463.972Z" fill="#161616"/>
<path d="M539.972 455.441C547.091 455.541 554.16 455.94 561.229 456.738C562.195 456.838 562.195 455.342 561.229 455.242C554.16 454.444 547.091 453.995 539.972 453.945C539.006 453.895 539.006 455.391 539.972 455.441Z" fill="#161616"/>
<path d="M492.22 472.004C495.627 472.104 498.983 471.705 502.34 470.907C503.306 470.657 502.899 469.211 501.933 469.46C498.729 470.258 495.525 470.608 492.22 470.508C491.254 470.508 491.254 472.004 492.22 472.004Z" fill="#161616"/>
<path d="M516.376 393.828C515.053 395.425 513.528 398.667 515.104 400.613C516.07 401.81 517.901 401.561 519.274 401.611C521.766 401.711 524.258 401.86 526.75 401.96C536.87 402.409 546.939 402.908 557.059 403.357C558.025 403.407 558.025 401.91 557.059 401.86C549.584 401.511 542.159 401.162 534.683 400.813C531.022 400.663 527.411 400.463 523.749 400.314C521.97 400.214 520.088 400.314 518.308 400.064C516.986 399.865 516.02 399.815 516.07 398.218C516.121 396.971 516.681 395.824 517.443 394.876C518.054 394.128 516.986 393.03 516.376 393.828Z" fill="#161616"/>
<path d="M517.748 395.724C526.292 396.023 534.835 396.273 543.379 396.572C547.549 396.722 551.77 396.822 555.94 396.971C559.703 397.121 563.67 397.37 566.365 400.214C567.026 400.912 568.094 399.865 567.433 399.166C565.399 396.971 562.653 396.123 559.703 395.724C555.33 395.175 550.804 395.275 546.379 395.125C536.819 394.826 527.258 394.477 517.748 394.177C516.782 394.227 516.782 395.724 517.748 395.724Z" fill="#161616"/>
<path d="M556.55 403.407C560.466 403.457 564.178 402.259 567.331 399.965C568.094 399.416 567.331 398.119 566.569 398.667C563.619 400.813 560.263 401.96 556.55 401.91C555.533 401.91 555.533 403.407 556.55 403.407Z" fill="#161616"/>
<path d="M557.771 395.724C555.635 397.121 554.669 399.715 555.381 402.11C555.635 403.008 557.11 402.659 556.856 401.711C556.347 399.965 556.958 398.019 558.534 396.971C559.348 396.472 558.585 395.175 557.771 395.724Z" fill="#161616"/>
<path d="M186.686 216.373C185.415 213.778 181.804 213.579 179.871 215.525C177.786 217.62 176.82 221.661 177.024 224.505C177.481 230.242 183.177 232.936 184.703 238.074C185.415 240.419 189.076 241.168 190.297 238.773C192.331 234.832 195.179 231.439 197.721 227.847C199.959 224.654 203.366 219.715 202.146 215.624C201.637 213.878 200.061 212.382 198.128 212.182C195.789 211.933 194.162 213.329 192.788 215.026C191.415 216.772 190.195 218.568 189.178 220.513C188.262 222.21 187.55 224.205 185.771 225.153C187.245 225.752 188.771 226.351 190.246 226.949C189.585 224.804 188.924 222.659 188.313 220.563C186.635 221.511 184.906 222.509 183.228 223.457C185.516 226.001 189.432 226.351 192.178 224.205C193.45 223.207 194.162 221.86 195.026 220.563C195.433 219.965 195.789 219.416 196.399 219.017C196.806 218.717 197.315 218.518 197.823 218.368C198.84 218.318 198.789 218.219 197.721 218.069C197.213 217.221 196.704 216.323 196.196 215.475C196.196 215.574 196.196 215.724 196.196 215.824C196.959 214.876 197.671 213.878 198.433 212.93C198.332 212.98 198.23 212.98 198.128 213.03C194.416 214.178 195.992 219.965 199.756 218.817C199.857 218.767 199.959 218.767 200.061 218.717C201.434 218.318 202.197 217.171 202.298 215.824C202.298 215.724 202.298 215.574 202.298 215.475C202.349 214.427 201.637 213.429 200.773 212.88C198.23 211.284 194.467 212.831 192.382 214.477C191.212 215.425 190.398 216.522 189.585 217.77C189.076 218.568 188.517 220.264 187.55 219.166C185.516 216.921 181.601 219.316 182.465 222.06C183.126 224.205 183.787 226.351 184.398 228.446C184.957 230.342 187.144 231.19 188.873 230.242C191.466 228.895 192.89 226.55 194.162 224.056C194.924 222.609 195.687 221.212 196.653 219.915C196.806 219.665 198.179 218.268 198.128 218.019C196.806 216.921 196.145 216.971 196.043 218.169C195.941 218.568 195.789 218.917 195.636 219.266C193.094 225.303 188.008 229.893 185.008 235.68C186.889 235.929 188.72 236.179 190.602 236.378C189.636 233.135 187.449 230.791 185.364 228.196C184.499 227.099 183.533 225.902 183.228 224.555C183.024 223.607 183.126 222.758 183.38 221.86C183.533 221.262 183.736 220.713 183.991 220.164C184.855 218.967 183.991 218.668 181.448 219.316C183.126 222.858 188.364 219.815 186.686 216.373Z" fill="#F16A6F"/>
<path d="M189.991 232.736C194.466 227.448 198.382 221.811 201.637 215.774C203.468 212.382 198.179 209.338 196.348 212.731C193.348 218.368 189.839 223.656 185.669 228.496C183.177 231.439 187.449 235.68 189.991 232.736Z" fill="#F16A6F"/>
<path d="M202.044 148.074C201.23 153.313 201.434 158.451 202.858 163.59C203.621 166.384 208.045 165.186 207.282 162.393C206.112 158.102 205.756 153.662 206.468 149.272C206.875 146.428 202.451 145.231 202.044 148.074Z" fill="#69587B"/>
<path d="M203.773 150.369C209.367 152.714 213.842 148.124 214.045 142.736C214.045 142.237 213.74 140.89 213.944 140.441C213.842 140.441 213.74 140.441 213.689 140.441C214.147 140.591 214.503 140.841 214.707 141.29C215.52 142.287 215.927 143.584 216.792 144.582C218.571 146.628 221.012 146.927 223.606 147.077C224.877 147.127 226.403 146.977 227.166 148.174C227.929 149.322 227.522 151.267 227.42 152.564C227.318 154.36 227.166 156.206 227.013 158.002C226.962 158.451 226.505 160.148 227.166 159.499C226.759 159.948 225.081 160.048 224.521 160.198C221.165 160.946 217.707 161.245 214.3 161.046C212.52 160.946 209.824 161.145 208.807 159.599C207.892 158.152 207.841 155.957 208.095 154.311C206.722 154.51 205.298 154.66 203.925 154.859C205.146 157.503 206.316 160.148 207.536 162.842C208.35 164.588 211.299 164.089 211.706 162.293C212.927 156.905 211.248 151.267 212.977 145.979C211.706 146.328 210.435 146.628 209.163 146.977C210.638 148.723 210.282 152.465 210.638 154.61C211.045 157.104 211.757 159.399 212.927 161.594C213.995 163.49 217.351 162.692 217.198 160.447C216.792 154.46 216.385 148.424 216.029 142.437C214.554 142.637 213.028 142.836 211.554 143.036C213.689 148.673 213.995 154.56 212.316 160.347C213.435 159.898 214.554 159.449 215.673 159C212.825 156.855 210.689 154.061 209.214 150.868C208.248 148.823 204.841 149.87 204.942 152.016C205.044 154.011 205.095 156.007 205.197 158.002C206.722 158.002 208.248 158.002 209.774 158.002C209.672 155.508 209.774 153.063 210.282 150.619C210.486 149.771 210.689 148.873 210.943 148.025C211.096 147.476 211.299 146.877 211.503 146.328C212.164 145.53 212.062 145.231 211.198 145.43C213.639 148.823 213.944 153.911 213.537 157.853C214.961 157.454 216.385 157.104 217.809 156.705C216.639 154.36 215.876 151.866 215.571 149.272C215.418 147.925 215.368 146.578 215.469 145.231C215.469 145.031 215.724 143.634 215.622 143.535C215.266 143.584 214.91 143.584 214.554 143.634C214.757 144.033 214.961 144.383 215.164 144.782C217.504 149.471 218.215 154.76 217.656 159.948C219.08 159.549 220.504 159.2 221.928 158.801C221.013 156.855 220.301 154.809 219.894 152.714C219.741 151.816 219.639 150.918 219.741 150.02C219.792 149.521 219.894 149.022 220.046 148.523C220.606 147.925 220.657 147.675 220.199 147.825C219.589 147.725 219.029 147.675 218.419 147.576C219.233 147.975 219.741 151.916 219.894 152.814C220.199 154.959 220.148 157.204 219.843 159.349C221.318 159.349 222.792 159.349 224.267 159.349C223.708 157.753 223.301 156.107 223.047 154.46C222.792 152.864 222.945 151.217 222.436 149.671C223.555 153.113 223.352 156.755 222.335 160.148C223.708 159.948 225.132 159.798 226.505 159.599C225.895 158.302 225.386 156.905 225.132 155.458C224.979 154.76 224.928 154.061 224.877 153.363C224.877 153.063 224.827 152.764 224.877 152.465C225.03 151.766 224.674 151.716 223.86 152.265C223.403 151.916 222.945 151.567 222.487 151.217C225.386 156.107 219.589 161.545 214.656 160.846C215.215 161.545 215.774 162.293 216.334 162.991C216.283 162.093 215.978 160.796 216.283 159.948C215.927 160.397 215.571 160.846 215.215 161.295C214.351 161.844 218.978 161.195 217.046 160.996C214.401 160.746 213.995 164.737 216.436 165.386C218.877 166.035 221.114 167.332 223.708 167.032C225.945 166.783 227.624 165.486 228.539 163.54C229.505 161.495 229.709 159.1 229.403 156.855C229.251 155.608 228.946 154.46 228.437 153.363C228.234 152.864 227.98 152.365 227.725 151.866C227.573 151.567 227.369 151.267 227.166 150.968C226.962 150.519 226.861 150.619 226.962 151.267C228.386 151.666 229.81 152.016 231.234 152.415C231.285 151.467 231.387 150.569 231.438 149.621C229.963 149.821 228.437 150.02 226.962 150.22C227.827 152.714 227.674 155.009 226.657 157.454C225.539 160.148 229.963 161.295 231.082 158.651C232.353 155.508 232.455 152.215 231.387 149.022C230.573 146.578 227.064 147.077 226.912 149.621C226.861 150.569 226.759 151.467 226.708 152.415C226.556 154.61 230.014 155.558 230.98 153.562C232.099 151.168 231.794 148.074 229.2 146.727C226.962 145.58 223.962 146.578 222.894 148.823C221.419 151.916 224.725 154.66 225.03 157.653C225.183 159.05 225.183 161.844 223.606 162.542C222.08 163.191 219.182 161.445 217.758 161.046C217.554 162.492 217.351 163.989 217.148 165.436C221.775 165.835 221.877 159.848 218.673 157.903C217.097 156.955 214.961 156.206 213.283 157.204C211.198 158.451 211.808 160.946 211.859 162.941C211.91 163.839 212.52 164.987 213.537 165.087C221.674 166.234 229.098 159.848 227.522 151.517C227.217 149.87 226.556 148.025 224.674 147.675C223.098 147.376 221.521 148.274 220.86 149.671C219.182 153.213 221.165 158.451 222.691 161.694C223.555 163.54 226.352 162.892 226.861 161.145C227.878 157.803 228.183 154.36 227.573 150.918C227.115 148.324 226.301 144.931 222.996 144.832C215.622 144.682 218.673 156.556 219.945 160.297C220.606 162.193 223.962 162.642 224.369 160.297C224.979 156.456 224.928 152.614 223.911 148.823C223.301 146.578 222.08 142.188 218.775 143.335C216.13 144.283 215.317 148.025 215.317 150.469C215.317 154.061 216.639 157.603 218.165 160.746C219.233 162.991 222.233 161.594 222.436 159.599C222.894 155.408 222.538 151.168 221.318 147.127C220.453 144.283 218.877 138.546 215.012 138.695C211.248 138.795 211.045 143.535 211.045 146.229C211.045 150.569 212.164 154.76 214.096 158.701C215.164 160.896 218.165 159.549 218.368 157.553C218.775 154.011 218.419 150.419 217.3 147.027C216.486 144.532 215.164 140.94 212.113 140.591C208.757 140.242 207.587 144.033 206.824 146.478C205.705 150.07 205.349 153.862 205.502 157.653C205.654 160.547 210.18 160.547 210.079 157.653C209.977 155.658 209.926 153.662 209.824 151.666C208.401 152.066 206.977 152.415 205.553 152.814C207.383 156.755 210.18 159.948 213.639 162.542C214.859 163.44 216.639 162.443 216.995 161.195C218.927 154.71 218.673 147.825 216.232 141.489C215.368 139.294 211.554 139.394 211.757 142.088C212.164 148.074 212.571 154.111 212.927 160.098C214.351 159.699 215.774 159.349 217.198 158.95C214.554 154.111 216.334 147.675 212.723 143.385C211.554 141.988 209.367 142.886 208.909 144.383C207.129 149.721 208.858 155.308 207.638 160.696C209.011 160.497 210.435 160.347 211.808 160.148C210.587 157.503 209.418 154.859 208.197 152.165C207.434 150.469 204.332 150.868 204.027 152.714C203.468 156.206 203.722 161.096 206.824 163.49C208.248 164.588 210.13 164.688 211.91 164.887C214.3 165.137 216.741 165.236 219.182 165.087C221.521 164.937 223.809 164.588 226.098 164.089C227.624 163.74 229.658 163.49 230.726 162.293C232.099 160.846 231.845 158.501 231.997 156.655C232.15 154.46 232.404 152.315 232.455 150.12C232.506 146.528 231.031 143.385 227.268 142.487C225.742 142.138 224.165 142.337 222.589 142.088C220.148 141.739 219.894 139.693 218.571 137.997C216.893 135.802 213.283 134.405 210.994 136.55C209.519 137.947 209.824 139.743 209.875 141.539C209.926 143.135 209.113 147.176 206.519 146.079C203.417 145.38 201.077 149.272 203.773 150.369Z" fill="#69587B"/>
<path d="M69.0086 175.214C72.5684 178.407 75.9248 181.849 78.8235 185.641C80.756 188.135 82.7393 193.124 86.1974 193.823C88.2316 194.222 89.8589 193.174 91.3845 191.977C93.4696 190.331 95.5038 188.634 97.5888 186.938C99.6738 185.242 101.708 183.596 103.793 181.899C105.268 180.702 106.946 179.604 107.048 177.559C107.149 175.613 105.878 174.166 104.708 172.72C103.081 170.674 101.403 168.629 99.7755 166.583C98.1482 164.538 96.47 162.492 94.8426 160.447C93.6221 158.95 92.5033 156.955 90.4692 156.506C88.6384 156.107 86.9602 157.154 85.4346 157.953C83.4004 159 81.4171 160.198 79.5355 161.445C75.8231 163.939 72.365 166.783 69.212 169.976C68.2458 170.974 68.3475 172.819 69.6697 173.518C72.9752 175.164 76.1282 177.11 78.976 179.505C80.2474 180.552 81.4679 181.7 82.6376 182.897C83.197 183.496 83.7564 184.094 84.3158 184.743C84.6717 185.142 85.0277 185.591 85.3837 185.99C85.8414 187.188 86.5025 187.138 87.3162 185.741C87.5196 187.088 87.6722 188.485 87.8756 189.832C93.1644 186.689 97.9956 182.797 102.166 178.307C103.895 176.411 101.708 173.518 99.3687 174.765C95.8089 176.661 92.1474 178.207 88.3333 179.405C89.1978 180.502 90.0623 181.6 90.9268 182.698C93.0627 179.355 95.7072 176.461 98.8093 173.917C97.5888 173.019 96.4191 172.121 95.1986 171.173C92.4016 175.264 88.8927 178.856 84.8752 181.8C85.994 182.648 87.1128 183.496 88.2316 184.344C89.5538 179.654 92.2491 175.513 96.2666 172.57C95.1986 171.522 94.1815 170.525 93.1136 169.477C90.8251 173.917 87.6213 177.709 83.5021 180.602C84.2649 180.602 85.0277 180.602 85.7906 180.602C85.9431 180.752 86.0448 180.951 86.1974 181.101C86.2991 180.702 86.4008 180.303 86.5025 179.954C86.6551 179.455 86.8076 178.956 87.0111 178.407C87.4688 177.06 88.079 175.813 88.7401 174.566C90.0115 172.221 91.588 170.175 93.4696 168.28C92.2491 167.382 91.0794 166.484 89.8589 165.536C87.1636 170.974 83.4512 175.713 78.7726 179.704C80.0949 180.253 81.3662 180.752 82.6884 181.301C83.2478 175.414 85.8414 170.026 90.0623 165.785C88.8418 164.887 87.6722 163.989 86.4517 163.041C84.3666 167.032 81.3154 170.175 77.3487 172.42C78.5184 173.069 79.6372 173.717 80.8068 174.366C80.756 172.57 81.0102 170.824 81.8748 169.227C82.2307 168.529 82.6884 167.88 83.197 167.332C84.0106 166.384 85.5363 166.134 84.1124 165.236C83.4512 164.438 83.0953 164.488 83.0444 165.486C82.7901 165.985 82.5867 166.484 82.3324 166.982C81.9256 167.731 81.5188 168.429 81.1119 169.128C80.6543 169.826 80.1966 170.525 79.688 171.173C79.2812 171.672 78.9252 172.171 78.4675 172.67C77.7555 173.069 77.7047 173.368 78.3149 173.518C78.6709 173.967 79.0269 174.416 79.3829 174.865C78.8743 173.268 80.5525 170.275 81.3154 168.928C81.773 168.18 84.4175 163.889 85.5871 164.139C86.1465 164.239 86.9093 167.032 87.1128 167.531C87.5196 168.629 87.8756 169.776 88.1299 170.924C88.3841 172.071 88.6893 173.268 88.6893 174.416C88.6893 175.763 88.6893 175.813 87.5705 174.865C84.3666 172.171 84.0106 165.336 88.7401 163.79C91.1303 162.991 91.8422 165.985 92.4016 167.681C93.2153 170.125 93.9781 172.62 94.7918 175.114C96.0632 174.366 97.3345 173.668 98.6059 172.919C95.758 170.175 94.2324 166.683 94.1307 162.742C93.1645 163.44 92.1982 164.189 91.232 164.887C96.5717 166.883 97.4362 173.468 98.1482 178.257C98.555 181.101 102.979 179.904 102.573 177.06C101.555 170.275 99.6738 163.191 92.4525 160.547C91.0794 160.048 89.5029 161.345 89.5538 162.692C89.6555 167.781 91.6897 172.42 95.3512 176.012C96.9277 177.559 99.8772 176.012 99.1653 173.817C98.2499 170.974 97.4362 168.13 96.4191 165.336C95.7072 163.341 94.7918 161.245 92.9102 160.048C88.8418 157.404 84.0615 160.397 81.9765 164.039C79.5863 168.28 80.1966 173.568 83.4513 177.16C86.1465 180.103 91.3845 181.7 92.8593 176.761C94.1815 172.37 91.8931 165.885 89.6555 162.093C86.6042 157.005 81.5696 160.846 78.976 164.139C77.603 165.885 76.535 167.781 75.7722 169.826C75.0603 171.722 73.8906 174.815 75.3145 176.661C78.6709 180.951 83.5021 173.668 84.9769 171.273C86.2482 169.277 88.079 166.533 87.7739 164.039C87.4688 161.694 85.2311 160.597 83.0953 161.495C78.4167 163.49 76.0265 169.627 76.2299 174.266C76.2808 175.962 78.1115 177.06 79.688 176.212C84.2649 173.618 87.9773 169.826 90.4183 165.236C91.588 163.041 88.6893 160.647 86.8076 162.492C81.7222 167.581 78.7726 174.067 78.1115 181.151C77.9081 183.246 80.6542 183.895 82.0273 182.747C86.9602 178.557 90.9777 173.418 93.8256 167.681C94.8935 165.486 92.1474 163.041 90.2149 164.937C87.2653 167.93 84.926 171.373 83.2987 175.214C82.2307 177.758 79.9931 182.598 83.4513 184.344C84.1632 184.693 85.0786 184.793 85.7397 184.344C90.52 181.001 94.385 176.761 97.0294 171.622C97.9448 169.826 95.9106 167.082 93.8764 168.529C88.8927 172.221 85.3837 177.11 83.7564 182.997C83.2478 184.743 85.4346 186.739 87.1128 185.541C91.8422 182.149 95.8089 178.108 99.1144 173.318C100.64 171.073 97.3854 169.078 95.5037 170.574C92.0965 173.318 89.2487 176.561 86.9093 180.253C85.8414 181.899 87.6213 184.144 89.5029 183.546C93.7238 182.249 97.7922 180.552 101.657 178.457C100.742 177.26 99.8264 176.112 98.8601 174.915C94.9444 179.155 90.4692 182.797 85.4854 185.741C83.6547 186.838 84.2649 189.133 86.0448 189.832C88.1807 190.68 90.4692 188.984 90.5709 186.838C90.7234 184.244 87.9773 181.8 86.3499 180.103C82.2307 175.713 77.2979 172.121 71.9073 169.477C72.0598 170.674 72.2124 171.822 72.365 173.019C74.7551 170.624 77.2979 168.429 79.9931 166.434C82.4342 164.638 85.4854 162.243 88.3841 161.295C89.2486 160.996 89.1978 160.846 89.9098 161.545C90.6217 162.243 91.1811 163.091 91.7405 163.839C92.8593 165.236 94.029 166.683 95.1478 168.08C96.3683 169.627 97.6396 171.173 98.8601 172.72C99.5213 173.568 102.217 176.112 102.013 177.06C101.81 178.158 99.0127 179.754 98.0973 180.502C96.6734 181.65 95.2495 182.797 93.8256 183.945C92.4016 185.092 90.9777 186.24 89.5538 187.387C88.9435 187.886 87.6213 189.333 86.5534 188.784C86.1465 188.584 85.4346 187.088 85.1803 186.739C81.4679 181.251 77.0436 176.312 72.1107 171.872C70.0765 170.125 66.8218 173.268 69.0086 175.214Z" fill="#69587B"/>
<path d="M71.4495 171.223C73.2802 174.715 84.7733 194.172 89.6554 187.537C91.3844 185.192 87.4178 182.947 85.6887 185.292C85.587 185.392 85.5362 185.541 85.4345 185.641C86.0956 185.292 86.7567 184.893 87.4178 184.543C86.5532 184.643 84.4682 181.8 83.9088 181.151C82.79 179.904 81.6712 178.656 80.6541 177.309C78.6708 174.665 76.9417 171.872 75.4161 168.978C74.0939 166.384 70.1272 168.679 71.4495 171.223Z" fill="#69587B"/>
<path d="M162.428 109.61C156.987 105.719 154.902 97.7363 158.309 91.8993C159.987 89.0057 163.038 86.6609 166.598 87.06C170.26 87.4592 172.04 90.0534 172.294 93.4459C172.447 95.3417 172.243 97.2873 172.192 99.1831C172.091 100.979 172.294 103.074 171.785 104.821C171.277 106.567 169.446 107.515 168.734 109.261C168.124 110.757 168.785 112.055 167.005 112.553C166.497 112.703 165.785 112.653 165.327 112.803C164.513 112.703 164.513 112.853 165.327 113.202C165.123 112.553 164.971 111.955 164.767 111.306C164.106 109.111 163.445 106.866 162.784 104.671C161.665 100.979 159.326 95.5412 162.276 92.0989C161.055 92.2485 159.835 92.3982 158.563 92.5479C160.343 93.845 159.682 99.1332 159.784 100.929C159.936 104.671 160.089 108.413 160.241 112.154C160.394 116.096 165.937 115.946 166.344 112.154C166.751 108.213 166.191 104.322 166.039 100.331C165.937 98.6343 165.937 96.8882 166.191 95.192C166.293 94.3439 166.497 93.5456 166.751 92.7474C166.903 92.1986 167.158 91.6499 167.412 91.151C167.971 90.3028 167.971 90.2031 167.463 90.8516C166.7 90.9514 165.886 91.0512 165.123 91.151C164.971 91.1011 165.683 92.947 165.785 93.3461C165.988 94.0944 166.09 94.8926 166.191 95.641C166.395 97.7363 166.395 99.8816 166.293 101.977C166.242 102.925 166.141 103.873 165.988 104.87C165.886 105.469 165.785 106.068 165.683 106.666C165.174 107.864 166.039 108.163 168.276 107.415C168.48 107.016 167.92 105.419 167.87 104.97C167.768 103.923 167.717 102.825 167.768 101.777C167.819 99.7319 168.073 97.7862 168.582 95.7906C168.734 95.192 168.887 94.6432 169.09 94.0445C169.853 92.7474 169.039 92.2984 166.649 92.7474C166.446 93.0966 167.259 94.9924 167.361 95.3416C167.819 97.437 167.92 99.5822 167.717 101.727C167.615 102.725 167.514 105.968 166.344 106.217C162.53 107.115 164.157 112.903 167.971 112.005C171.989 111.057 173.108 107.066 173.616 103.523C174.176 99.3328 173.972 94.5933 172.345 90.6521C170.768 86.8605 166.141 86.8106 164.106 90.3028C162.072 93.7951 161.615 98.7341 161.665 102.675C161.716 105.868 161.767 111.356 165.683 112.504C170.005 113.751 171.531 109.161 171.989 105.968C172.599 101.777 172.752 97.4869 172.04 93.2962C171.531 90.2031 169.497 84.2663 165.174 85.4137C161.004 86.4614 160.191 93.5955 159.987 96.988C159.733 102.077 160.852 107.115 160.343 112.204C162.377 112.204 164.412 112.204 166.446 112.204C166.242 107.165 166.039 102.127 165.785 97.0878C165.632 93.2463 165.022 89.8538 161.716 87.4592C160.75 86.7108 158.818 87.0102 158.004 87.9082C154.647 91.7995 154.393 96.5889 155.563 101.378C156.173 103.972 157.038 106.567 157.8 109.111C158.512 111.506 158.919 114.399 160.241 116.495C162.326 119.887 168.124 119.089 171.124 117.343C172.701 116.445 173.769 114.948 174.176 113.202C174.43 112.104 174.328 111.655 175.04 110.757C175.854 109.76 176.667 108.961 177.176 107.764C178.041 105.868 178.091 103.773 178.193 101.777C178.295 99.2829 178.549 96.7385 178.498 94.1942C178.396 89.7541 176.922 85.5634 173.006 83.019C165.479 78.1299 156.021 82.6698 152.461 90.0534C148.291 98.784 151.647 109.111 159.428 114.699C162.53 117.043 165.581 111.855 162.428 109.61Z" fill="#F16A6F"/>
<path d="M162.123 122.831C163.14 124.427 164.971 125.026 166.802 124.477C167.615 124.227 168.327 123.778 168.937 123.23C169.09 123.08 169.293 122.93 169.446 122.731C169.599 122.581 169.548 122.581 169.344 122.781C170.31 122.282 169.548 122.132 167.107 122.232C168.327 123.23 170.26 123.479 171.429 122.232C172.497 121.134 172.701 119.089 171.429 117.991C169.955 116.744 168.073 116.545 166.344 117.542C165.784 117.842 165.225 118.291 164.818 118.79C164.462 119.239 165.276 118.49 164.717 118.889C164.818 118.839 164.92 118.79 165.022 118.79C163.954 119.039 164.717 119.388 167.31 119.837C166.446 118.49 164.564 117.842 163.14 118.74C161.869 119.588 161.208 121.434 162.123 122.831Z" fill="#F16A6F"/>
<path d="M163.547 126.772C163.547 126.921 163.547 127.071 163.547 127.221C163.547 127.969 163.903 128.817 164.462 129.316C164.971 129.815 165.835 130.214 166.598 130.214C167.412 130.164 168.225 129.915 168.734 129.316C169.293 128.717 169.649 128.019 169.649 127.221C169.649 127.071 169.649 126.921 169.649 126.772C169.649 126.023 169.293 125.175 168.734 124.676C168.225 124.178 167.361 123.778 166.598 123.778C165.784 123.828 164.971 124.078 164.462 124.676C163.903 125.225 163.547 125.924 163.547 126.772Z" fill="#F16A6F"/>
<path d="M133.339 71.5944C146.714 55.9791 159.529 39.9149 171.836 23.4016C170.667 23.8506 169.548 24.2996 168.378 24.7985C169.548 25.1477 170.412 25.7463 171.277 26.5945C171.124 25.3971 170.972 24.1998 170.819 22.9526C159.072 39.416 147.375 55.8295 135.628 72.2929C137.001 71.9437 138.425 71.5944 139.798 71.1953C138.781 70.5967 137.764 69.998 136.747 69.3494C137.103 70.6964 137.459 72.0933 137.865 73.4403C143.205 66.6055 148.087 59.5213 152.512 52.0878C154.495 48.7452 149.206 45.7519 147.223 49.0446C142.798 56.4282 137.916 63.5623 132.577 70.3971C131.56 71.6942 132.424 73.7397 133.695 74.488C134.713 75.0867 135.73 75.6853 136.747 76.3339C138.221 77.2319 140.001 76.5834 140.917 75.2364C152.664 58.7729 164.361 42.3594 176.108 25.896C176.871 24.7985 176.515 23.1521 175.65 22.2541C174.074 20.6577 172.192 19.5601 170.056 18.9115C168.683 18.4625 167.412 19.2109 166.598 20.3084C154.647 36.3727 142.137 52.0379 129.068 67.2541C126.525 70.2973 130.848 74.5878 133.339 71.5944Z" fill="#F16A6F"/>
<path d="M99.1142 241.217C99.1142 241.068 99.1142 240.918 99.1142 240.768C99.1142 236.927 93.0117 236.927 93.0117 240.768C93.0117 240.918 93.0117 241.068 93.0117 241.217C93.0117 245.109 99.1142 245.109 99.1142 241.217C99.1142 241.068 99.1142 240.918 99.1142 240.768C99.1142 236.927 93.0117 236.927 93.0117 240.768C93.0117 240.918 93.0117 241.068 93.0117 241.217C93.0117 245.109 99.1142 245.109 99.1142 241.217Z" fill="#F16A6F"/>
<path d="M50.3958 199.46C54.3116 199.46 54.3116 193.474 50.3958 193.474C46.48 193.474 46.48 199.46 50.3958 199.46Z" fill="#F16A6F"/>
<path d="M64.1773 202.104C67.1268 202.104 67.1268 197.614 64.1773 197.614C61.2277 197.614 61.2277 202.104 64.1773 202.104Z" fill="#69587B"/>
<path d="M251.068 88.0579C254.017 88.0579 254.017 83.5678 251.068 83.5678C248.118 83.5678 248.118 88.0579 251.068 88.0579Z" fill="#69587B"/>
<path d="M279.75 155.907C279.75 156.206 279.75 156.456 279.75 156.755C279.75 157.354 280.004 157.953 280.411 158.352C280.817 158.751 281.479 159.05 282.038 159C282.648 158.95 283.258 158.801 283.665 158.352C284.072 157.903 284.326 157.354 284.326 156.755C284.326 156.456 284.326 156.206 284.326 155.907C284.326 155.308 284.072 154.71 283.665 154.311C283.258 153.912 282.597 153.612 282.038 153.662C281.428 153.712 280.817 153.862 280.411 154.311C280.004 154.76 279.75 155.308 279.75 155.907Z" fill="#69587B"/>
<path d="M261.29 120.286C269.935 121.633 282.038 125.574 278.834 136.65C277.36 141.738 273.291 145.38 269.274 148.623C265.307 151.766 261.391 154.859 257.781 158.401C254.323 161.794 251.17 165.486 248.271 169.377C245.982 172.47 242.829 176.312 243.185 180.452C243.491 184.144 246.796 185.042 249.796 186.19C254.119 187.836 258.696 190.73 260.374 195.17C262.612 201.156 257.933 206.445 253.509 209.987C249.542 213.18 245.22 215.924 242.524 220.314C242.016 221.162 243.338 221.91 243.846 221.062C248.678 213.08 260.984 209.887 262.358 199.809C262.917 195.868 261.086 192.176 258.187 189.532C256.764 188.185 255.085 187.088 253.356 186.14C251.271 185.042 248.83 184.593 246.796 183.446C241.1 180.203 248.22 171.921 250.661 168.778C254.17 164.239 258.086 160.048 262.408 156.256C269.325 150.07 280.157 144.582 280.919 134.255C281.682 123.778 270.24 120.236 261.798 118.939C260.73 118.69 260.323 120.137 261.29 120.286Z" fill="white"/>
<path d="M111.065 118.69C102.013 129.615 91.7916 139.543 80.5019 148.224C69.4156 156.755 57.3631 163.54 45.1072 170.275C33.8175 176.511 22.4261 182.897 12.7638 191.528C8.44116 195.369 3.66083 199.859 1.21982 205.198C-0.661798 209.338 -0.814361 214.726 4.01681 216.872C6.66124 218.019 9.76337 217.62 12.5095 217.171C16.9847 216.423 21.409 215.475 25.8334 214.627C30.3594 213.778 34.8855 212.88 39.4115 212.032C43.7341 211.234 51.82 210.486 52.0234 216.822C52.0743 217.77 53.5999 217.77 53.5491 216.822C53.3456 210.935 46.938 209.438 42.0051 210.037C34.4786 210.985 27.0539 212.831 19.5783 214.227C14.3403 215.225 0.355293 219.366 1.37238 209.538C2.03349 203.202 8.13603 197.714 12.5604 193.573C21.9176 184.893 33.1564 178.457 44.3444 172.271C56.0918 165.785 67.7883 159.399 78.5695 151.417C90.978 142.188 102.217 131.511 112.032 119.688C112.744 118.989 111.676 117.941 111.065 118.69Z" fill="white"/>
<path d="M30.1561 221.162C25.681 226.45 20.4429 232.686 21.2566 240.02C21.8669 245.658 25.9861 250.946 32.1903 250.547C36.157 250.297 39.6659 248.152 43.124 246.506C47.4467 244.46 51.871 242.614 56.4479 241.267C60.9739 239.97 65.7034 239.122 70.4329 239.022C74.1961 238.972 78.4679 239.222 81.6209 241.517C86.4012 244.909 83.4516 249.998 80.9089 253.789C78.417 257.431 76.2303 261.173 74.2978 265.114C72.5688 268.706 71.0431 272.448 69.8226 276.24C68.9072 279.083 67.8393 282.426 70.0769 284.92C74.8572 290.358 82.1294 285.718 86.1469 282.027C92.3003 276.389 98.9622 271.7 106.641 268.207C115.236 264.316 124.593 262.021 134.001 261.522C138.781 261.273 143.612 261.422 148.342 262.171C152.563 262.819 157.292 264.116 159.276 268.257C159.682 269.105 161.005 268.357 160.598 267.509C157.852 261.672 150.325 260.774 144.528 260.225C136.951 259.527 129.221 260.075 121.796 261.672C114.371 263.268 107.099 265.962 100.488 269.654C97.2332 271.45 94.1819 273.496 91.2323 275.741C87.9268 278.285 85.1298 281.428 81.7734 283.773C78.773 285.868 72.3653 287.415 70.5854 282.825C69.7209 280.58 70.8397 277.986 71.5517 275.791C72.3145 273.496 73.179 271.251 74.1452 269.056C75.8234 265.164 77.8068 261.422 80.0444 257.83C82.0277 254.687 84.9772 251.495 85.6892 247.753C86.8589 241.666 80.7563 238.523 75.5183 237.775C67.7376 236.727 59.4992 238.473 52.1761 241.068C47.7009 242.664 43.48 244.71 39.2082 246.755C34.7839 248.9 29.2916 250.547 25.5284 246.306C18.5105 238.424 25.8844 228.496 31.2241 222.16C31.8852 221.461 30.8173 220.414 30.1561 221.162Z" fill="white"/>
<path d="M59.3973 246.406C64.1777 244.909 68.3986 249.499 68.5003 253.939C68.602 258.629 65.449 262.67 62.296 265.863C61.5841 266.561 62.7029 267.609 63.364 266.91C67.2289 263.019 71.2464 257.481 69.7208 251.694C68.5003 247.154 63.8217 243.462 58.9905 244.959C58.0751 245.258 58.4311 246.705 59.3973 246.406Z" fill="white"/>
<path d="M237.032 117.692C239.371 119.588 242.117 119.987 245.016 120.586C248.169 121.234 250.915 122.431 253.102 124.826C257.221 129.366 258.493 136.201 255.441 141.589C254.984 142.437 256.255 143.185 256.764 142.337C259.713 137.149 259.103 130.763 255.848 125.874C254.323 123.579 252.187 121.583 249.593 120.386C245.932 118.69 241.355 119.239 238.1 116.644C237.337 116.046 236.269 117.093 237.032 117.692Z" fill="white"/>
<path d="M50.5487 223.956C53.4474 231.589 62.652 229.643 68.2969 226.65C71.9075 224.754 75.2639 222.309 78.2135 219.516C81.3665 216.472 83.9092 212.88 87.0113 209.787C90.4186 206.395 95.1989 203.302 100.335 204.15C104.963 204.898 107.76 208.939 110.709 212.032C114.574 216.023 122.355 220.114 126.271 213.778C126.779 212.93 125.457 212.182 124.949 213.03C122.457 217.021 117.168 215.624 114.117 213.23C111.371 211.034 109.387 208.041 106.692 205.796C101.607 201.506 95.2497 201.905 89.8592 205.497C83.9092 209.438 80.2985 215.973 74.8571 220.513C71.6533 223.158 67.9409 225.602 63.9742 227.049C59.7533 228.595 53.8542 228.496 52.0234 223.606C51.6675 222.659 50.1927 223.058 50.5487 223.956Z" fill="white"/>
<path d="M63.2624 177.459C69.7717 182.997 75.2132 189.582 79.4341 196.966C79.8918 197.814 81.214 197.066 80.7563 196.217C76.4845 188.684 70.9922 182.049 64.3303 176.411C63.6183 175.763 62.4995 176.86 63.2624 177.459Z" fill="white"/>
<path d="M64.5844 175.863C70.0767 168.728 77.8575 161.445 86.5027 158.202C87.8758 157.703 89.4523 157.254 90.927 157.603C92.7578 158.002 93.8258 159.549 94.8937 160.946C96.4193 162.891 97.8941 164.887 99.3689 166.883C102.268 170.874 105.014 175.015 107.607 179.205C108.116 180.003 109.438 179.255 108.93 178.457C105.675 173.219 102.166 168.08 98.4535 163.141C95.6565 159.399 93.1138 155.009 87.6724 156.256C82.9429 157.354 78.4168 160.746 74.7045 163.59C70.3818 166.932 66.5677 170.824 63.2114 175.114C62.7028 175.863 64.025 176.611 64.5844 175.863Z" fill="white"/>
<path d="M80.3493 197.614C90.7236 193.324 99.9791 187.038 107.658 178.956C108.319 178.257 107.251 177.21 106.59 177.908C99.1146 185.791 90.0625 192.027 79.9425 196.167C79.0271 196.567 79.4339 198.013 80.3493 197.614Z" fill="white"/>
<path d="M70.4836 176.86C76.281 171.722 82.7395 167.481 89.8591 164.238C90.7237 163.839 89.9609 162.542 89.0963 162.941C81.875 166.234 75.3148 170.574 69.4157 175.813C68.6529 176.411 69.7717 177.509 70.4836 176.86Z" fill="white"/>
<path d="M74.7044 179.355C77.8574 177.11 81.0104 174.915 84.1634 172.67C84.9771 172.121 84.2142 170.824 83.4006 171.373C80.2476 173.618 77.0946 175.813 73.9416 178.058C73.1279 178.656 73.8908 179.954 74.7044 179.355Z" fill="white"/>
<path d="M76.8407 182.797C82.1295 179.155 87.4184 175.464 92.7072 171.822C93.5209 171.273 92.7581 169.976 91.9444 170.525C86.6556 174.166 81.3667 177.858 76.0778 181.5C75.2642 182.049 76.027 183.346 76.8407 182.797Z" fill="white"/>
<path d="M81.3157 186.888C84.5704 184.294 87.9777 181.999 91.5375 179.854C92.402 179.355 91.5884 178.058 90.7747 178.557C87.0623 180.702 83.5533 183.146 80.2478 185.791C79.485 186.439 80.5529 187.487 81.3157 186.888Z" fill="white"/>
<path d="M83.6548 190.979C88.4352 187.138 93.6223 183.945 99.1654 181.301C100.03 180.901 99.2671 179.604 98.4026 180.003C92.7069 182.697 87.4689 186.04 82.5869 189.931C81.8241 190.53 82.892 191.578 83.6548 190.979Z" fill="white"/>
<path d="M188.212 222.309C190.703 219.216 187.754 215.425 184.448 214.527C180.482 213.429 175.956 215.275 173.972 218.767C171.735 222.659 172.65 227.747 175.549 231.04C179.261 235.33 188.924 237.925 187.195 245.009C186.94 245.957 188.415 246.356 188.669 245.408C190.653 237.326 180.736 234.832 176.617 229.992C173.718 226.55 173.21 220.763 176.871 217.62C178.346 216.373 180.431 215.624 182.363 215.724C184.652 215.824 189.585 218.268 187.195 221.312C186.533 222.01 187.601 223.058 188.212 222.309Z" fill="white"/>
<path d="M189.025 222.01C189.432 219.316 190.703 216.921 192.738 215.075C193.704 214.177 194.823 213.479 196.043 212.93C196.653 212.681 197.315 212.431 197.976 212.282C199.4 211.982 199.705 211.982 200.874 212.98C202.044 214.028 202.095 214.327 202.044 215.774C202.044 216.323 201.942 216.871 201.891 217.37C201.739 218.368 201.434 219.316 201.078 220.264C200.315 222.309 199.145 224.205 197.925 226.001C193.551 232.387 187.296 238.224 186.94 246.356C186.889 247.304 188.415 247.304 188.466 246.356C188.924 235.43 200.468 229.144 203.112 218.967C203.621 217.021 204.027 214.527 203.163 212.631C202.095 210.436 199.756 210.336 197.62 210.835C192.432 212.032 188.466 216.472 187.652 221.611C187.398 222.559 188.873 223.008 189.025 222.01Z" fill="white"/>
<path d="M197.671 146.678C196.755 151.517 196.552 156.606 197.671 161.445C198.739 166.084 202.146 165.087 206.062 165.336C214.961 165.935 226.759 171.472 232.608 161.594C233.116 160.746 231.794 159.998 231.286 160.846C226.302 169.277 215.826 165.137 208.198 164.089C206.418 163.839 204.739 163.839 202.96 163.889C200.213 163.889 199.4 162.592 198.993 160.198C198.23 155.857 198.332 151.467 199.196 147.127C199.298 146.129 197.823 145.73 197.671 146.678Z" fill="white"/>
<path d="M197.874 149.072C200.62 147.426 203.01 147.127 206.112 146.628C207.434 146.428 208.299 145.929 208.502 144.582C209.062 141.19 207.587 137.697 210.333 134.804C213.384 131.561 217.504 134.455 218.775 137.747C219.385 139.294 219.741 141.09 220.962 142.337C222.538 143.984 224.623 143.535 226.607 144.083C234.286 146.129 231.997 155.857 230.37 161.095C230.065 161.993 231.54 162.393 231.845 161.495C233.574 156.057 235.303 149.272 230.675 144.732C229.912 143.983 229.048 143.385 228.081 142.986C226.607 142.387 224.979 142.686 223.454 142.138C220.504 141.09 220.555 136.799 218.775 134.604C215.571 130.713 210.079 131.262 207.892 135.802C207.282 137.049 207.079 138.346 206.977 139.693C206.875 141.289 207.638 144.482 205.909 145.131C204.688 145.63 202.807 145.43 201.485 145.829C199.908 146.278 198.484 146.977 197.111 147.775C196.297 148.324 197.06 149.621 197.874 149.072Z" fill="white"/>
<path d="M203.926 147.526C203.163 153.413 204.18 159.25 206.824 164.588C207.231 165.436 208.553 164.687 208.147 163.839C205.604 158.751 204.688 153.163 205.451 147.526C205.604 146.578 204.078 146.578 203.926 147.526Z" fill="white"/>
<path d="M155.004 114.349C148.443 111.356 144.528 104.421 144.883 97.3372C145.29 90.1033 150.274 83.5179 156.631 80.0756C160.598 77.9303 164.818 77.2818 168.836 79.5767C172.497 81.6221 175.091 85.1643 176.566 88.9558C179.21 95.8405 178.244 103.673 174.074 109.809C173.515 110.608 174.837 111.356 175.396 110.558C182.312 100.43 180.736 82.8195 168.073 77.5811C161.716 74.937 154.953 78.4791 150.376 82.8693C145.901 87.1598 143.002 93.2962 143.358 99.4824C143.765 106.317 147.833 112.753 154.19 115.696C155.105 116.046 155.868 114.749 155.004 114.349Z" fill="white"/>
<path d="M154.292 116.145C152.97 117.542 153.326 119.688 154.953 120.735C157.597 122.431 162.174 120.885 164.971 120.236C167.972 119.538 172.498 118.889 174.532 116.295C175.752 114.699 175.752 112.503 174.176 111.156C173.413 110.558 172.345 111.605 173.108 112.204C175.447 114.15 172.396 116.395 170.565 117.093C169.04 117.642 167.463 118.091 165.887 118.49C164.412 118.839 162.937 119.189 161.462 119.438C160.547 119.588 159.53 119.837 158.614 119.887C157.292 119.937 153.478 119.239 155.411 117.243C156.072 116.495 155.004 115.447 154.292 116.145Z" fill="white"/>
<path d="M157.241 121.483C157.445 124.427 159.987 126.323 162.937 126.522C167.005 126.772 170.057 123.429 172.447 120.685C173.057 119.937 171.989 118.889 171.379 119.638C169.701 121.583 167.819 123.828 165.327 124.676C162.784 125.574 159.021 124.577 158.818 121.483C158.716 120.536 157.19 120.536 157.241 121.483Z" fill="white"/>
<path d="M161.36 127.071C160.953 129.117 162.225 131.262 164.412 131.611C166.649 131.96 168.582 130.015 168.632 127.919C168.632 126.971 167.107 126.971 167.107 127.919C167.107 129.166 165.886 130.414 164.513 130.114C163.344 129.865 162.581 128.568 162.835 127.47C163.039 126.522 161.564 126.123 161.36 127.071Z" fill="white"/>
<path d="M150.935 95.4913C155.309 98.2352 158.665 102.077 160.801 106.716C161.208 107.614 162.53 106.816 162.123 105.968C159.886 101.079 156.326 97.0877 151.698 94.1942C150.834 93.6953 150.071 94.9924 150.935 95.4913Z" fill="white"/>
<path d="M158.767 91.8494C159.733 99.0334 160.75 106.217 161.716 113.352C161.869 114.299 163.293 113.9 163.191 112.952C162.225 105.768 161.208 98.5844 160.242 91.4503C160.089 90.5024 158.665 90.9015 158.767 91.8494Z" fill="white"/>
<path d="M161.411 104.072C162.734 99.3827 165.785 95.5911 170.108 93.1964C170.972 92.7474 170.209 91.4503 169.345 91.8993C164.717 94.4436 161.361 98.6343 159.937 103.673C159.682 104.621 161.157 105.02 161.411 104.072Z" fill="white"/>
<path d="M105.98 232.337C108.014 236.677 110.201 240.968 112.642 245.109C113.863 247.154 115.49 251.046 118.49 249.798C119.406 249.399 118.592 248.152 117.727 248.501C115.795 249.299 112.337 241.567 111.676 240.319C110.099 237.476 108.675 234.532 107.302 231.589C106.896 230.691 105.573 231.439 105.98 232.337Z" fill="white"/>
<path d="M107.353 233.235C111.676 229.942 115.897 226.55 120.27 223.357C124.084 220.513 128.204 217.769 132.882 216.472C137.917 215.026 142.29 216.173 145.647 220.164C148.494 223.557 150.224 227.747 152.156 231.639C152.563 232.487 153.885 231.738 153.478 230.89C149.766 223.407 145.392 212.83 134.967 214.477C129.78 215.275 125.101 218.069 120.88 221.062C115.897 224.654 111.116 228.496 106.234 232.237C105.522 232.786 106.59 233.834 107.353 233.235Z" fill="white"/>
<path d="M116.405 249.948C129.678 247.104 141.985 241.018 152.308 232.337C153.071 231.689 151.952 230.641 151.24 231.289C141.12 239.821 129.017 245.707 115.998 248.551C115.032 248.751 115.439 250.197 116.405 249.948Z" fill="white"/>
<path d="M128.763 235.879C126.067 235.231 123.83 232.636 124.491 229.793C125.101 227.049 128.508 225.053 131.204 226.35C136.645 229.044 132.933 236.727 127.339 234.782C126.423 234.482 126.017 235.929 126.932 236.229C130.085 237.326 133.899 235.829 135.12 232.686C136.34 229.593 134.357 225.852 131.255 224.754C127.898 223.557 124.084 225.802 123.118 229.094C121.999 232.786 124.745 236.428 128.356 237.326C129.322 237.575 129.729 236.129 128.763 235.879Z" fill="white"/>
<path d="M155.868 198.013C155.258 192.675 155.207 186.589 161.666 185.142C164.92 184.394 167.615 183.446 169.497 180.502C171.43 177.509 171.175 174.715 170.412 171.423C169.853 168.828 169.904 166.583 172.04 164.638C173.769 163.091 176.057 162.492 178.295 163.191C179.21 163.49 179.617 162.043 178.702 161.744C175.447 160.746 172.04 161.993 169.955 164.638C166.751 168.778 170.514 172.969 169.243 177.409C168.48 180.053 166.395 182.298 163.7 183.196C161.513 183.895 159.174 183.845 157.343 185.342C153.478 188.435 153.834 193.673 154.342 198.013C154.444 198.961 155.97 198.961 155.868 198.013Z" fill="white"/>
<path d="M143.46 170.075C141.883 168.828 143.155 166.034 145.189 167.082C146.003 167.481 146.511 168.429 146.053 169.277C145.596 170.125 144.426 170.574 143.562 170.125C142.697 169.676 141.934 170.974 142.799 171.423C144.375 172.171 146.308 171.622 147.274 170.225C148.291 168.728 147.63 166.833 146.155 165.935C144.68 165.037 142.697 165.286 141.731 166.783C140.866 168.18 141.07 170.125 142.392 171.173C143.155 171.722 144.223 170.674 143.46 170.075Z" fill="white"/>
<path d="M213.029 92.7474C212.113 91.3006 211.554 89.4547 212.113 87.8084C212.571 86.4115 213.995 85.5634 215.47 85.713C217.097 85.8627 217.962 87.3594 217.097 88.7562C216.334 90.0534 214.758 90.7019 213.283 90.5024C212.317 90.4026 212.317 91.8993 213.283 91.999C215.47 92.2485 217.86 90.9514 218.674 88.9059C219.436 87.06 218.47 85.0146 216.538 84.4159C214.707 83.8172 212.469 84.5157 211.351 86.0622C209.672 88.3073 210.334 91.3505 211.707 93.5955C212.215 94.2939 213.537 93.5456 213.029 92.7474Z" fill="white"/>
<path d="M131 153.911C133.747 158.801 139.341 161.545 144.985 160.746C151.902 159.749 155.614 154.56 158.36 148.773C161.564 142.088 165.988 136.6 173.057 133.656C179.465 131.012 187.754 132.359 193.043 127.42C195.077 125.525 196.45 122.88 195.992 120.087C195.636 117.941 194.314 116.145 194.823 113.9C195.433 111.456 197.365 109.66 199.806 109.161C200.773 108.961 200.366 107.515 199.4 107.714C196.45 108.363 194.06 110.558 193.348 113.501C192.941 115.098 193.246 116.544 193.755 118.091C194.568 120.586 194.874 122.631 193.195 124.926C190.246 128.967 185.059 129.516 180.431 130.164C176.312 130.763 172.447 131.86 168.887 133.956C165.734 135.802 162.937 138.296 160.75 141.19C158.36 144.383 157.038 148.124 155.105 151.567C152.664 155.807 148.647 159.05 143.511 159.349C138.832 159.599 134.458 157.154 132.17 153.113C131.865 152.315 130.543 153.063 131 153.911Z" fill="white"/>
<path d="M120.372 72.0933C119.507 78.3294 118.643 84.5656 117.829 90.8017C117.677 91.7496 119.151 92.1487 119.304 91.2008C120.168 84.9647 121.033 78.7286 121.847 72.4924C121.999 71.5445 120.524 71.1454 120.372 72.0933Z" fill="white"/>
<path d="M120.118 91.6498C126.118 87.4092 132.119 83.1687 138.12 78.9281C138.934 78.3793 138.171 77.0822 137.357 77.631C131.356 81.8716 125.356 86.1121 119.355 90.3527C118.541 90.9015 119.304 92.1986 120.118 91.6498Z" fill="white"/>
<path d="M121.338 72.9414C136.391 53.1354 151.19 33.1798 165.734 13.0246C166.293 12.2263 164.971 11.478 164.412 12.2762C149.867 32.4314 135.069 52.437 120.016 72.1931C119.456 72.9414 120.779 73.6897 121.338 72.9414Z" fill="white"/>
<path d="M140.002 76.6831C153.834 58.723 167.26 40.4636 180.278 21.9049C180.838 21.1066 179.516 20.3583 178.956 21.1565C165.938 39.6654 152.512 57.9747 138.68 75.9348C138.069 76.6831 139.392 77.4314 140.002 76.6831Z" fill="white"/>
<path d="M165.276 13.0246C167.667 8.63433 170.464 3.2962 175.753 1.84942C180.991 0.402635 186.127 4.29398 186.229 9.63211C186.229 10.58 187.754 10.58 187.754 9.63211C187.703 4.49354 183.279 -0.146143 177.888 0.00352437C170.82 0.203081 166.853 6.83833 163.954 12.2762C163.497 13.1243 164.819 13.8727 165.276 13.0246Z" fill="white"/>
<path d="M180.583 21.7552C183.177 17.9636 185.516 14.0722 187.601 9.98134C188.059 9.13323 186.737 8.38489 186.279 9.233C184.194 13.3239 181.855 17.2153 179.261 21.0068C178.753 21.7552 180.075 22.5534 180.583 21.7552Z" fill="white"/>
<path d="M164.158 15.4692C170.006 11.5778 177.583 13.6731 180.482 19.9592C180.889 20.8572 182.211 20.0589 181.804 19.2108C178.549 12.1765 169.853 9.83169 163.395 14.172C162.581 14.7208 163.344 16.0179 164.158 15.4692Z" fill="white"/>
<path d="M161.462 19.9592C166.548 16.7663 174.024 18.8616 176.363 24.4492C176.719 25.3472 178.194 24.9481 177.838 24.0501C175.092 17.6643 166.701 14.9204 160.7 18.6621C159.886 19.2108 160.649 20.5079 161.462 19.9592Z" fill="white"/>
<path d="M120.423 73.6399C123.22 75.2862 126.017 71.6942 128.916 71.7441C131.102 71.794 133.136 72.7917 134.408 74.5877C135.323 75.8849 135.781 77.1321 137.256 77.8804C138.12 78.3294 138.883 77.0323 138.019 76.5833C136.289 75.6853 135.781 73.4902 134.306 72.243C133.289 71.3949 132.069 70.7962 130.746 70.4968C129.424 70.1975 128.051 70.1975 126.78 70.4968C125.152 70.896 122.762 73.2407 121.237 72.3427C120.372 71.8438 119.609 73.141 120.423 73.6399Z" fill="white"/>
<path d="M128.763 70.9459C139.035 57.6754 149.359 44.3549 159.631 31.0844C160.242 30.3361 158.919 29.5878 158.309 30.3361C148.037 43.6066 137.713 56.927 127.441 70.1975C126.881 70.9459 128.203 71.6942 128.763 70.9459Z" fill="white"/>
<path d="M144.884 60.968C154.444 47.1986 164.565 33.8782 175.295 20.957C175.905 20.2086 174.837 19.161 174.227 19.9093C163.446 32.9303 153.173 46.3505 143.562 60.2197C143.053 61.0179 144.375 61.7662 144.884 60.968Z" fill="white"/>
<path d="M119.812 86.9103C120.779 86.1121 122.203 86.9103 121.948 88.1576C121.745 89.1055 123.22 89.5046 123.423 88.5567C123.677 87.3593 123.22 86.1121 122.101 85.4636C120.982 84.815 119.66 85.0645 118.694 85.8627C117.982 86.4613 119.05 87.509 119.812 86.9103Z" fill="white"/>
<path d="M120.27 86.7108C120.016 87.7585 119.558 88.7064 118.897 89.5545C119.304 89.8039 119.761 90.0534 120.168 90.3028C120.473 89.2052 121.084 88.2574 121.948 87.4591C121.541 87.4093 121.134 87.3594 120.728 87.3095C120.982 87.8582 120.778 88.4569 120.27 88.7562C120.626 88.9059 121.033 89.0556 121.389 89.2053C121.185 88.5068 121.338 87.8582 121.796 87.3095C121.49 87.3594 121.185 87.4092 120.88 87.4092C121.287 87.6088 121.236 88.1576 120.829 88.3571C121.134 88.407 121.44 88.4569 121.745 88.4569C121.44 88.2075 121.185 87.9081 121.033 87.5589C120.982 87.4092 120.931 87.2596 120.88 87.06C120.88 86.9602 120.778 85.9126 120.626 86.2119C120.168 87.06 121.49 87.8084 121.948 86.9603C122.66 85.6631 120.829 84.5157 119.812 85.5633C118.744 86.7108 119.711 88.6066 120.728 89.4547C120.982 89.7041 121.338 89.754 121.643 89.5545C123.067 88.856 123.067 86.7607 121.694 86.0123C121.44 85.8627 120.982 85.8627 120.778 86.1121C119.965 87.06 119.66 88.2574 119.965 89.4547C120.066 89.9037 120.677 90.1531 121.084 89.9037C122.355 89.1554 122.711 87.6587 122.101 86.4115C121.897 85.9625 121.236 85.9625 120.88 86.2618C119.812 87.2097 119.1 88.407 118.744 89.754C118.541 90.4026 119.507 91.101 120.016 90.5024C120.829 89.4547 121.44 88.3072 121.796 87.0101C121.999 86.162 120.524 85.7629 120.27 86.7108Z" fill="white"/>
<path d="M117.422 94.5434C116.405 99.9314 114.117 104.87 110.506 109.061C109.896 109.809 110.964 110.857 111.574 110.109C115.337 105.669 117.829 100.58 118.897 94.8926C119.049 93.9946 117.575 93.5955 117.422 94.5434Z" fill="white"/>
<path d="M106.794 100.78C101.505 104.621 95.9109 108.063 90.1135 111.107C89.2489 111.556 90.0117 112.853 90.8763 112.404C96.6737 109.36 102.268 105.918 107.557 102.077C108.37 101.478 107.607 100.181 106.794 100.78Z" fill="white"/>
<path d="M230.929 214.826C229.556 212.731 227.268 213.828 226.047 215.425C224.725 217.071 223.657 219.017 222.538 220.813C221.674 222.21 220.656 223.756 220.504 225.502C220.199 228.995 222.894 229.394 225.589 230.242C228.793 231.29 228.59 234.981 226.556 237.027C224.928 238.673 222.538 239.372 220.402 240.07C219.487 240.369 219.894 241.816 220.809 241.517C225.081 240.17 231.438 237.127 229.251 231.539C228.895 230.641 228.285 229.893 227.471 229.394C227.013 229.144 226.505 228.945 225.996 228.795C224.521 228.346 224.115 228.496 222.945 227.248C221.979 226.7 221.674 225.951 222.131 224.954C222.335 224.255 222.589 223.607 222.945 223.008C223.352 222.21 223.86 221.461 224.369 220.713C224.877 219.965 228.437 213.679 229.607 215.525C230.115 216.373 231.438 215.624 230.929 214.826Z" fill="white"/>
<path d="M143.612 273.546C147.782 272.498 151.342 276.539 149.511 280.43C149.104 281.278 150.427 282.077 150.833 281.179C153.224 276.14 148.799 270.702 143.256 272.099C142.239 272.348 142.646 273.795 143.612 273.546Z" fill="white"/>
<path d="M221.521 191.378C219.589 189.981 219.589 186.339 222.539 186.24C223.607 186.19 224.725 186.788 224.674 187.936C224.674 188.884 223.81 190.031 222.742 189.882C221.776 189.732 221.369 191.179 222.335 191.328C224.217 191.628 225.844 190.281 226.149 188.485C226.505 186.639 225.132 185.042 223.301 184.793C221.42 184.494 219.487 185.541 218.826 187.337C218.165 189.333 219.08 191.478 220.759 192.675C221.521 193.224 222.284 191.927 221.521 191.378Z" fill="white"/>
<path d="M8.94969 185.192C9.66165 182.398 12.1027 180.802 14.3911 179.255C16.7813 177.609 19.2223 175.913 21.6633 174.266C26.4945 170.924 31.3257 167.631 36.1568 164.288C36.9705 163.74 36.2077 162.443 35.394 162.991C29.7492 166.883 24.1043 170.724 18.4595 174.615C14.6454 177.21 8.69541 179.954 7.4749 184.793C7.22063 185.741 8.69541 186.14 8.94969 185.192Z" fill="white"/>
<path d="M350.132 447.459C288.344 437.082 226.556 426.705 164.768 416.328C202.298 401.461 239.829 386.644 277.36 371.777C336.046 384.599 394.732 397.42 453.367 410.242C418.989 422.664 384.561 435.037 350.132 447.459Z" fill="white" stroke="#161616" stroke-width="2.7802" stroke-miterlimit="10"/>
<path d="M347.589 448.207C347.793 448.806 347.945 449.455 348.149 450.053C348.403 450.852 349.623 450.702 349.623 449.854C349.623 449.355 349.623 448.906 349.623 448.407C349.623 447.459 348.098 447.459 348.098 448.407C348.098 449.006 347.996 449.554 347.742 450.103C348.25 450.103 348.708 450.103 349.217 450.103C349.013 449.455 348.962 448.856 349.115 448.158C348.657 448.207 348.2 448.257 347.742 448.357C347.894 448.507 347.894 448.607 347.793 448.756C348.25 448.806 348.708 448.856 349.166 448.956C349.064 448.607 349.115 448.307 349.318 448.008C348.861 447.858 348.352 447.758 347.894 447.609C347.793 448.407 347.691 449.155 347.589 449.954C347.538 450.353 347.996 450.702 348.352 450.702C348.81 450.702 349.064 450.353 349.115 449.954C349.217 449.155 349.318 448.407 349.42 447.609C349.522 446.86 348.352 446.661 347.996 447.21C347.589 447.858 347.488 448.607 347.691 449.355C347.844 450.003 348.759 450.053 349.064 449.554C349.471 448.956 349.471 448.207 349.013 447.659C348.657 447.21 347.742 447.16 347.64 447.858C347.437 448.756 347.488 449.704 347.742 450.602C347.996 451.35 348.962 451.251 349.217 450.602C349.471 449.904 349.623 449.205 349.623 448.507C349.115 448.507 348.606 448.507 348.098 448.507C348.098 449.006 348.098 449.455 348.098 449.954C348.606 449.904 349.115 449.804 349.573 449.754C349.369 449.155 349.217 448.507 349.013 447.908C348.81 446.86 347.335 447.26 347.589 448.207Z" fill="#161616"/>
<path d="M348.759 451.799C356.947 447.659 365.897 445.463 374.695 443.019C379.018 441.822 383.289 440.524 387.409 438.828C391.375 437.232 395.189 435.236 399.105 433.44C407.801 429.449 417.209 426.855 426.312 423.911C435.771 420.818 445.179 417.725 454.638 414.682C455.554 414.382 455.147 412.936 454.231 413.235C444.772 416.328 435.364 419.421 425.906 422.465C416.955 425.358 407.75 427.952 399.156 431.794C394.681 433.789 390.307 436.134 385.73 437.88C381.56 439.477 377.289 440.724 372.966 441.921C364.473 444.316 355.879 446.511 347.946 450.502C347.132 450.951 347.895 452.248 348.759 451.799Z" fill="#161616"/>
<path d="M349.471 451.5C384.612 439.576 419.65 427.503 454.689 415.231C457.435 414.283 456.266 409.942 453.469 410.89C418.481 423.163 383.391 435.236 348.251 447.16C345.505 448.107 346.674 452.448 349.471 451.5Z" fill="#161616"/>
<path d="M345.504 403.307C352.116 403.956 357.76 407.897 364.27 409.144C365.236 409.344 365.643 407.897 364.677 407.697C358.066 406.4 352.319 402.459 345.504 401.81C344.538 401.761 344.538 403.257 345.504 403.307Z" fill="#161616"/>
<path d="M364.728 408.446C368.745 406.3 372.508 403.756 375.916 400.763C376.628 400.114 375.56 399.067 374.848 399.715C371.491 402.609 367.881 405.103 363.965 407.149C363.1 407.647 363.863 408.945 364.728 408.446Z" fill="#161616"/>
<path d="M347.081 400.463C350.285 398.218 353.59 396.073 356.997 394.078C357.862 393.579 357.048 392.282 356.235 392.781C352.827 394.776 349.522 396.871 346.318 399.166C345.504 399.765 346.267 401.062 347.081 400.463Z" fill="#161616"/>
<path d="M357.251 394.327C363.049 396.472 368.846 398.568 374.694 400.713C375.61 401.062 376.017 399.615 375.101 399.266C369.304 397.121 363.506 395.026 357.658 392.88C356.743 392.581 356.336 394.028 357.251 394.327Z" fill="#161616"/>
<path d="M340.927 408.994C356.235 413.634 371.338 418.972 386.137 425.009C387.053 425.358 387.459 423.911 386.544 423.562C371.745 417.526 356.642 412.187 341.334 407.548C340.368 407.248 339.961 408.695 340.927 408.994Z" fill="#161616"/>
<path d="M342.402 420.619C351.912 425.109 361.524 429.349 371.237 433.49C372.152 433.889 372.915 432.592 372 432.193C362.286 428.102 352.675 423.812 343.165 419.321C342.301 418.922 341.538 420.219 342.402 420.619Z" fill="#161616"/>
<path d="M343.775 433.44C348.962 436.034 354.15 438.679 359.337 441.273C360.201 441.722 360.964 440.425 360.1 439.976C354.912 437.381 349.725 434.737 344.538 432.143C343.674 431.694 342.911 432.991 343.775 433.44Z" fill="#161616"/>
<path d="M346.725 433.889C353.895 427.903 361.422 422.415 369.253 417.326C370.067 416.777 369.304 415.48 368.491 416.029C360.557 421.168 352.929 426.805 345.657 432.842C344.894 433.49 345.962 434.538 346.725 433.889Z" fill="#161616"/>
<path d="M344.843 423.662C348.912 420.868 352.98 418.074 357.048 415.231C357.862 414.682 357.099 413.385 356.286 413.933C352.217 416.727 348.149 419.521 344.081 422.365C343.318 422.914 344.081 424.211 344.843 423.662Z" fill="#161616"/>
<path d="M347.386 450.901C283.462 440.225 219.538 429.549 155.614 418.872C149.613 374.322 143.561 329.82 137.561 285.269C206.367 294.349 275.122 303.429 343.928 312.559C345.098 358.656 346.267 404.754 347.386 450.901Z" fill="white" stroke="#161616" stroke-width="2.7802" stroke-miterlimit="10"/>
<path d="M233.472 373.823C227.929 372.127 224.928 367.537 224.471 361.999C224.013 356.362 225.132 350.924 230.472 347.98C235.201 345.386 240.846 346.134 245.067 349.277C249.288 352.42 253.051 358.856 249.644 363.795C249.084 364.593 250.406 365.342 250.966 364.543C254.627 359.255 251.169 352.271 246.694 348.629C242.066 344.887 235.811 343.74 230.37 346.384C224.064 349.427 222.437 355.613 222.945 362.049C223.454 368.285 226.81 373.424 233.065 375.319C233.98 375.569 234.387 374.122 233.472 373.823Z" fill="#161616"/>
<path d="M234.896 374.372C232.557 370.58 233.319 365.292 237.083 362.648C240.846 360.003 246.236 361.101 249.084 364.493C249.695 365.242 250.762 364.194 250.152 363.446C246.796 359.505 240.49 358.407 236.116 361.45C231.743 364.543 230.828 370.73 233.574 375.12C234.082 375.918 235.404 375.17 234.896 374.372Z" fill="#161616"/>
<path d="M240.134 376.467C237.744 373.972 238.1 369.333 241.304 367.537C244.457 365.741 248.728 367.786 249.746 371.079C250.051 371.977 251.525 371.628 251.22 370.68C249.898 366.489 244.558 363.995 240.541 366.289C236.523 368.584 236.015 374.371 239.066 377.564C239.727 378.213 240.795 377.165 240.134 376.467Z" fill="#161616"/>
<path d="M244.05 379.959C246.033 380.657 248.322 379.51 249.084 377.664C249.898 375.818 248.83 373.823 247.05 373.024C245.27 372.226 243.134 372.675 242.168 374.371C241.253 376.018 241.558 378.263 243.084 379.46C243.846 380.059 244.914 379.011 244.152 378.412C242.117 376.866 243.541 373.224 246.237 374.321C247.406 374.77 248.22 375.968 247.661 377.215C247.101 378.412 245.677 379.011 244.457 378.562C243.541 378.213 243.134 379.66 244.05 379.959Z" fill="#161616"/>
<path d="M343.928 312.509L348.403 449.953" stroke="#161616" stroke-width="2.7802" stroke-miterlimit="10"/>
<path d="M344.233 312.409C345.606 357.609 346.98 402.808 348.353 448.008" stroke="#161616" stroke-width="2.7802" stroke-miterlimit="10"/>
<path opacity="0.37" d="M256.204 303.23C259.509 304.926 287.886 320.092 289.869 347.032C290.988 361.899 283.564 373.174 278.885 380.059C253.661 417.276 203.773 423.861 190.246 425.258C209.926 438.08 278.681 480.336 353.844 477.841C370.576 477.293 396.511 476.145 424.634 460.979C445.738 449.604 459.418 434.987 467.25 425.258C462.419 422.315 457.638 419.421 452.807 416.478C417.311 428.401 381.764 440.325 346.267 452.198C344.436 406.101 342.606 360.053 340.775 313.956C312.551 310.464 284.377 306.871 256.204 303.23Z" fill="#3D3D3D"/>
<path opacity="0.5" d="M215.775 428.501C222.386 432.792 232.608 438.928 245.83 444.815C262.307 452.199 311.076 474.05 363.914 461.927C402.309 453.097 432.008 428.9 430.076 424.909C428.855 422.415 413.955 425.009 347.59 450.901C346.522 429.798 345.454 408.645 344.437 387.542C342.606 405.303 340.724 423.063 338.894 440.774C297.854 436.733 256.814 432.592 215.775 428.501Z" fill="#3D3D3D"/>
<path d="M229.454 371.628C225.742 367.636 224.522 362.049 226.352 357.16C228.234 352.221 233.218 347.98 239.168 348.18C244.406 348.379 248.627 351.971 250.152 355.364C251.271 357.958 251.017 360.353 251.017 360.353C250.864 361.7 250.406 362.747 250.05 363.396C247.457 360.452 243.49 359.105 239.778 359.954C235.201 361.001 233.218 364.843 233.014 365.192C230.929 369.383 232.76 373.274 233.014 373.723C231.794 372.975 230.624 372.276 229.454 371.628Z" fill="#69587B"/>
<path d="M488.707 307.687C485.961 309.683 483.012 312.377 480.316 315.919C470.298 329.139 471.671 344.655 472.383 349.694C463.484 347.898 448.532 346.152 430.886 350.143C420.359 352.537 411.917 356.279 405.713 359.671C406.679 360.27 408.001 360.969 409.68 361.418C419.189 363.962 429.208 356.129 429.513 356.678C429.818 357.177 418.325 362.465 418.935 367.055C419.342 370.148 424.987 371.795 430.835 373.541C435.768 374.987 440.446 376.384 446.702 375.686C455.296 374.738 461.246 370.497 463.89 368.302C466.433 369.55 470.196 371.196 474.926 372.643C483.622 375.237 495.624 378.829 503.608 373.94C508.795 370.747 510.371 363.263 513.321 348.397C517.084 329.339 518.966 319.81 513.779 313.774C506.913 305.741 493.132 307.088 488.707 307.687Z" fill="white" stroke="#161616" stroke-width="2.7802" stroke-miterlimit="10"/>
<path d="M470.654 350.193C476.808 352.438 481.893 356.529 485.402 361.966C485.911 362.765 487.233 362.016 486.724 361.218C483.012 355.431 477.57 351.14 471.061 348.746C470.146 348.446 469.739 349.893 470.654 350.193Z" fill="#161616"/>
<path d="M437.955 360.071C431.903 361.068 427.021 365.06 424.834 370.647C424.478 371.545 425.953 371.944 426.309 371.046C428.292 365.958 432.869 362.415 438.362 361.517C439.328 361.368 438.921 359.921 437.955 360.071Z" fill="#161616"/>
<path d="M425.546 371.595C428.699 374.538 433.073 375.536 437.192 374.239C438.107 373.94 437.701 372.493 436.785 372.792C433.175 373.94 429.36 373.142 426.614 370.547C425.902 369.849 424.834 370.897 425.546 371.595Z" fill="#161616"/>
<path d="M445.023 365.01C442.837 366.307 440.802 367.803 438.87 369.4C437.599 370.497 436.175 371.795 436.48 373.591C437.243 378.33 443.04 377.282 446.193 376.085C447.108 375.736 446.701 374.289 445.786 374.638C444.413 375.137 442.887 375.786 441.413 375.736C439.022 375.636 436.887 373.391 438.921 371.346C440.853 369.35 443.396 367.753 445.786 366.257C446.651 365.808 445.888 364.511 445.023 365.01Z" fill="#161616"/>
<path d="M486.165 236.495C488.25 238.092 490.945 240.287 493.793 243.131C494.606 243.929 496.691 246.024 498.776 248.618C502.031 252.609 504.116 256.401 506.405 261.041C509.354 266.978 512.304 272.914 515.253 281.795C517.745 289.278 521.559 301.052 522.017 316.717C522.22 322.903 521.814 328.092 521.407 331.734C519.322 329.389 517.237 327.842 515.508 326.844C505.794 321.007 493.996 323.103 482.859 325.098C478.689 325.847 475.231 326.745 472.841 327.393C473.451 321.905 474.01 316.418 474.621 310.93C475.129 306.34 475.587 301.7 476.095 297.061C475.129 295.414 473.807 293.07 472.586 290.126C470.196 284.489 465.416 273.413 468.162 260.991C471.417 246.723 482.859 238.641 486.165 236.495Z" fill="#F16A6F"/>
<path d="M487.945 239.239C493.03 241.833 496.437 246.323 499.387 250.963C502.438 255.752 505.184 260.691 507.625 265.78C512.609 276.157 516.271 287.133 518.661 298.358C518.864 299.306 520.339 298.907 520.136 297.959C517.695 286.285 513.83 274.96 508.541 264.184C505.947 258.895 503.099 253.757 499.845 248.818C496.946 244.428 493.539 240.337 488.758 237.892C487.843 237.493 487.08 238.79 487.945 239.239Z" fill="#161616"/>
<path d="M472.078 289.976C474.417 294.666 476.858 299.256 479.401 303.846C479.859 304.694 481.181 303.945 480.723 303.097C478.18 298.507 475.739 293.918 473.4 289.228C472.942 288.33 471.62 289.078 472.078 289.976Z" fill="#161616"/>
<path d="M475.689 298.557C474.417 308.236 473.146 317.914 471.925 327.593C471.874 328.092 472.485 328.441 472.892 328.291C481.537 325.597 490.538 324.3 499.59 324.599C506.761 324.849 516.27 325.497 520.288 332.382C520.797 333.23 522.068 332.482 521.61 331.634C517.796 325.048 509.456 323.701 502.438 323.252C492.318 322.554 482.147 323.851 472.536 326.844C472.841 327.094 473.197 327.343 473.502 327.543C474.773 317.864 476.045 308.186 477.265 298.507C477.367 297.609 475.841 297.609 475.689 298.557Z" fill="#161616"/>
<path d="M518.558 297.609C520.338 308.585 523.237 320.209 520.237 331.235C519.982 332.183 521.457 332.582 521.711 331.634C524.763 320.359 521.864 308.485 520.033 297.21C519.881 296.262 518.406 296.662 518.558 297.609Z" fill="#161616"/>
<path opacity="0.32" d="M482.299 234.649C486.927 243.131 491.555 253.258 495.471 264.882C503.15 287.831 505.184 308.435 505.337 323.851C500.149 324.15 494.962 324.45 489.775 324.749C491.453 336.573 493.182 348.446 494.861 360.27C491.606 358.424 486.622 356.08 480.214 354.683C478.129 354.234 470.45 352.737 462.263 354.084C445.074 356.928 434.7 370.747 432.36 374.04C434.7 374.987 437.7 375.885 441.311 376.085C452.397 376.734 460.483 370.448 462.873 368.452C470.45 372.194 477.061 373.99 481.74 374.888C489.928 376.534 499.488 378.43 504.777 373.441C505.184 373.042 506.099 372.094 508.083 367.255C511.185 359.572 512.812 352.388 514.948 339.367C515.406 336.473 516.067 332.582 516.728 327.942C517.999 329.189 519.322 330.486 520.593 331.734C521.203 329.489 521.966 326.146 522.373 322.055C523.441 311.429 521.356 303.047 519.372 296.213C511.388 268.574 506.608 251.911 490.64 239.838C487.334 237.443 484.283 235.697 482.299 234.649Z" fill="#3D3D3D"/>
<path opacity="0.29" d="M509.201 268.823C512.609 285.087 513.066 298.907 512.812 308.884C512.558 318.164 511.592 324.949 510.574 331.783C507.574 352.388 506.048 362.665 500.251 367.454C489.266 376.534 469.687 369.649 465.009 367.903C469.433 370.797 485.351 380.625 500.912 375.187C502.539 374.588 504.319 373.84 506.048 372.742C507.879 369.699 510.32 365.01 511.897 358.873C512.812 355.231 513.066 352.587 513.422 349.494C513.982 344.505 514.948 337.221 516.575 328.092C518.05 329.339 519.576 330.586 521.051 331.833C521.559 329.289 522.22 325.398 522.373 320.608C522.83 309.034 520.237 300.254 517.236 290.226C515.609 284.738 513.066 277.354 509.201 268.823Z" fill="#3D3D3D"/>
<path d="M369.403 137.864C369.912 143.203 370.827 150.686 372.861 159.516C374.184 165.254 374.997 168.895 376.726 173.435C379.32 180.27 384.253 193.341 397.119 201.872C400.221 203.968 405.357 206.761 412.579 208.408C413.748 208.507 414.918 208.657 416.088 208.757C416.495 210.852 417.003 213.945 417.512 217.687C418.732 227.316 418.122 230.259 420.665 232.853C423.767 235.996 428.7 235.697 429.768 235.597C438.26 235.048 442.532 226.767 442.735 226.318C441.362 223.873 439.989 220.88 438.871 217.388C436.43 209.655 436.379 202.77 436.786 198.081C440.701 192.543 445.024 188.302 449.397 185.01C451.076 183.762 452.5 182.066 454.991 181.218C458.551 180.021 460.382 181.218 463.026 180.42C467.4 179.073 469.282 173.535 470.095 171.24C473.197 162.16 469.383 153.18 466.942 147.842C464.755 142.953 459.06 130.83 445.176 121.351C430.886 111.573 402.306 100.697 383.388 114.816C380.134 117.26 372.709 123.796 369.403 137.864Z" fill="white"/>
<path d="M371.539 158.419C368.285 157.87 360.046 155.974 354.706 149.04C346.57 138.513 350.943 123.796 355.469 116.013C362.589 103.79 375.557 99.5496 391.83 94.2115C401.493 91.0684 410.697 88.0751 423.207 88.574C430.124 88.8733 453.567 89.8711 467.603 106.983C475.943 117.111 476.859 127.986 478.69 149.439C479.554 159.267 478.893 164.605 477.164 169.694C475.893 173.385 471.773 185.209 459.924 189.949C453.72 192.443 447.973 191.944 444.821 191.445C447.668 187.305 450.516 183.214 453.415 179.073C455.042 179.173 460.84 179.272 465.264 175.331C471.316 169.893 472.384 159.067 467.959 156.174C464.705 154.029 458.246 156.124 452.652 161.063C452.144 157.92 451.33 154.478 449.957 150.935C443.549 134.023 429.615 124.744 422.801 120.902C420.105 124.295 411.562 134.223 396.407 138.164C384.405 141.257 374.438 139.062 370.014 137.765C370.522 144.649 371.031 151.534 371.539 158.419Z" fill="#69587B"/>
<path d="M368.997 139.162C371.082 154.577 373.268 170.592 380.947 184.461C387.253 195.836 397.424 205.564 410.494 208.807C411.46 209.056 411.867 207.609 410.901 207.36C397.984 204.117 388.016 194.339 381.914 183.014C374.641 169.544 372.556 154.078 370.522 139.162C370.37 138.214 368.844 138.214 368.997 139.162Z" fill="#161616"/>
<path d="M410.494 209.006C419.698 209.006 429.361 204.167 436.582 198.979C443.854 193.74 449.804 187.005 454.076 179.223C454.534 178.374 453.212 177.626 452.754 178.474C448.635 186.057 442.888 192.643 435.819 197.682C428.751 202.77 419.393 207.51 410.494 207.51C409.477 207.51 409.477 209.006 410.494 209.006Z" fill="#161616"/>
<path d="M436.531 197.781C435.514 207.859 437.497 217.936 442.176 226.966C442.634 227.815 443.956 227.066 443.498 226.218C438.921 217.388 437.09 207.609 438.057 197.781C438.158 196.833 436.633 196.833 436.531 197.781Z" fill="#161616"/>
<path d="M414.41 208.757C416.088 214.444 417.461 220.231 418.478 226.068C419.139 229.96 419.393 234.35 423.818 235.797C430.429 237.992 440.193 234.101 442.736 227.665C443.092 226.767 441.617 226.368 441.261 227.266C439.837 230.908 436.277 232.903 432.616 233.951C429.564 234.799 424.937 235.697 422.343 233.252C420.817 231.806 420.614 229.511 420.309 227.565C419.953 225.52 419.597 223.474 419.19 221.429C418.275 217.038 417.207 212.648 415.935 208.358C415.63 207.46 414.155 207.859 414.41 208.757Z" fill="#161616"/>
<path d="M416.596 214.943C425.648 213.796 431.598 207.011 435.971 199.727C436.48 198.879 435.158 198.131 434.649 198.979C430.632 205.764 425.038 212.399 416.596 213.447C415.63 213.596 415.63 215.093 416.596 214.943Z" fill="#161616"/>
<path d="M416.24 209.854C423.309 209.056 429.666 205.813 434.395 200.575C435.057 199.877 433.989 198.779 433.328 199.527C428.903 204.466 422.902 207.609 416.24 208.358C415.325 208.458 415.274 209.954 416.24 209.854Z" fill="#161616"/>
<path d="M416.494 208.757C422.19 207.959 427.326 205.664 431.7 202.022C432.463 201.373 431.344 200.326 430.632 200.974C426.462 204.466 421.529 206.612 416.088 207.36C415.121 207.46 415.528 208.907 416.494 208.757Z" fill="#161616"/>
<path d="M416.19 210.004C416.444 211.201 416.393 213.596 417.919 213.995C419.393 214.394 421.631 212.698 422.801 212C426.818 209.605 430.175 206.362 432.819 202.571C433.378 201.772 432.056 201.024 431.497 201.822C429.615 204.566 427.327 207.011 424.631 209.006C423.36 209.954 422.038 210.752 420.665 211.501C420.105 211.8 418.834 212.648 418.275 212.299C417.919 212.099 417.766 209.954 417.715 209.605C417.461 208.657 415.986 209.056 416.19 210.004Z" fill="#161616"/>
<path d="M416.901 211.401C421.275 209.655 425.394 207.46 429.259 204.816C430.073 204.267 429.31 202.97 428.496 203.519C424.733 206.113 420.766 208.258 416.494 209.954C415.579 210.304 415.986 211.75 416.901 211.401Z" fill="#161616"/>
<path d="M417.665 212.898C422.547 211.201 426.818 208.557 430.378 204.866C431.039 204.167 429.971 203.119 429.31 203.818C425.903 207.26 421.885 209.854 417.258 211.451C416.342 211.8 416.749 213.247 417.665 212.898Z" fill="#161616"/>
<path d="M418.478 212.099C422.088 210.553 425.394 208.458 428.242 205.764C428.954 205.115 427.886 204.067 427.174 204.716C424.377 207.31 421.224 209.306 417.715 210.802C416.8 211.201 417.562 212.499 418.478 212.099Z" fill="#161616"/>
<path d="M376.93 177.077C368.641 174.184 365.894 163.557 366.708 155.874C367.573 147.443 375.303 138.264 384.761 142.205C389.288 144.101 390.966 148.99 392.186 153.33C393.458 157.92 394.017 163.009 392.796 167.698C391.729 171.839 389.135 175.78 385.067 177.576C380.998 179.372 376.167 178.374 373.421 174.932C372.811 174.184 371.743 175.231 372.353 175.98C376.981 181.817 385.677 180.669 390.355 175.531C396.305 168.995 395.695 159.067 393.152 151.235C391.983 147.593 390.457 143.801 387.05 141.706C384.1 139.86 380.337 139.411 377.032 140.259C369.302 142.305 365.284 150.337 365.132 157.67C364.979 165.703 368.183 175.631 376.625 178.524C377.438 178.823 377.845 177.377 376.93 177.077Z" fill="#161616"/>
<path d="M394.525 162.16C399.509 159.217 405.561 158.918 410.748 161.462C411.612 161.911 412.375 160.614 411.511 160.165C405.815 157.371 399.204 157.621 393.712 160.863C392.949 161.362 393.712 162.659 394.525 162.16Z" fill="#161616"/>
<path d="M418.834 172.787C413.087 167.349 410.697 158.918 412.935 151.335C415.274 143.452 423.309 136.667 431.954 139.461C441.515 142.554 442.024 155.974 439.532 163.857C438.057 168.496 435.107 173.136 430.225 174.832C425.343 176.529 421.122 173.984 417.207 171.29C416.393 170.741 415.63 172.039 416.444 172.587C419.648 174.832 423.106 177.077 427.174 176.928C431.039 176.778 434.548 174.683 436.938 171.839C442.329 165.453 443.397 155.725 441.159 147.942C439.125 140.858 433.124 136.268 425.445 137.515C418.122 138.663 412.731 145.148 411.104 151.933C409.222 159.766 411.765 168.247 417.664 173.835C418.478 174.533 419.546 173.435 418.834 172.787Z" fill="#161616"/>
<path d="M381.558 156.373C381.049 159.516 381.609 162.56 383.338 165.254C383.694 165.802 384.507 165.703 384.711 165.054C385.931 161.612 384.202 158.219 382.473 155.276C382.117 154.627 381.049 154.927 381.049 155.675C381.1 158.319 381.66 160.913 382.677 163.358C383.033 164.256 384.507 163.857 384.151 162.959C383.185 160.614 382.626 158.219 382.575 155.675C382.117 155.825 381.609 155.924 381.151 156.074C382.727 158.718 384.355 161.612 383.236 164.705C383.694 164.655 384.151 164.605 384.609 164.505C383.083 162.16 382.524 159.516 382.982 156.772C383.185 155.825 381.71 155.425 381.558 156.373Z" fill="#161616"/>
<path d="M426.563 154.976C426.563 154.328 426.512 154.178 426.207 153.629C425.851 152.981 424.783 153.28 424.783 154.029C424.834 157.122 425.089 160.464 427.53 162.659C428.038 163.108 428.75 162.759 428.852 162.111C429.259 158.419 428.14 154.976 425.8 152.083C425.292 151.484 424.377 152.133 424.529 152.831C425.139 155.276 425.902 157.67 426.818 159.965C427.174 160.863 428.648 160.464 428.292 159.566C427.326 157.221 426.563 154.877 426.004 152.432C425.597 152.682 425.139 152.931 424.733 153.18C426.818 155.775 427.682 158.868 427.326 162.16C427.784 161.961 428.191 161.811 428.648 161.612C426.462 159.666 426.36 156.723 426.309 154.029C425.851 154.178 425.343 154.278 424.885 154.428C424.936 154.627 424.987 154.827 425.038 155.026C425.038 155.924 426.563 155.924 426.563 154.976Z" fill="#161616"/>
<path d="M399.611 164.805C398.594 167.798 397.729 170.841 397.17 173.934C396.865 175.581 395.797 178.674 396.559 180.32C398.085 183.663 404.849 181.617 407.188 180.52C408.053 180.121 407.29 178.823 406.425 179.223C404.544 180.121 402.509 180.57 400.424 180.42C399.204 180.32 398.238 180.121 397.983 178.774C397.831 178.025 398.339 176.08 398.492 175.231C399.102 171.789 400.018 168.446 401.136 165.154C401.391 164.306 399.916 163.907 399.611 164.805Z" fill="#161616"/>
<path d="M407.29 193.591C411.104 193.092 414.41 190.697 416.088 187.255C416.495 186.407 415.173 185.608 414.766 186.506C413.24 189.649 410.392 191.695 406.883 192.144C405.917 192.293 406.375 193.74 407.29 193.591Z" fill="#161616"/>
<path d="M378.354 152.083C379.32 150.935 381.1 150.736 382.32 151.734C383.083 152.382 384.151 151.285 383.388 150.686C381.608 149.189 378.862 149.289 377.286 151.035C376.625 151.734 377.693 152.781 378.354 152.083Z" fill="#161616"/>
<path d="M421.986 149.289C423.563 147.942 425.953 147.942 427.53 149.239C428.292 149.838 429.36 148.79 428.598 148.192C426.36 146.296 423.105 146.346 420.868 148.241C420.156 148.89 421.275 149.938 421.986 149.289Z" fill="#161616"/>
<path d="M442.023 156.174C447.516 154.278 453.161 153.131 459.009 152.831C459.975 152.781 459.975 151.285 459.009 151.335C453.059 151.634 447.261 152.781 441.616 154.727C440.701 155.076 441.057 156.523 442.023 156.174Z" fill="#161616"/>
<path opacity="0.4" d="M449.601 94.0119C452.652 97.8534 464.399 113.618 462.213 135.27C460.992 147.343 455.907 156.224 452.703 160.913C454.534 159.516 456.11 158.568 457.28 157.92C460.382 156.224 462.365 155.176 464.908 155.326C465.671 155.376 467.502 155.525 468.824 156.573C472.689 159.766 471.367 171.091 464.501 176.379C460.738 179.272 456.314 179.572 454.076 179.522C451.177 183.563 448.228 187.604 445.329 191.695C447.262 191.994 450.211 192.244 453.618 191.745C455.093 191.545 460.992 190.497 466.586 186.107C472.079 181.767 474.316 176.479 475.791 172.887C479.859 162.909 479.046 154.128 477.622 138.313C477.011 131.279 476.655 127.687 475.231 122.948C473.706 117.809 471.316 110.226 464.501 103.441C459.619 98.452 454.127 95.6583 449.601 94.0119Z" fill="#3D3D3D"/>
<path opacity="0.48" d="M400.475 136.667C405.561 132.227 411.256 126.54 416.749 119.455C420.156 115.065 423.004 110.825 425.343 106.883C424.478 111.373 423.614 115.863 422.8 120.353C420.817 123.147 417.511 127.138 412.375 130.78C407.849 133.923 403.577 135.669 400.475 136.667Z" fill="#3D3D3D"/>
<path opacity="0.27" d="M436.633 130.98C440.498 143.602 440.803 154.178 440.447 161.163C440.192 166.351 438.769 193.541 424.173 202.92C422.749 203.818 419.139 205.913 419.291 206.213C419.495 206.562 426.258 203.618 429.971 201.623C435.819 198.53 444.82 192.294 453.16 179.123C454.533 179.272 461.246 179.721 466.077 175.182C471.926 169.744 472.943 159.067 468.315 155.924C465.009 153.679 458.703 155.575 453.16 160.065C452.601 157.77 451.889 155.376 450.923 152.831C447.109 142.953 441.362 135.769 436.633 130.98Z" fill="#3D3D3D"/>
<path opacity="0.36" d="M424.377 205.813C425.699 209.805 427.021 213.796 428.344 217.837C430.174 223.325 431.954 228.862 433.734 234.35C434.751 234.15 437.243 233.452 439.43 231.257C441.617 229.062 442.329 226.667 442.583 225.669C440.6 221.828 438.26 215.991 437.447 208.607C437.04 204.766 437.141 201.373 437.447 198.53C433.124 200.974 428.75 203.419 424.377 205.813Z" fill="#3D3D3D"/>
<path opacity="0.43" d="M399.001 166.551C396.458 171.889 393.915 177.177 391.373 182.515C395.543 182.415 399.662 182.366 403.832 182.266C401.391 181.517 398.899 180.769 396.458 180.021C397.272 175.531 398.136 171.041 399.001 166.551Z" fill="#3D3D3D"/>
</svg>
